<?xml version="1.0" encoding="utf-8"?>
<!-- Generator: Adobe Illustrator 15.0.0, SVG Export Plug-In . SVG Version: 6.00 Build 0)  -->
<!DOCTYPE svg PUBLIC "-//W3C//DTD SVG 1.1//EN" "http://www.w3.org/Graphics/SVG/1.1/DTD/svg11.dtd">
<svg version="1.1" id="Layer_1" xmlns="http://www.w3.org/2000/svg" xmlns:xlink="http://www.w3.org/1999/xlink" x="0px" y="0px"
	 width="64.213px" height="29.764px" viewBox="0 0 64.213 29.764" enable-background="new 0 0 64.213 29.764" xml:space="preserve">
<g>
	<g>
		<g>
			
				<polygon fill-rule="evenodd" clip-rule="evenodd" fill="none" stroke="#666666" stroke-width="2.1438" stroke-miterlimit="22.9256" points="
				59.116,1.597 48.733,1.78 37.81,1.074 33.927,1.277 33.417,2.587 33.179,1.316 32.71,1.34 32.999,2.849 31.793,1.388 
				27.796,1.597 17.729,1.597 14.18,1.355 13.702,2.082 13.208,1.288 12.878,1.266 5.74,1.597 1.989,5.349 1.326,9.76 1.835,11.191 
				1.837,11.392 5.883,12.548 1.856,13.018 1.861,13.425 4.313,13.176 1.867,13.892 1.906,17.297 1.186,18.972 1.75,20.057 
				1.989,24.357 5.74,28.109 8.396,28.109 10.769,28.667 13.492,28.109 14.882,28.052 15.344,26.594 15.554,28.025 16.076,28.003 
				15.85,23.995 17.392,27.95 21.203,27.794 36.73,28.485 39.906,27.977 45.547,28.151 47.011,26.786 47.118,28.27 48.733,28.595 
				59.116,28.109 62.868,24.357 62.952,23.104 57.559,20.782 63.049,21.663 63.08,21.212 57.49,20.224 62.927,19.341 62.613,16.535 
				63.091,13.812 62.936,11.44 55.816,11.049 63.009,8.484 63.059,8.316 62.868,5.349 			"/>
			<path fill-rule="evenodd" clip-rule="evenodd" fill="#959595" d="M59.116,1.597L48.733,1.78L37.81,1.074l-3.883,0.203
				l-0.511,1.311l-0.237-1.271L32.71,1.34l0.288,1.508l-1.205-1.46l-3.997,0.209H17.729L14.18,1.355l-0.479,0.727l-0.493-0.793
				l-0.33-0.022L5.74,1.597L1.989,5.349L1.326,9.76l0.509,1.431l0.002,0.201l4.045,1.156l-4.026,0.47l0.005,0.407l2.451-0.249
				l-2.445,0.716l0.039,3.405l-0.721,1.675l0.565,1.085l0.238,4.3l3.751,3.752h2.656l2.373,0.558l2.723-0.558l1.39-0.057
				l0.462-1.458l0.209,1.431l0.522-0.021l-0.226-4.009l1.542,3.955l3.811-0.155l15.527,0.69l3.176-0.508l5.642,0.174l1.464-1.365
				l0.106,1.484l1.615,0.325l10.383-0.486l3.752-3.752l0.084-1.253l-5.393-2.322l5.49,0.881l0.03-0.45l-5.59-0.988l5.438-0.883
				l-0.314-2.807l0.479-2.723l-0.155-2.372l-7.12-0.391l7.193-2.565l0.05-0.168l-0.191-2.967L59.116,1.597z"/>
		</g>
		<polygon fill-rule="evenodd" clip-rule="evenodd" fill="#B3B3B3" points="57.34,3.546 45.076,3.3 43.434,3.938 24.591,3.802 
			19.427,3.157 14.053,3.662 11.715,3.303 7.515,3.546 4.315,6.747 4.025,12.017 5.883,12.548 3.984,12.77 3.967,13.081 
			4.018,13.206 4.313,13.176 4.038,13.256 4.493,14.373 4.315,22.959 7.515,26.16 12.975,26.16 15.348,25.741 15.955,25.852 
			15.85,23.995 16.622,25.975 18.348,26.293 34.887,25.851 36.144,26.461 48.705,25.758 50.275,26.26 57.34,26.16 60.609,22.963 
			60.543,22.067 57.559,20.782 60.484,21.251 60.448,20.747 57.49,20.224 60.375,19.755 60.272,18.35 60.636,12.105 60.166,11.288 
			55.816,11.049 60.311,9.446 60.541,6.747 		"/>
	</g>
	<polygon fill-rule="evenodd" clip-rule="evenodd" fill="#CCCCCC" points="24.591,3.802 43.434,3.938 37.81,1.074 33.927,1.277 
		33.417,2.587 33.179,1.316 32.71,1.34 32.999,2.849 31.793,1.388 27.796,1.597 18.986,1.597 19.427,3.157 	"/>
	<polygon fill-rule="evenodd" clip-rule="evenodd" fill="#CCCCCC" points="43.272,1.427 45.076,3.3 57.34,3.546 59.116,1.597 
		48.733,1.78 	"/>
	<polygon fill-rule="evenodd" clip-rule="evenodd" fill="#CCCCCC" points="11.715,3.303 12.878,1.266 5.74,1.597 7.515,3.546 	"/>
	<polygon fill-rule="evenodd" clip-rule="evenodd" fill="#C9C9C9" points="12.878,1.266 11.715,3.303 14.053,3.662 15.304,1.432 
		14.18,1.355 13.702,2.082 13.208,1.288 	"/>
	<polygon fill-rule="evenodd" clip-rule="evenodd" fill="#D6D6D6" points="15.304,1.432 14.053,3.662 19.427,3.157 18.986,1.597 
		17.729,1.597 	"/>
	<polygon fill-rule="evenodd" clip-rule="evenodd" fill="#D6D6D6" points="37.81,1.074 43.434,3.938 45.076,3.3 43.272,1.427 	"/>
	<polygon fill-rule="evenodd" clip-rule="evenodd" fill="#D6D6D6" points="4.315,6.747 7.515,3.546 5.74,1.597 1.989,5.349 	"/>
	<polygon fill-rule="evenodd" clip-rule="evenodd" fill="#D6D6D6" points="57.34,3.546 60.541,6.747 62.868,5.349 59.116,1.597 	"/>
	<polygon fill-rule="evenodd" clip-rule="evenodd" fill="#B3B3B3" points="4.394,19.164 1.906,17.297 1.186,18.972 4.338,21.848 	
		"/>
	<path fill-rule="evenodd" clip-rule="evenodd" fill="#B3B3B3" d="M60.166,11.288l0.471,0.817l0.568-0.76L60.166,11.288
		L60.166,11.288z M63.009,8.484l0.05-0.168l-0.228,0.232L63.009,8.484z"/>
	<path fill-rule="evenodd" clip-rule="evenodd" fill="#8D8D8D" d="M3.967,13.081l-0.226-0.283l-0.514,0.06l0.33,0.395l0.46-0.047
		L3.967,13.081L3.967,13.081z M2.854,11.682L1.326,9.76l0.509,1.431l0.22,0.263L2.854,11.682L2.854,11.682z M3.654,13.368
		l0.839,1.004l-0.455-1.116L3.654,13.368z"/>
	<polygon fill-rule="evenodd" clip-rule="evenodd" fill="#8D8D8D" points="3.924,20.889 1.186,18.972 1.75,20.057 4.338,21.848 	"/>
	<polygon fill-rule="evenodd" clip-rule="evenodd" fill="#8D8D8D" points="63.091,13.812 60.272,18.35 60.375,19.755 60.522,19.732 
		62.613,16.535 	"/>
	<polygon fill-rule="evenodd" clip-rule="evenodd" fill="#8D8D8D" points="7.515,26.16 4.315,22.959 1.989,24.357 5.74,28.109 	"/>
	<polygon fill-rule="evenodd" clip-rule="evenodd" fill="#8D8D8D" points="60.609,22.963 57.34,26.16 59.116,28.109 62.868,24.357 	
		"/>
	<polygon fill-rule="evenodd" clip-rule="evenodd" fill="#8D8D8D" points="10.769,28.667 12.975,26.16 10.245,26.16 8.59,28.155 	
		"/>
	<polygon fill-rule="evenodd" clip-rule="evenodd" fill="#8D8D8D" points="36.144,26.461 36.73,28.485 39.906,27.977 39.118,26.295 
			"/>
	<path fill-rule="evenodd" clip-rule="evenodd" fill="#8D8D8D" d="M17.771,27.934l0.396-1.674l-1.545-0.285l0.77,1.975
		L17.771,27.934L17.771,27.934z M15.955,25.852l-0.607-0.111l-1.587,2.357l1.121-0.046l0.462-1.458l0.209,1.431l0.522-0.021
		L15.955,25.852z"/>
	<polygon fill-rule="evenodd" clip-rule="evenodd" fill="#808080" points="8.59,28.155 10.245,26.16 7.515,26.16 5.74,28.109 
		8.396,28.109 	"/>
	<polygon fill-rule="evenodd" clip-rule="evenodd" fill="#808080" points="12.975,26.16 10.769,28.667 13.492,28.109 13.761,28.098 
		15.348,25.741 	"/>
	<polygon fill-rule="evenodd" clip-rule="evenodd" fill="#808080" points="18.167,26.26 17.771,27.934 21.203,27.794 33.3,28.333 
		34.887,25.851 18.348,26.293 	"/>
	<polygon fill-rule="evenodd" clip-rule="evenodd" fill="#808080" points="39.118,26.295 39.906,27.977 45.547,28.151 
		47.011,26.786 47.079,27.731 48.705,25.758 	"/>
	<polygon fill-rule="evenodd" clip-rule="evenodd" fill="#808080" points="50.275,26.26 48.733,28.595 59.116,28.109 57.34,26.16 	
		"/>
	<polygon fill-rule="evenodd" clip-rule="evenodd" fill="#757575" points="36.73,28.485 36.144,26.461 34.887,25.851 33.3,28.333 	
		"/>
	<polygon fill-rule="evenodd" clip-rule="evenodd" fill="#757575" points="48.705,25.758 47.079,27.731 47.118,28.27 48.733,28.595 
		50.275,26.26 	"/>
	<path fill-rule="evenodd" clip-rule="evenodd" fill="#666666" d="M30.832,19.468l-12.298,1.505l-2.298,4.012l-0.386-0.99
		l2.332-3.439l0.071-0.092l0.115-0.011l11.582-1.106l-9.686-5.554L2.535,12.939l2.917-0.514l14.891,1.117l2.912-6.088l-8.287-2.179
		L14.85,5.241l-0.051-0.113l-1.097-3.046l0.479-0.727l1.052,3.438l8.285,2.328l8.274-0.31l1.254-1.789l-1.252-3.633l1.205,1.46
		l0.592,2.2l0.015,0.104l-0.061,0.087l-1.445,1.635l18.956,4.845l7.653-1.701l2.28,1.315l-9.781,0.903l-5.474,7.319l1.933,3.217
		l3.656-2.416l0.06-0.039l0.071-0.005l9.068-0.58l-1.177,0.82l-7.787,0.288l-4.016,2.411l-0.497,4.007l-0.622,0.076l0.861-4.132
		l-2.104-3.28L30.832,19.468L30.832,19.468z M20.699,13.424l10.219,5.525l14.691,0.314l4.652-6.935L31.994,7.081L23.651,7.65
		L20.699,13.424z"/>
	<polygon fill-rule="evenodd" clip-rule="evenodd" fill="#999999" points="47.221,25.842 47.542,23.251 47.95,25.133 49.189,25.081 
		50.654,25.638 57.109,25.481 59.86,23.696 57.34,26.16 50.275,26.26 48.705,25.758 	"/>
	<polygon fill-rule="evenodd" clip-rule="evenodd" fill="#999999" points="47.051,24.323 46.729,25.87 36.144,26.461 34.887,25.851 
		18.348,26.293 16.622,25.975 16.236,24.985 17.794,22.202 17.018,24.731 18.169,25.393 35.023,24.661 36.349,25.29 46.12,25.463 	
		"/>
	<polygon fill-rule="evenodd" clip-rule="evenodd" fill="#999999" points="23.517,7.121 31.792,6.811 33.045,5.021 31.635,5.958 
		23.644,6.203 15.55,4.388 14.863,3.586 15.232,4.792 	"/>
	<polygon fill-rule="evenodd" clip-rule="evenodd" fill="#999999" points="20.343,13.542 22.912,8.173 19.875,12.797 5.464,12.029 
		4.027,11.976 4.025,12.017 5.453,12.425 	"/>
	<polygon fill-rule="evenodd" clip-rule="evenodd" fill="#999999" points="45.243,17.892 30.866,17.542 20.699,13.424 30.917,18.95 
		45.609,19.264 49.631,13.27 	"/>
	<polygon fill-rule="evenodd" clip-rule="evenodd" fill="#999999" points="29.95,19.346 18.272,19.042 14.678,22.776 14.679,24.731 
		12.167,25.081 8.049,25.36 5.637,24.282 7.515,26.16 10.245,26.16 12.975,26.16 15.348,25.741 15.955,25.852 15.85,23.995 
		18.182,20.555 18.253,20.463 18.368,20.453 	"/>
	<polygon fill-rule="evenodd" clip-rule="evenodd" fill="#999999" points="45.734,19.555 47.667,22.772 51.323,20.356 
		51.382,20.317 51.454,20.312 60.375,19.741 60.272,18.35 60.424,15.737 59.584,18.694 50.652,19.008 47.861,21.311 	"/>
	<polygon fill-rule="evenodd" clip-rule="evenodd" fill="#999999" points="51.055,11.719 58.708,10.018 60.311,9.446 60.425,8.096 
		59.83,9.028 50.722,10.529 33.066,6.586 33.079,5.767 32.099,6.874 	"/>
	<polygon fill-rule="evenodd" clip-rule="evenodd" fill="#FFFFFF" points="47.86,23.061 51.763,21.32 56.928,20.642 51.558,20.84 	
		"/>
	<polygon fill-rule="evenodd" clip-rule="evenodd" fill="#FFFFFF" points="45.734,19.555 51.449,12.63 60.269,11.468 60.232,11.403 
		51.208,12.236 	"/>
	<polygon fill-rule="evenodd" clip-rule="evenodd" fill="#FFFFFF" points="45.181,19.922 30.832,19.468 18.534,20.973 
		30.723,19.854 44.924,20.239 46.998,22.754 	"/>
	<polygon fill-rule="evenodd" clip-rule="evenodd" fill="#FFFFFF" points="29.95,19.346 20.264,13.792 4.519,13.035 20.116,14.236 	
		"/>
	<polygon fill-rule="evenodd" clip-rule="evenodd" fill="#FFFFFF" points="20.699,13.424 23.884,7.955 31.804,7.536 50.261,12.33 
		31.994,7.081 23.651,7.65 	"/>
	<polygon fill-rule="evenodd" clip-rule="evenodd" fill="#FFFFFF" points="14.499,5.547 23.255,7.453 14.969,5.274 14.85,5.241 
		14.798,5.127 14.264,3.642 	"/>
	<polygon fill-rule="evenodd" clip-rule="evenodd" fill="#FFFFFF" points="4.417,6.883 4.067,11.262 4.151,6.891 2.358,5.571 
		4.268,6.547 7.365,3.518 6.354,2.271 7.618,3.367 11.542,3.313 7.618,3.615 	"/>
	<polygon fill-rule="evenodd" clip-rule="evenodd" fill="#FFFFFF" points="19.174,3.051 16.36,3.445 19.445,3.374 24.592,4.176 
		30.236,3.843 24.591,3.802 19.588,3.064 19.088,1.959 	"/>
	<polygon fill-rule="evenodd" clip-rule="evenodd" fill="#FFFFFF" points="60.74,6.909 60.453,7.777 60.321,6.874 57.25,3.768 
		49.94,3.398 57.233,3.384 58.565,2.203 57.546,3.559 60.512,6.472 61.928,5.913 	"/>
	<polygon fill-rule="evenodd" clip-rule="evenodd" fill="#FFFFFF" points="34.748,3.875 42.92,3.935 38.925,1.642 43.434,3.938 
		44.831,3.29 43.902,2.082 45.163,3.142 46.577,3.331 45.267,3.473 43.54,4.188 	"/>
	<polygon fill-rule="evenodd" clip-rule="evenodd" fill="#FFFFFF" points="4.559,19.22 4.466,15.636 4.394,19.164 3.811,20.581 
		2.513,19.901 3.769,20.815 4.338,21.848 4.031,20.963 	"/>
	<circle fill-rule="evenodd" clip-rule="evenodd" fill="#999999" cx="9.231" cy="7.465" r="0.977"/>
	<circle fill-rule="evenodd" clip-rule="evenodd" fill="#999999" cx="14.57" cy="8.826" r="0.244"/>
	<circle fill-rule="evenodd" clip-rule="evenodd" fill="#999999" cx="12.127" cy="10.012" r="0.174"/>
	<circle fill-rule="evenodd" clip-rule="evenodd" fill="#999999" cx="29.015" cy="10.64" r="0.174"/>
	<circle fill-rule="evenodd" clip-rule="evenodd" fill="#999999" cx="26.293" cy="12.175" r="0.523"/>
	<circle fill-rule="evenodd" clip-rule="evenodd" fill="#999999" cx="42.1" cy="12.978" r="0.837"/>
	<circle fill-rule="evenodd" clip-rule="evenodd" fill="#999999" cx="53.335" cy="5.999" r="0.489"/>
	<circle fill-rule="evenodd" clip-rule="evenodd" fill="#999999" cx="42.868" cy="6.208" r="0.488"/>
	<circle fill-rule="evenodd" clip-rule="evenodd" fill="#999999" cx="48.486" cy="7.709" r="0.244"/>
	<circle fill-rule="evenodd" clip-rule="evenodd" fill="#999999" cx="34.25" cy="13.78" r="0.174"/>
	<circle fill-rule="evenodd" clip-rule="evenodd" fill="#999999" cx="10.173" cy="18.386" r="0.384"/>
	<circle fill-rule="evenodd" clip-rule="evenodd" fill="#999999" cx="8.743" cy="22.399" r="0.837"/>
	<circle fill-rule="evenodd" clip-rule="evenodd" fill="#999999" cx="16.279" cy="16.886" r="0.558"/>
	<circle fill-rule="evenodd" clip-rule="evenodd" fill="#999999" cx="21.304" cy="17.653" r="0.279"/>
	<circle fill-rule="evenodd" clip-rule="evenodd" fill="#999999" cx="31.249" cy="23.621" r="1.151"/>
	<circle fill-rule="evenodd" clip-rule="evenodd" fill="#999999" cx="39.099" cy="22.259" r="0.488"/>
	<circle fill-rule="evenodd" clip-rule="evenodd" fill="#999999" cx="44.298" cy="23.62" r="0.383"/>
	<circle fill-rule="evenodd" clip-rule="evenodd" fill="#999999" cx="24.444" cy="22.957" r="0.139"/>
	<circle fill-rule="evenodd" clip-rule="evenodd" fill="#999999" cx="55.569" cy="14.932" r="0.489"/>
	<circle fill-rule="evenodd" clip-rule="evenodd" fill="#999999" cx="52.15" cy="17.165" r="0.279"/>
	<circle fill-rule="evenodd" clip-rule="evenodd" fill="#999999" cx="54.487" cy="23.899" r="0.663"/>
	<circle fill-rule="evenodd" clip-rule="evenodd" fill="#999999" cx="58.291" cy="16.607" r="0.349"/>
	<circle fill-rule="evenodd" clip-rule="evenodd" fill="#999999" cx="58.395" cy="13.292" r="0.244"/>
	<circle fill-rule="evenodd" clip-rule="evenodd" fill="#999999" cx="29.12" cy="4.883" r="0.209"/>
	<circle fill-rule="evenodd" clip-rule="evenodd" fill="#999999" cx="23.772" cy="5.048" r="0.305"/>
</g>
</svg>
