<?xml version="1.0" encoding="utf-8"?>
<!-- Generator: Adobe Illustrator 15.0.0, SVG Export Plug-In . SVG Version: 6.00 Build 0)  -->
<!DOCTYPE svg PUBLIC "-//W3C//DTD SVG 1.1//EN" "http://www.w3.org/Graphics/SVG/1.1/DTD/svg11.dtd">
<svg version="1.1" id="Layer_1" xmlns="http://www.w3.org/2000/svg" xmlns:xlink="http://www.w3.org/1999/xlink" x="0px" y="0px"
	 width="28.925px" height="28.973px" viewBox="0 0 28.925 28.973" enable-background="new 0 0 28.925 28.973" xml:space="preserve">
<polygon fill="none" stroke="#666666" stroke-width="2.1223" stroke-miterlimit="22.9256" points="18.82,1.359 23.81,1.088 
	27.455,4.782 27.862,8.993 27.429,18.383 26.951,18.813 27.393,19.156 27.371,19.664 27.375,19.92 26.207,20.582 27.405,21.362 
	27.455,23.78 23.81,27.473 12.789,27.885 10.305,27.752 9.488,27.117 9.187,27.694 8.441,27.655 8.173,27.246 7.582,27.608 
	5.065,27.473 1.419,23.78 1.724,18.41 1.158,11.297 1.26,11.285 1.85,10.705 1.071,10.199 1.064,10.111 1.419,4.782 5.065,1.088 
	11.162,1.775 16.97,1.459 18.137,2.012 18.8,1.453 "/>
<path fill="#808080" d="M5.065,1.088l6.097,0.688l5.809-0.315l1.215,2.924l0.635-3.023l4.99-0.271l3.646,3.694l0.406,4.211
	l-0.433,9.39L22.898,19.5l4.496-0.342l-0.023,0.508l0.006,0.256l-5.326,0.574l5.355,0.866l0.051,2.419l-3.646,3.692L12.79,27.886
	l-2.483-0.133L9.34,26.132l-0.151,1.563l-0.746-0.038l0.186-1.628l-1.045,1.58l-2.517-0.135L1.419,23.78l0.305-5.368l-0.566-7.114
	l4.111-0.49L1.071,10.2l-0.007-0.089l0.355-5.328L5.065,1.088z"/>
<polygon fill="#B3B3B3" points="22.492,3.04 18.371,3.505 18.185,4.383 17.845,3.563 17.283,3.627 6.478,3.04 3.364,6.196 
	3.017,9.793 3.048,10.484 5.269,10.806 3.076,11.068 3.437,18.908 3.364,22.426 6.478,25.58 15.893,25.934 22.492,25.58 
	25.605,22.426 25.528,21.057 22.048,20.494 25.475,20.125 25.429,19.307 22.897,19.498 25.405,18.881 25.346,17.838 25.91,10.748 
	25.605,6.196 "/>
<polygon fill="#666666" points="8.441,27.655 8.626,26.028 7.582,27.608 8.173,27.246 "/>
<polygon fill="#666666" points="9.338,26.131 9.187,27.694 9.488,27.117 10.305,27.752 "/>
<polygon fill="#666666" points="22.048,20.494 25.528,21.057 27.405,21.362 26.207,20.582 27.375,19.92 25.475,20.125 "/>
<polygon fill="#666666" points="25.429,19.307 27.393,19.156 26.951,18.813 27.429,18.383 25.405,18.881 22.897,19.498 "/>
<polygon fill="#666666" points="18.371,3.505 18.8,1.453 18.137,2.012 16.97,1.459 17.845,3.563 18.185,4.383 "/>
<polygon fill="#666666" points="5.269,10.806 3.048,10.484 1.071,10.199 1.85,10.705 1.26,11.285 3.076,11.068 "/>
<polygon fill="#666666" points="12.628,13.174 18.151,9.164 17.894,3.681 18.533,2.734 18.412,9.231 18.412,9.3 18.356,9.339 
	13.431,13.483 17.437,19.281 24.144,20.268 22.889,20.631 22.048,20.494 17.539,19.951 11.072,23.164 9.694,26.727 9.338,26.131 
	10.842,22.981 10.86,22.946 10.894,22.928 17.167,19.36 12.573,13.431 3.534,11.013 5.269,10.806 "/>
<polygon fill="#CCCCCC" points="6.478,3.04 17.283,3.627 17.845,3.563 16.97,1.459 11.162,1.775 5.065,1.088 "/>
<polygon fill="#CCCCCC" points="18.8,1.453 18.533,2.734 18.517,3.488 22.492,3.04 23.81,1.088 18.82,1.359 "/>
<polygon fill="#D6D6D6" points="6.478,3.04 5.065,1.088 1.419,4.782 3.364,6.196 "/>
<polygon fill="#D6D6D6" points="22.492,3.04 25.605,6.196 27.455,4.782 23.81,1.088 "/>
<polygon fill="#A3A3A3" points="27.455,4.782 25.605,6.196 25.91,10.748 27.862,8.993 "/>
<polygon fill="#A3A3A3" points="3.017,9.793 3.364,6.196 1.419,4.782 1.064,10.111 1.071,10.199 3.048,10.484 "/>
<polygon fill="#999999" points="3.076,11.068 1.26,11.285 1.158,11.297 1.724,18.41 3.437,18.908 "/>
<polygon fill="#999999" points="25.91,10.748 25.346,17.838 27.429,18.383 27.862,8.993 "/>
<polygon fill="#A3A3A3" points="3.364,22.426 3.437,18.908 1.724,18.41 1.419,23.78 "/>
<polygon fill="#8D8D8D" points="3.364,22.426 1.419,23.78 5.065,27.473 6.478,25.58 "/>
<polygon fill="#757575" points="15.893,25.934 12.789,27.885 23.81,27.473 22.492,25.58 "/>
<polygon fill="#8D8D8D" points="25.605,22.426 22.492,25.58 23.81,27.473 27.455,23.78 "/>
<polygon fill="#A3A3A3" points="25.605,22.426 27.455,23.78 27.405,21.362 25.528,21.057 "/>
<polygon fill="#A3A3A3" points="25.475,20.125 27.375,19.92 27.371,19.664 27.393,19.156 25.429,19.307 "/>
<polygon fill="#A3A3A3" points="25.405,18.881 27.429,18.383 25.346,17.838 "/>
<polygon fill="#FFFFFF" points="3.367,5.982 1.758,5.029 3.18,6.326 3.038,10.242 3.519,6.291 6.519,3.268 13.52,3.423 6.621,2.908 
	5.554,1.763 6.248,3.045 "/>
<polygon fill="#FFFFFF" points="22.486,3.234 19.003,3.433 22.316,2.89 23.503,1.541 22.74,3.011 25.605,5.914 26.951,5.168 
	25.774,6.309 25.898,10.373 27.626,9.205 25.91,10.748 25.605,14.581 25.74,10.683 25.468,6.326 "/>
<polygon fill="#FFFFFF" points="18.412,9.3 13.807,13.168 18.876,9.418 18.481,5.431 "/>
<polygon fill="#FFFFFF" points="3.534,11.013 1.441,11.263 3.402,11.206 12.436,13.644 16.68,18.733 12.573,13.431 "/>
<polygon fill="#FFFFFF" points="22.897,19.498 27.393,19.156 27.378,19.453 "/>
<polygon fill="#999999" points="17.437,19.281 13.95,14.234 18.009,18.733 24.111,19.85 27.375,19.92 23.762,20.311 "/>
<polygon fill="#999999" points="10.842,22.981 17.167,19.36 10.315,22.446 8.688,24.987 6.738,25.227 3.773,22.84 6.478,25.58 
	9.546,25.696 "/>
<polygon fill="#999999" points="22.096,24.918 15.892,25.537 10.085,25.717 15.893,25.934 22.492,25.58 25.605,22.426 
	25.528,21.057 25.08,22.24 "/>
<polygon fill="#FFFFFF" points="3.318,18.719 2.164,18.537 3.335,19.096 3.368,22.256 3.606,19.063 3.314,16.246 "/>
<ellipse fill="#999999" cx="5.738" cy="6.306" rx="0.83" ry="0.842"/>
<ellipse fill="#999999" cx="13.851" cy="6.313" rx="0.44" ry="0.446"/>
<ellipse fill="#999999" cx="9.714" cy="10.16" rx="0.475" ry="0.481"/>
<circle fill="#999999" cx="23.207" cy="11.637" r="0.378"/>
<ellipse fill="#999999" cx="21.563" cy="6.777" rx="0.661" ry="0.67"/>
<ellipse fill="#999999" cx="22.057" cy="16.103" rx="1.017" ry="1.03"/>
<circle fill="#999999" cx="6.292" cy="14.661" r="0.206"/>
<ellipse fill="#999999" cx="12.105" cy="17.702" rx="0.593" ry="0.601"/>
<ellipse fill="#999999" cx="6.02" cy="20.124" rx="0.881" ry="0.894"/>
<ellipse fill="#999999" cx="20.615" cy="23.749" rx="0.594" ry="0.601"/>
<circle fill="#999999" cx="16.308" cy="22.993" r="0.36"/>
<polygon fill="#FFFFFF" points="14.462,18.112 11.277,21.297 14.458,18.75 15.86,19.508 "/>
<polygon fill="#FFFFFF" points="18.087,14.486 19.232,15.631 18.537,14.506 21.39,11.183 "/>
<polygon fill="#FFFFFF" points="10.838,14.486 8.765,12.413 8.566,12.599 10.381,14.453 9.36,15.965 "/>
</svg>
