<?xml version="1.0" encoding="utf-8"?>
<!-- Generator: Adobe Illustrator 15.0.0, SVG Export Plug-In . SVG Version: 6.00 Build 0)  -->
<!DOCTYPE svg PUBLIC "-//W3C//DTD SVG 1.1//EN" "http://www.w3.org/Graphics/SVG/1.1/DTD/svg11.dtd">
<svg version="1.1" id="Layer_1" xmlns="http://www.w3.org/2000/svg" xmlns:xlink="http://www.w3.org/1999/xlink" x="0px" y="0px"
	 width="28.925px" height="28.972px" viewBox="0 0 28.925 28.972" enable-background="new 0 0 28.925 28.972" xml:space="preserve">
<g>
	
		<polygon fill-rule="evenodd" clip-rule="evenodd" fill="none" stroke="#666666" stroke-width="2.1223" stroke-miterlimit="22.9256" points="
		18.82,1.383 23.81,1.112 27.455,4.806 27.862,9.018 27.429,18.407 26.951,18.838 27.393,19.182 27.37,19.688 27.375,19.944 
		26.206,20.606 27.405,21.386 27.455,23.805 23.81,27.498 12.789,27.91 10.305,27.777 9.488,27.143 9.187,27.718 8.441,27.678 
		8.173,27.271 7.582,27.632 5.065,27.498 1.42,23.805 1.724,18.434 1.158,11.321 1.26,11.309 1.85,10.729 1.071,10.224 
		1.064,10.136 1.42,4.806 5.065,1.112 11.162,1.799 16.97,1.484 18.137,2.037 18.8,1.478 	"/>
	<path fill-rule="evenodd" clip-rule="evenodd" fill="#808080" d="M5.065,1.112l6.097,0.687l5.809-0.315l1.215,2.923l0.635-3.024
		l4.99-0.271l3.645,3.694l0.407,4.212l-0.433,9.389l-4.532,1.116l4.496-0.342l-0.023,0.507l0.006,0.256l-5.326,0.575l5.355,0.866
		l0.05,2.419l-3.645,3.693L12.789,27.91l-2.483-0.133l-0.967-1.623l-0.151,1.563l-0.746-0.04l0.186-1.627l-1.045,1.581l-2.517-0.134
		L1.42,23.805l0.304-5.371l-0.565-7.112l4.111-0.49l-4.198-0.607l-0.007-0.088l0.356-5.33L5.065,1.112z"/>
	<polygon fill-rule="evenodd" clip-rule="evenodd" fill="#B3B3B3" points="22.492,3.065 18.37,3.529 18.185,4.407 17.845,3.588 
		17.283,3.651 6.478,3.065 3.364,6.221 3.017,9.818 3.048,10.509 5.269,10.831 3.075,11.093 3.437,18.934 3.364,22.449 
		6.478,25.605 15.893,25.957 22.492,25.605 25.605,22.449 25.528,21.082 22.049,20.52 25.475,20.149 25.429,19.331 22.897,19.523 
		25.405,18.905 25.346,17.863 25.91,10.773 25.605,6.221 	"/>
	<polygon fill-rule="evenodd" clip-rule="evenodd" fill="#666666" points="8.441,27.678 8.626,26.051 7.582,27.632 8.173,27.271 	
		"/>
	<polygon fill-rule="evenodd" clip-rule="evenodd" fill="#666666" points="9.338,26.154 9.187,27.718 9.488,27.143 10.305,27.777 	
		"/>
	<polygon fill-rule="evenodd" clip-rule="evenodd" fill="#666666" points="22.049,20.52 25.528,21.082 27.405,21.386 26.206,20.606 
		27.375,19.944 25.475,20.149 	"/>
	<polygon fill-rule="evenodd" clip-rule="evenodd" fill="#666666" points="25.429,19.331 27.393,19.182 26.951,18.838 
		27.429,18.407 25.405,18.905 22.897,19.523 	"/>
	<polygon fill-rule="evenodd" clip-rule="evenodd" fill="#666666" points="18.37,3.529 18.8,1.478 18.137,2.037 16.97,1.484 
		17.845,3.588 18.185,4.407 	"/>
	<polygon fill-rule="evenodd" clip-rule="evenodd" fill="#666666" points="5.269,10.831 3.048,10.509 1.071,10.224 1.85,10.729 
		1.26,11.309 3.075,11.093 	"/>
	<polygon fill-rule="evenodd" clip-rule="evenodd" fill="#666666" points="12.628,13.198 18.151,9.188 17.894,3.706 18.532,2.758 
		18.411,9.256 18.411,9.324 18.356,9.363 13.431,13.508 17.437,19.307 24.144,20.293 22.889,20.655 22.049,20.52 17.538,19.976 
		11.072,23.188 9.694,26.752 9.338,26.154 10.842,23.004 10.86,22.971 10.894,22.951 17.167,19.385 12.573,13.456 3.534,11.038 
		5.269,10.831 	"/>
	<polygon fill-rule="evenodd" clip-rule="evenodd" fill="#CCCCCC" points="6.478,3.065 17.283,3.651 17.845,3.588 16.97,1.484 
		11.162,1.799 5.065,1.112 	"/>
	<polygon fill-rule="evenodd" clip-rule="evenodd" fill="#CCCCCC" points="18.8,1.478 18.532,2.758 18.517,3.512 22.492,3.065 
		23.81,1.112 18.82,1.383 	"/>
	<polygon fill-rule="evenodd" clip-rule="evenodd" fill="#D6D6D6" points="6.478,3.065 5.065,1.112 1.42,4.806 3.364,6.221 	"/>
	<polygon fill-rule="evenodd" clip-rule="evenodd" fill="#D6D6D6" points="22.492,3.065 25.605,6.221 27.455,4.806 23.81,1.112 	"/>
	<polygon fill-rule="evenodd" clip-rule="evenodd" fill="#A3A3A3" points="27.455,4.806 25.605,6.221 25.91,10.773 27.862,9.018 	
		"/>
	<polygon fill-rule="evenodd" clip-rule="evenodd" fill="#A3A3A3" points="3.017,9.818 3.364,6.221 1.42,4.806 1.064,10.136 
		1.071,10.224 3.048,10.509 	"/>
	<polygon fill-rule="evenodd" clip-rule="evenodd" fill="#999999" points="3.075,11.093 1.26,11.309 1.158,11.321 1.724,18.434 
		3.437,18.934 	"/>
	<polygon fill-rule="evenodd" clip-rule="evenodd" fill="#999999" points="25.91,10.773 25.346,17.863 27.429,18.407 27.862,9.018 	
		"/>
	<polygon fill-rule="evenodd" clip-rule="evenodd" fill="#A3A3A3" points="3.364,22.449 3.437,18.934 1.724,18.434 1.42,23.805 	"/>
	<polygon fill-rule="evenodd" clip-rule="evenodd" fill="#8D8D8D" points="3.364,22.449 1.42,23.805 5.065,27.498 6.478,25.605 	"/>
	<polygon fill-rule="evenodd" clip-rule="evenodd" fill="#757575" points="15.893,25.957 12.789,27.91 23.81,27.498 22.492,25.605 	
		"/>
	<polygon fill-rule="evenodd" clip-rule="evenodd" fill="#8D8D8D" points="25.605,22.449 22.492,25.605 23.81,27.498 27.455,23.805 
			"/>
	<polygon fill-rule="evenodd" clip-rule="evenodd" fill="#A3A3A3" points="25.605,22.449 27.455,23.805 27.405,21.386 
		25.528,21.082 	"/>
	<polygon fill-rule="evenodd" clip-rule="evenodd" fill="#A3A3A3" points="25.475,20.149 27.375,19.944 27.37,19.688 27.393,19.182 
		25.429,19.331 	"/>
	<polygon fill-rule="evenodd" clip-rule="evenodd" fill="#A3A3A3" points="25.405,18.905 27.429,18.407 25.346,17.863 	"/>
	<polygon fill-rule="evenodd" clip-rule="evenodd" fill="#FFFFFF" points="3.367,6.007 1.758,5.053 3.18,6.351 3.038,10.267 
		3.519,6.316 6.519,3.292 13.52,3.447 6.621,2.932 5.554,1.789 6.248,3.07 	"/>
	<polygon fill-rule="evenodd" clip-rule="evenodd" fill="#FFFFFF" points="22.486,3.259 19.004,3.458 22.316,2.916 23.504,1.565 
		22.74,3.036 25.605,5.939 26.951,5.192 25.774,6.333 25.898,10.397 27.626,9.23 25.91,10.773 25.605,14.605 25.74,10.707 
		25.469,6.351 	"/>
	<polygon fill-rule="evenodd" clip-rule="evenodd" fill="#FFFFFF" points="18.411,9.324 13.807,13.192 18.877,9.443 18.481,5.456 	
		"/>
	<polygon fill-rule="evenodd" clip-rule="evenodd" fill="#FFFFFF" points="3.534,11.038 1.441,11.288 3.402,11.23 12.436,13.669 
		16.68,18.757 12.573,13.456 	"/>
	<polygon fill-rule="evenodd" clip-rule="evenodd" fill="#FFFFFF" points="11.072,23.188 10.383,24.971 11.318,23.514 
		17.759,20.283 24.727,20.953 17.538,19.976 	"/>
	<polygon fill-rule="evenodd" clip-rule="evenodd" fill="#FFFFFF" points="22.897,19.523 27.393,19.182 27.379,19.478 	"/>
	<polygon fill-rule="evenodd" clip-rule="evenodd" fill="#999999" points="5.269,10.831 3.893,10.632 5.839,10.545 12.23,12.229 
		17.484,8.639 17.989,5.725 18.151,9.188 12.628,13.198 	"/>
	<polygon fill-rule="evenodd" clip-rule="evenodd" fill="#999999" points="17.437,19.307 13.95,14.259 18.009,18.758 24.111,19.875 
		27.375,19.944 23.762,20.334 	"/>
	<polygon fill-rule="evenodd" clip-rule="evenodd" fill="#999999" points="10.842,23.004 17.167,19.385 10.315,22.469 8.688,25.012 
		6.738,25.252 3.772,22.863 6.478,25.605 9.546,25.721 	"/>
	<polygon fill-rule="evenodd" clip-rule="evenodd" fill="#999999" points="22.096,24.943 15.892,25.562 10.085,25.74 15.893,25.957 
		22.492,25.605 25.605,22.449 25.528,21.082 25.079,22.264 	"/>
	<polygon fill-rule="evenodd" clip-rule="evenodd" fill="#FFFFFF" points="3.318,18.744 2.164,18.563 3.335,19.121 3.368,22.281 
		3.606,19.087 3.314,16.27 	"/>
	<ellipse fill-rule="evenodd" clip-rule="evenodd" fill="#999999" cx="7.867" cy="6.148" rx="0.831" ry="0.842"/>
	<ellipse fill-rule="evenodd" clip-rule="evenodd" fill="#999999" cx="13.851" cy="6.338" rx="0.44" ry="0.447"/>
	<ellipse fill-rule="evenodd" clip-rule="evenodd" fill="#999999" cx="9.714" cy="10.185" rx="0.475" ry="0.481"/>
	<circle fill-rule="evenodd" clip-rule="evenodd" fill="#999999" cx="23.207" cy="11.662" r="0.378"/>
	<ellipse fill-rule="evenodd" clip-rule="evenodd" fill="#999999" cx="21.563" cy="6.801" rx="0.661" ry="0.67"/>
	<ellipse fill-rule="evenodd" clip-rule="evenodd" fill="#999999" cx="19.58" cy="16.198" rx="1.017" ry="1.031"/>
	<circle fill-rule="evenodd" clip-rule="evenodd" fill="#999999" cx="6.292" cy="14.686" r="0.206"/>
	<ellipse fill-rule="evenodd" clip-rule="evenodd" fill="#999999" cx="12.105" cy="17.727" rx="0.593" ry="0.601"/>
	<ellipse fill-rule="evenodd" clip-rule="evenodd" fill="#999999" cx="6.02" cy="20.149" rx="0.881" ry="0.893"/>
	<ellipse fill-rule="evenodd" clip-rule="evenodd" fill="#999999" cx="20.614" cy="23.773" rx="0.594" ry="0.602"/>
	<circle fill-rule="evenodd" clip-rule="evenodd" fill="#999999" cx="16.308" cy="23.018" r="0.361"/>
	<g>
		<path fill-rule="evenodd" clip-rule="evenodd" fill="#666666" d="M16.355,7.463c0.27,0.075,0.529,0.164,0.779,0.266
			c0.257,0.105,0.508,0.226,0.753,0.36l0.895-0.896c0.191-0.191,0.442-0.286,0.691-0.286s0.5,0.095,0.691,0.286l-0.001,0.001
			l1.447,1.447l0.002,0.002c0.19,0.191,0.286,0.441,0.286,0.69c0,0.249-0.096,0.499-0.286,0.69l-0.002,0.002l-0.878,0.877
			c0.134,0.238,0.256,0.487,0.365,0.745c0.106,0.254,0.2,0.515,0.277,0.78h1.265c0.268,0,0.513,0.11,0.69,0.288l0.001-0.001
			c0.177,0.178,0.287,0.423,0.287,0.692v2.048c0,0.27-0.11,0.515-0.287,0.691c-0.178,0.178-0.423,0.287-0.691,0.287h-1.243
			c-0.075,0.27-0.164,0.529-0.266,0.78h-0.002c-0.105,0.259-0.226,0.51-0.357,0.75l0.895,0.896h0.001v0.002
			c0.19,0.19,0.286,0.441,0.286,0.689c0,0.25-0.096,0.499-0.286,0.69v0.001l-0.001,0.001l-0.001-0.001l-1.446,1.447v0.002h-0.001
			c-0.19,0.191-0.441,0.287-0.691,0.287s-0.501-0.096-0.691-0.287h-0.001l-0.878-0.879c-0.237,0.134-0.486,0.256-0.743,0.363
			c-0.255,0.107-0.517,0.201-0.781,0.279v1.264c0,0.27-0.11,0.514-0.288,0.691h-0.001c-0.178,0.178-0.422,0.287-0.69,0.287h-2.048
			c-0.269,0-0.513-0.109-0.69-0.287h-0.002c-0.177-0.178-0.287-0.422-0.287-0.691v-1.243c-0.269-0.075-0.529-0.164-0.779-0.267
			c-0.256-0.104-0.507-0.224-0.751-0.357L10,21.745H9.999c-0.19,0.19-0.441,0.287-0.689,0.287c-0.249,0-0.5-0.097-0.69-0.287
			L7.17,20.298H7.168c-0.191-0.191-0.286-0.442-0.286-0.692s0.095-0.502,0.286-0.692H7.17l0.877-0.877
			c-0.133-0.237-0.255-0.486-0.363-0.745c-0.107-0.254-0.201-0.516-0.278-0.78H6.141c-0.268,0-0.513-0.11-0.69-0.288H5.45
			c-0.177-0.177-0.287-0.422-0.287-0.691v-2.048c0-0.268,0.11-0.512,0.287-0.69l0.002-0.001c0.177-0.177,0.422-0.288,0.689-0.288
			h1.243c0.075-0.269,0.164-0.53,0.266-0.78c0.105-0.258,0.225-0.51,0.358-0.752l-0.893-0.894L7.115,10.08l-0.001,0v-0.001
			c-0.19-0.191-0.286-0.441-0.286-0.69c0-0.25,0.096-0.499,0.286-0.69V8.696h0.001l0.001,0l1.446-1.447V7.247l0.001,0
			C8.753,7.056,9.004,6.96,9.254,6.96s0.501,0.095,0.691,0.286l0.001,0L9.946,7.248l0.878,0.878
			c0.238-0.133,0.486-0.255,0.744-0.363c0.255-0.108,0.516-0.201,0.781-0.278V6.22c0-0.27,0.11-0.515,0.287-0.692h0.002
			c0.178-0.177,0.422-0.287,0.69-0.287h2.048c0.27,0,0.515,0.11,0.691,0.287c0.178,0.177,0.287,0.422,0.287,0.692V7.463
			L16.355,7.463z M16.773,8.621c-0.328-0.133-0.664-0.24-1.004-0.315l-0.378-0.084V7.837V6.22c0-0.004-0.002-0.008-0.005-0.01
			c-0.002-0.003-0.006-0.004-0.01-0.004h-2.048c-0.005,0-0.009,0.001-0.012,0.003l0.001,0.001c-0.003,0.002-0.004,0.006-0.004,0.01
			v1.634v0.382l-0.373,0.087c-0.349,0.082-0.684,0.191-1,0.325c-0.321,0.135-0.634,0.3-0.934,0.49l-0.324,0.207l-0.272-0.272
			L9.267,7.929H9.265L9.264,7.928c-0.002-0.002-0.006-0.003-0.01-0.003s-0.008,0.001-0.01,0.003L9.244,7.929L9.243,7.928
			L7.796,9.375v0.001l-0.001,0L7.794,9.376C7.793,9.379,7.792,9.383,7.792,9.388c0,0.004,0.001,0.008,0.002,0.011l0.001-0.001
			l0.001,0V9.4l1.155,1.156l0.27,0.269L9.02,11.149c-0.184,0.296-0.344,0.609-0.478,0.937C8.41,12.414,8.303,12.75,8.227,13.09
			l-0.084,0.379H7.758H6.141c-0.004,0-0.008,0.001-0.011,0.003c-0.002,0.002-0.004,0.007-0.004,0.011v2.048
			c0,0.004,0.002,0.008,0.005,0.011v0.001c0.002,0.002,0.006,0.004,0.01,0.004h1.635h0.382l0.087,0.373
			c0.082,0.348,0.191,0.683,0.324,0.999c0.136,0.321,0.3,0.634,0.491,0.934l0.207,0.325l-0.275,0.273l-1.143,1.143l0.001,0.001
			c-0.002,0.002-0.004,0.007-0.004,0.011s0.002,0.009,0.004,0.011l-0.001,0.001l1.447,1.447c0.002,0.002,0.007,0.003,0.013,0.003
			c0.005,0,0.009-0.001,0.011-0.003H9.319l1.156-1.156l0.27-0.27l0.323,0.201c0.294,0.182,0.608,0.342,0.939,0.477
			c0.328,0.135,0.664,0.24,1.004,0.316l0.379,0.084v0.385v1.617c0,0.004,0.002,0.008,0.004,0.01l-0.001,0.001
			c0.003,0.002,0.007,0.003,0.012,0.003h2.048c0.005,0,0.009-0.001,0.012-0.003l-0.001-0.001c0.002-0.002,0.004-0.006,0.004-0.01
			v-1.635v-0.381l0.373-0.088c0.349-0.082,0.684-0.191,1-0.324c0.32-0.135,0.634-0.301,0.934-0.49l0.325-0.207l0.273,0.272
			l1.144,1.144h0.001c0.002,0.002,0.006,0.004,0.01,0.004s0.008-0.002,0.01-0.004h0.001l0.001,0.001l1.446-1.447v-0.002h0.001v0.001
			c0.002-0.003,0.003-0.008,0.003-0.012s-0.001-0.008-0.003-0.011v0.001h-0.001l-1.156-1.156l-0.269-0.27l0.201-0.324
			c0.186-0.299,0.346-0.613,0.479-0.938l-0.002-0.001c0.134-0.327,0.24-0.663,0.316-1.004l0.084-0.378h0.385h1.617
			c0.003,0,0.008-0.002,0.01-0.005c0.003-0.002,0.005-0.006,0.005-0.01v-2.048c0-0.004-0.002-0.008-0.005-0.011v-0.001
			c-0.001-0.001-0.005-0.003-0.01-0.003h-1.635h-0.381l-0.088-0.373c-0.082-0.348-0.191-0.683-0.324-0.999
			c-0.135-0.321-0.301-0.634-0.491-0.934l-0.206-0.325l0.273-0.274l1.143-1.142c0.002-0.002,0.004-0.007,0.004-0.013
			s-0.002-0.01-0.004-0.012l-1.446-1.446h-0.002c-0.002-0.002-0.006-0.003-0.01-0.003c-0.006,0-0.011,0-0.012,0.002L19.46,7.875
			l-1.156,1.156l-0.269,0.268l-0.323-0.2C17.418,8.917,17.104,8.756,16.773,8.621L16.773,8.621z M18.781,7.194l0.001-0.001
			L18.781,7.194L18.781,7.194z M14.39,11.13c-0.919,0-1.754,0.374-2.359,0.979v0L12.03,12.11c-0.604,0.605-0.979,1.44-0.979,2.359
			s0.374,1.753,0.979,2.359l0.001,0.001v0.001c0.605,0.604,1.44,0.979,2.359,0.979c0.921,0,1.755-0.375,2.36-0.979l0.001,0.001
			c0.604-0.604,0.979-1.439,0.979-2.361c0-0.922-0.374-1.757-0.979-2.361l-0.001,0C16.145,11.504,15.311,11.13,14.39,11.13
			L14.39,11.13z M16.07,12.788c-0.428-0.429-1.022-0.694-1.68-0.694s-1.251,0.265-1.68,0.694l-0.001,0.001
			c-0.429,0.429-0.694,1.022-0.694,1.68c0,0.658,0.266,1.251,0.694,1.679l0.001,0.002c0.429,0.429,1.022,0.693,1.68,0.693
			s1.252-0.265,1.68-0.693v-0.002c0.43-0.429,0.695-1.023,0.695-1.679c0-0.656-0.266-1.25-0.695-1.68V12.788z"/>
	</g>
	<linearGradient id="SVGID_1_" gradientUnits="userSpaceOnUse" x1="14.3906" y1="22.6357" x2="14.3906" y2="5.769">
		<stop  offset="0" style="stop-color:#000000"/>
		<stop  offset="1" style="stop-color:#464748"/>
	</linearGradient>
	<path fill-rule="evenodd" clip-rule="evenodd" fill="url(#SVGID_1_)" d="M15.873,7.837c0.752,0.167,1.457,0.459,2.093,0.853
		l1.156-1.156c0.193-0.193,0.509-0.193,0.702,0l1.448,1.448c0.193,0.193,0.193,0.509,0,0.702l-1.144,1.145
		c0.4,0.631,0.701,1.333,0.877,2.082h1.635c0.273,0,0.497,0.223,0.497,0.497v2.048c0,0.273-0.224,0.496-0.497,0.496h-1.617
		c-0.168,0.752-0.459,1.457-0.854,2.092l1.156,1.156c0.193,0.193,0.193,0.51,0,0.703l-1.447,1.448c-0.193,0.193-0.51,0.193-0.703,0
		l-1.144-1.144c-0.631,0.401-1.333,0.701-2.082,0.877v1.635c0,0.273-0.224,0.496-0.497,0.496h-2.048
		c-0.273,0-0.497-0.223-0.497-0.496v-1.617c-0.751-0.168-1.456-0.459-2.092-0.854L9.66,21.404c-0.193,0.193-0.509,0.193-0.702,0
		l-1.448-1.447c-0.193-0.193-0.193-0.51,0-0.703l1.144-1.144c-0.401-0.631-0.701-1.333-0.877-2.082H6.141
		c-0.273,0-0.497-0.224-0.497-0.497v-2.048c0-0.273,0.224-0.497,0.497-0.497h1.617c0.168-0.751,0.459-1.457,0.853-2.092L7.456,9.739
		c-0.194-0.193-0.194-0.509,0-0.703l1.447-1.448c0.193-0.193,0.51-0.193,0.703,0l1.144,1.144c0.631-0.401,1.333-0.701,2.082-0.876
		V6.22c0-0.274,0.224-0.497,0.497-0.497h2.048c0.273,0,0.496,0.223,0.496,0.497V7.837L15.873,7.837z M14.39,11.612
		c-1.577,0-2.856,1.279-2.856,2.857s1.279,2.857,2.856,2.857c1.578,0,2.857-1.279,2.857-2.857S15.968,11.612,14.39,11.612z"/>
	<path fill-rule="evenodd" clip-rule="evenodd" fill="#FFFFFF" d="M14.429,23.697c2.371,0.362,2.389-0.484,2.266-1.975l1.262-0.91
		l-1.524,0.643c0,0.773,0.128,1.539-0.288,1.955l-0.691,0.287H14.429z"/>
	<path fill-rule="evenodd" clip-rule="evenodd" fill="#FFFFFF" d="M12.411,22.107c0.006-0.205,0.015-0.418,0.015-0.632l-1.53-0.624
		l1.25,0.795L12.411,22.107z"/>
	<path fill-rule="evenodd" clip-rule="evenodd" fill="#FFFFFF" d="M8.292,21.419l-1.123-1.121c-0.382-0.382-0.382-1.003,0-1.385
		l0.44-0.438C6.079,19.503,6.479,20.281,8.292,21.419z"/>
	<path fill-rule="evenodd" clip-rule="evenodd" fill="#FFFFFF" d="M21.535,16.598c1.91,0.072,2.547-0.229,2.084-1.951v0.808
		c0,1.089-1.358,0.936-2.222,0.979c-0.055,0.195-0.116,0.386-0.185,0.571L21.535,16.598z"/>
	<path fill-rule="evenodd" clip-rule="evenodd" fill="#FFFFFF" d="M21.99,20.047c0.361-0.617,0.102-1.227-0.914-1.779
		c0.822,0.688,1.012,1.177,0.703,1.744L21.99,20.047z"/>
	<polygon fill-rule="evenodd" clip-rule="evenodd" fill="#FFFFFF" points="7.114,10.079 7.698,11.612 8.008,10.972 	"/>
</g>
</svg>
