<?xml version="1.0" encoding="utf-8"?>
<!-- Generator: Adobe Illustrator 15.0.0, SVG Export Plug-In . SVG Version: 6.00 Build 0)  -->
<!DOCTYPE svg PUBLIC "-//W3C//DTD SVG 1.1//EN" "http://www.w3.org/Graphics/SVG/1.1/DTD/svg11.dtd">
<svg version="1.1" id="Layer_1" xmlns="http://www.w3.org/2000/svg" xmlns:xlink="http://www.w3.org/1999/xlink" x="0px" y="0px"
	 width="28.925px" height="28.973px" viewBox="0 0 28.925 28.973" enable-background="new 0 0 28.925 28.973" xml:space="preserve">
<g>
	
		<polygon fill-rule="evenodd" clip-rule="evenodd" fill="none" stroke="#666666" stroke-width="2.1223" stroke-miterlimit="22.9256" points="
		18.82,1.359 23.809,1.087 27.455,4.782 27.862,8.993 27.428,18.382 26.951,18.813 27.393,19.157 27.37,19.663 27.375,19.919 
		26.206,20.581 27.405,21.361 27.455,23.779 23.809,27.474 12.789,27.886 10.305,27.753 9.487,27.118 9.188,27.694 8.442,27.654 
		8.174,27.247 7.581,27.608 5.065,27.474 1.42,23.779 1.723,18.409 1.159,11.296 1.26,11.284 1.85,10.704 1.071,10.198 
		1.064,10.111 1.42,4.782 5.065,1.087 11.163,1.775 16.969,1.459 18.137,2.013 18.799,1.453 	"/>
	<path fill-rule="evenodd" clip-rule="evenodd" fill="#808080" d="M5.065,1.087l6.098,0.688l5.807-0.315l1.217,2.923l0.634-3.023
		l4.989-0.271l3.646,3.695l0.407,4.211l-0.434,9.389l-4.531,1.116l4.496-0.341l-0.023,0.506l0.006,0.256l-5.326,0.575l5.355,0.866
		l0.05,2.418l-3.646,3.695l-11.021,0.412l-2.483-0.133L9.338,26.13l-0.15,1.563l-0.746-0.04l0.185-1.627l-1.046,1.581l-2.516-0.134
		L1.42,23.779l0.303-5.369l-0.564-7.113l4.11-0.49l-4.198-0.607l-0.007-0.088L1.42,4.782L5.065,1.087z"/>
	<polygon fill-rule="evenodd" clip-rule="evenodd" fill="#B3B3B3" points="22.491,3.04 18.37,3.505 18.186,4.382 17.844,3.564 
		17.283,3.627 6.478,3.04 3.364,6.197 3.016,9.794 3.048,10.486 5.269,10.806 3.075,11.068 3.436,18.909 3.364,22.425 6.478,25.581 
		15.893,25.933 22.491,25.581 25.605,22.425 25.528,21.058 22.049,20.494 25.475,20.124 25.429,19.306 22.897,19.498 25.405,18.881 
		25.346,17.838 25.91,10.749 25.605,6.197 	"/>
	<polygon fill-rule="evenodd" clip-rule="evenodd" fill="#666666" points="8.442,27.654 8.626,26.027 7.581,27.608 8.174,27.247 	
		"/>
	<polygon fill-rule="evenodd" clip-rule="evenodd" fill="#666666" points="9.338,26.13 9.188,27.694 9.487,27.118 10.305,27.753 	
		"/>
	<polygon fill-rule="evenodd" clip-rule="evenodd" fill="#666666" points="22.049,20.494 25.528,21.058 27.405,21.361 
		26.206,20.581 27.375,19.919 25.475,20.124 	"/>
	<polygon fill-rule="evenodd" clip-rule="evenodd" fill="#666666" points="25.429,19.306 27.393,19.157 26.951,18.813 
		27.428,18.382 25.405,18.881 22.897,19.498 	"/>
	<polygon fill-rule="evenodd" clip-rule="evenodd" fill="#666666" points="18.37,3.505 18.799,1.453 18.137,2.013 16.969,1.459 
		17.844,3.564 18.186,4.382 	"/>
	<polygon fill-rule="evenodd" clip-rule="evenodd" fill="#666666" points="5.269,10.806 3.048,10.486 1.071,10.198 1.85,10.704 
		1.26,11.284 3.075,11.068 	"/>
	<polygon fill-rule="evenodd" clip-rule="evenodd" fill="#666666" points="12.627,13.174 18.151,9.163 17.894,3.681 18.532,2.734 
		18.411,9.232 18.411,9.3 18.356,9.339 13.43,13.484 17.438,19.282 24.145,20.269 22.889,20.63 22.049,20.494 17.538,19.95 
		11.072,23.163 9.694,26.728 9.338,26.13 10.842,22.98 10.86,22.947 10.893,22.927 17.167,19.361 12.573,13.431 3.534,11.013 
		5.269,10.806 	"/>
	<polygon fill-rule="evenodd" clip-rule="evenodd" fill="#CCCCCC" points="6.478,3.04 17.283,3.627 17.844,3.564 16.969,1.459 
		11.163,1.775 5.065,1.087 	"/>
	<polygon fill-rule="evenodd" clip-rule="evenodd" fill="#CCCCCC" points="18.799,1.453 18.532,2.734 18.518,3.488 22.491,3.04 
		23.809,1.087 18.82,1.359 	"/>
	<polygon fill-rule="evenodd" clip-rule="evenodd" fill="#D6D6D6" points="6.478,3.04 5.065,1.087 1.42,4.782 3.364,6.197 	"/>
	<polygon fill-rule="evenodd" clip-rule="evenodd" fill="#D6D6D6" points="22.491,3.04 25.605,6.197 27.455,4.782 23.809,1.087 	"/>
	<polygon fill-rule="evenodd" clip-rule="evenodd" fill="#A3A3A3" points="27.455,4.782 25.605,6.197 25.91,10.749 27.862,8.993 	
		"/>
	<polygon fill-rule="evenodd" clip-rule="evenodd" fill="#A3A3A3" points="3.016,9.794 3.364,6.197 1.42,4.782 1.064,10.111 
		1.071,10.198 3.048,10.486 	"/>
	<polygon fill-rule="evenodd" clip-rule="evenodd" fill="#999999" points="3.075,11.068 1.26,11.284 1.159,11.296 1.723,18.409 
		3.436,18.909 	"/>
	<polygon fill-rule="evenodd" clip-rule="evenodd" fill="#999999" points="25.91,10.749 25.346,17.838 27.428,18.382 27.862,8.993 	
		"/>
	<polygon fill-rule="evenodd" clip-rule="evenodd" fill="#A3A3A3" points="3.364,22.425 3.436,18.909 1.723,18.409 1.42,23.779 	"/>
	<polygon fill-rule="evenodd" clip-rule="evenodd" fill="#8D8D8D" points="3.364,22.425 1.42,23.779 5.065,27.474 6.478,25.581 	"/>
	<polygon fill-rule="evenodd" clip-rule="evenodd" fill="#757575" points="15.893,25.933 12.789,27.886 23.809,27.474 
		22.491,25.581 	"/>
	<polygon fill-rule="evenodd" clip-rule="evenodd" fill="#8D8D8D" points="25.605,22.425 22.491,25.581 23.809,27.474 
		27.455,23.779 	"/>
	<polygon fill-rule="evenodd" clip-rule="evenodd" fill="#A3A3A3" points="25.605,22.425 27.455,23.779 27.405,21.361 
		25.528,21.058 	"/>
	<polygon fill-rule="evenodd" clip-rule="evenodd" fill="#A3A3A3" points="25.475,20.124 27.375,19.919 27.37,19.663 27.393,19.157 
		25.429,19.306 	"/>
	<polygon fill-rule="evenodd" clip-rule="evenodd" fill="#A3A3A3" points="25.405,18.881 27.428,18.382 25.346,17.838 	"/>
	<polygon fill-rule="evenodd" clip-rule="evenodd" fill="#FFFFFF" points="3.366,5.983 1.758,5.029 3.18,6.325 3.038,10.242 
		3.519,6.292 6.519,3.269 13.52,3.423 6.622,2.907 5.554,1.763 6.248,3.045 	"/>
	<polygon fill-rule="evenodd" clip-rule="evenodd" fill="#FFFFFF" points="22.485,3.235 19.004,3.433 22.317,2.891 23.504,1.54 
		22.74,3.011 25.604,5.914 26.95,5.167 25.774,6.31 25.898,10.372 27.625,9.206 25.91,10.749 25.605,14.581 25.739,10.683 
		25.469,6.326 	"/>
	<polygon fill-rule="evenodd" clip-rule="evenodd" fill="#FFFFFF" points="18.411,9.3 13.807,13.167 18.877,9.419 18.481,5.432 	"/>
	<polygon fill-rule="evenodd" clip-rule="evenodd" fill="#FFFFFF" points="3.534,11.013 1.44,11.263 3.402,11.206 12.436,13.645 
		16.68,18.732 12.573,13.431 	"/>
	<polygon fill-rule="evenodd" clip-rule="evenodd" fill="#FFFFFF" points="11.072,23.163 10.383,24.946 11.319,23.489 
		17.759,20.259 24.727,20.928 17.538,19.95 	"/>
	<polygon fill-rule="evenodd" clip-rule="evenodd" fill="#FFFFFF" points="22.897,19.498 27.393,19.157 27.379,19.453 	"/>
	<polygon fill-rule="evenodd" clip-rule="evenodd" fill="#999999" points="5.269,10.806 3.893,10.608 5.84,10.521 9.247,11.419 
		17.045,5.122 17.17,9.404 17.641,8.962 17.989,5.7 18.151,9.163 12.627,13.174 	"/>
	<polygon fill-rule="evenodd" clip-rule="evenodd" fill="#999999" points="17.438,19.282 13.95,14.235 18.01,18.734 24.112,19.85 
		27.375,19.919 23.762,20.31 	"/>
	<polygon fill-rule="evenodd" clip-rule="evenodd" fill="#999999" points="10.842,22.98 17.167,19.361 10.315,22.445 8.688,24.988 
		6.739,25.228 3.772,22.839 6.478,25.581 9.546,25.697 	"/>
	<polygon fill-rule="evenodd" clip-rule="evenodd" fill="#999999" points="22.096,24.919 15.892,25.537 10.085,25.716 
		15.893,25.933 22.491,25.581 25.605,22.425 25.528,21.058 25.079,22.24 	"/>
	<polygon fill-rule="evenodd" clip-rule="evenodd" fill="#FFFFFF" points="3.318,18.719 2.164,18.538 3.334,19.097 3.368,22.257 
		3.606,19.062 3.314,16.245 	"/>
	<ellipse fill-rule="evenodd" clip-rule="evenodd" fill="#999999" cx="7.868" cy="6.124" rx="0.83" ry="0.842"/>
	<circle fill-rule="evenodd" clip-rule="evenodd" fill="#999999" cx="13.85" cy="6.313" r="0.446"/>
	<ellipse fill-rule="evenodd" clip-rule="evenodd" fill="#999999" cx="9.01" cy="9.452" rx="0.474" ry="0.481"/>
	<circle fill-rule="evenodd" clip-rule="evenodd" fill="#999999" cx="23.207" cy="11.638" r="0.378"/>
	<ellipse fill-rule="evenodd" clip-rule="evenodd" fill="#999999" cx="21.563" cy="6.777" rx="0.661" ry="0.67"/>
	<ellipse fill-rule="evenodd" clip-rule="evenodd" fill="#999999" cx="19.58" cy="16.173" rx="1.017" ry="1.031"/>
	<circle fill-rule="evenodd" clip-rule="evenodd" fill="#999999" cx="6.292" cy="14.662" r="0.206"/>
	<ellipse fill-rule="evenodd" clip-rule="evenodd" fill="#999999" cx="12.105" cy="17.702" rx="0.593" ry="0.602"/>
	<ellipse fill-rule="evenodd" clip-rule="evenodd" fill="#999999" cx="6.02" cy="20.125" rx="0.881" ry="0.893"/>
	<ellipse fill-rule="evenodd" clip-rule="evenodd" fill="#999999" cx="20.614" cy="23.749" rx="0.594" ry="0.602"/>
	<ellipse fill-rule="evenodd" clip-rule="evenodd" fill="#999999" cx="15.506" cy="23.706" rx="0.355" ry="0.361"/>
	<path fill-rule="evenodd" clip-rule="evenodd" fill="#666666" d="M7.457,14.497l8.676,7.596l0.702,0.614v-0.933v-3.572h4.393h0.424
		v-0.424v-6.975V10.38h-0.424h-4.393V6.583V5.651l-0.702,0.614l-8.676,7.596l-0.363,0.318L7.457,14.497L7.457,14.497z
		 M15.987,20.843l-7.611-6.664l7.611-6.664v3.289v0.424h0.424h4.393v6.127h-4.393h-0.424v0.424V20.843z"/>
	<linearGradient id="SVGID_1_" gradientUnits="userSpaceOnUse" x1="14.4814" y1="23.1067" x2="14.4814" y2="6.1977">
		<stop  offset="0" style="stop-color:#000000"/>
		<stop  offset="1" style="stop-color:#464748"/>
	</linearGradient>
	<polygon fill-rule="evenodd" clip-rule="evenodd" fill="url(#SVGID_1_)" points="7.735,14.179 16.411,21.775 16.411,17.779 
		21.227,17.779 21.227,10.804 16.411,10.804 16.411,6.583 	"/>
	<path fill-rule="evenodd" clip-rule="evenodd" fill="#FFFFFF" d="M21.833,18.488l-3.991,0.06l-1.007-0.345h4.393h0.424v-0.424
		v-2.365c0.008,0.002,0.018,0.004,0.025,0.007L21.833,18.488z"/>
	<polygon fill-rule="evenodd" clip-rule="evenodd" fill="#FFFFFF" points="16.132,22.093 16.834,22.706 16.834,20.724 
		17.118,20.581 17.079,23.323 14.95,21.587 15.393,21.446 	"/>
	<polygon fill-rule="evenodd" clip-rule="evenodd" fill="#FFFFFF" points="7.093,14.179 8.219,13.194 6.639,14.218 14.724,20.861 	
		"/>
	<polygon fill-rule="evenodd" clip-rule="evenodd" fill="#999999" points="21.651,10.38 17.118,10.38 17.958,10.099 21.975,10.083 
		21.651,12.892 	"/>
</g>
</svg>
