<?xml version="1.0" encoding="utf-8"?>
<!-- Generator: Adobe Illustrator 15.0.0, SVG Export Plug-In . SVG Version: 6.00 Build 0)  -->
<!DOCTYPE svg PUBLIC "-//W3C//DTD SVG 1.1//EN" "http://www.w3.org/Graphics/SVG/1.1/DTD/svg11.dtd">
<svg version="1.1" id="Layer_1" xmlns="http://www.w3.org/2000/svg" xmlns:xlink="http://www.w3.org/1999/xlink" x="0px" y="0px"
	 width="301.964px" height="46.777px" viewBox="0 0 301.964 46.777" enable-background="new 0 0 301.964 46.777"
	 xml:space="preserve">
<g>
	<g>
		<polygon fill="none" stroke="#666666" stroke-width="1.9199" stroke-miterlimit="22.9256" points="7.138,3.081 25.368,3.081 
			31.076,4.279 34.955,3.081 52.375,2.4 56.059,6.898 55.291,2.285 74.565,1.53 87.253,3.081 95.106,3.081 96.874,10.775 
			97.127,3.081 99.27,3.081 99.27,8.942 102.802,3.081 126.02,3.081 133.492,4.067 138.991,3.081 157.035,3.081 159.309,10.33 
			160.86,3.081 162.63,3.081 161.496,8.427 167.658,3.081 169.158,3.081 190.164,0.966 207.082,3.081 226.035,2.118 226.292,8.801 
			232.565,1.785 234.428,1.693 230.304,6.048 236.75,1.574 243.167,1.248 277.71,3.081 294.873,3.081 301.003,9.213 301.003,14.4 
			300.583,17.828 288.46,20.859 300.062,22.073 299.949,23 301.003,31.6 301.003,37.408 294.873,43.541 258.464,43.541 
			250.994,45.092 241.546,43.541 231.457,43.541 224.171,36.857 227.837,43.541 225.934,43.541 220.791,34.743 221.901,43.541 
			208.701,43.541 204.056,45.806 176.478,44.334 167.063,31.617 167.966,43.88 161.614,43.541 134.264,43.541 123.267,41.99 
			119.011,42.38 116.328,35.73 114.324,42.81 106.35,43.541 54.047,42.131 32.646,43.065 30.967,35.31 25.359,43.383 21.764,43.541 
			7.138,43.541 1.006,37.408 1.57,32.492 1.006,31.15 1.006,22.798 1.57,20.965 1.375,19.624 7.109,16.385 1.006,16.403 
			1.006,15.442 9.295,15.222 1.006,13.423 1.006,9.213 		"/>
		<path fill="#999999" d="M7.138,3.081h18.229l5.708,1.198l3.879-1.198L52.375,2.4l3.685,4.498l-0.769-4.613L74.565,1.53
			l12.688,1.551h7.853l1.768,7.694l0.254-7.694h2.143v5.862l3.532-5.862h23.218l7.472,0.987l5.499-0.987h18.042l2.274,7.25
			l1.551-7.25h1.771l-1.137,5.346l6.162-5.346h1.5l21.006-2.115l16.918,2.115l18.953-0.962l0.258,6.683l6.272-7.016l1.862-0.092
			l-4.123,4.354l6.445-4.474l6.418-0.326l34.543,1.833h17.162l6.131,6.132V14.4l-0.42,3.428l-12.123,3.031l11.602,1.213L299.949,23
			l1.057,8.601v5.809l-6.133,6.133h-36.408l-7.471,1.551l-9.445-1.551h-10.092l-7.283-6.684l3.664,6.684h-1.901l-5.146-8.798
			l1.11,8.798h-13.2l-4.645,2.267l-27.578-1.474l-9.415-12.717l0.903,12.263l-6.354-0.339h-27.35l-10.997-1.551l-4.256,0.39
			l-2.684-6.647l-2.004,7.079l-7.974,0.729l-52.303-1.41l-21.401,0.937l-1.679-7.756l-5.608,8.071l-3.595,0.158H7.138l-6.132-6.133
			l0.563-4.916L1.006,31.15v-8.354l0.563-1.833l-0.194-1.341l5.733-3.238l-6.103,0.02v-0.96l8.289-0.22l-8.289-1.801v-4.21
			L7.138,3.081z"/>
	</g>
	<path fill="#B3B3B3" d="M11.352,6.746h17.694l5.543,0.98l3.764-0.98L55.471,6.18l0.588,0.718l-0.122-0.733l20.866-0.688
		l12.317,1.27h6.828l0.926,4.029l0.133-4.029h2.264v2.196l1.324-2.196h26.157l7.255,0.81l5.336-0.81h18.842l1.125,3.584l0.768-3.584
		h1.774l-0.356,1.682l1.938-1.682h5.192l20.391-1.732l16.424,1.732l20.736-0.89l0.115,2.943l2.744-3.066l1.635-0.071l-0.366,0.386
		l0.567-0.395l9.601-0.412L274,6.745h16.662l5.951,5.024v4.251l-0.423,2.901l-7.729,1.936l7.338,0.767l-0.213,1.444l1.027,7.047
		v4.761l-5.951,5.026h-35.347l-7.252,1.271l-9.168-1.271h-11.401l-3.32-3.047l1.673,3.047h-2.038l-3.018-5.161l0.65,5.161h-14.432
		l-4.508,1.855l-28.896-1.305l-6.544-8.84l0.63,8.573l-6.393-0.286H134.75l-10.673-1.271l-6.381,0.493l-1.371-3.396l-1.014,3.581
		l-7.656,0.593l-50.771-1.156l-24.977,0.921l-0.943-4.357l-3.134,4.509l-2.285,0.086H11.352l-5.953-5.026l0.547-4.027L5.399,29.75
		v-6.844l0.547-1.502l-0.547-3.179V17.35l1.71-0.967l-1.71,0.006v-1.064l3.896-0.104l-3.896-0.848v-2.604L11.352,6.746z"/>
	<polygon fill="#D6D6D6" points="5.399,11.771 11.352,6.746 7.138,3.081 1.006,9.213 	"/>
	<polygon fill="#D6D6D6" points="290.662,6.746 296.613,11.771 301.003,9.213 294.873,3.081 	"/>
	<polygon fill="#CCCCCC" points="29.046,6.746 25.368,3.081 7.138,3.081 11.352,6.746 	"/>
	<path fill="#CCCCCC" d="M34.955,3.081l3.398,3.666L55.471,6.18L52.375,2.4L34.955,3.081L34.955,3.081z M55.937,6.165l-0.646-3.879
		L74.565,1.53l2.238,3.945L55.937,6.165z"/>
	<path fill="#CCCCCC" d="M87.253,3.081l1.866,3.666h6.828l-0.842-3.666H87.253L87.253,3.081z M97.006,6.746h2.264V3.081h-2.143
		L97.006,6.746L97.006,6.746z M100.594,6.746h26.157L126.02,3.08h-23.218L100.594,6.746z"/>
	<path fill="#CCCCCC" d="M138.991,3.081l0.352,3.666h18.842l-1.15-3.666H138.991L138.991,3.081z M160.076,6.746h1.775l0.779-3.666
		h-1.771L160.076,6.746L160.076,6.746z M163.433,6.746h5.193l0.531-3.666h-1.5L163.433,6.746z"/>
	<path fill="#CCCCCC" d="M207.082,3.081l-1.642,3.666l20.735-0.89l-0.143-3.738L207.082,3.081L207.082,3.081z M229.037,5.733
		l1.635-0.071l3.759-3.969l-1.863,0.092L229.037,5.733L229.037,5.733z M230.873,5.653l5.877-4.08l6.42-0.326l-2.695,3.994
		L230.873,5.653z"/>
	<polygon fill="#CCCCCC" points="276.919,3.039 274,6.746 290.662,6.746 294.873,3.081 277.71,3.081 	"/>
	<polygon fill="#D6D6D6" points="38.353,6.746 34.955,3.081 31.076,4.279 34.589,7.726 	"/>
	<polygon fill="#D6D6D6" points="133.492,4.067 134.006,7.554 139.342,6.746 138.991,3.081 	"/>
	<polygon fill="#D6D6D6" points="169.158,3.081 168.626,6.746 189.016,5.012 190.164,0.966 	"/>
	<polygon fill="#C0C0C0" points="34.589,7.726 31.076,4.279 25.368,3.081 29.046,6.746 	"/>
	<polygon fill="#C0C0C0" points="74.565,1.53 76.803,5.475 89.12,6.746 87.253,3.081 	"/>
	<polygon fill="#C0C0C0" points="126.02,3.081 126.751,6.746 134.006,7.554 133.492,4.067 	"/>
	<polygon fill="#C0C0C0" points="190.164,0.966 189.016,5.012 205.44,6.746 207.082,3.081 	"/>
	<polygon fill="#C0C0C0" points="243.167,1.248 240.472,5.242 274,6.746 276.919,3.039 	"/>
	<polygon fill="#A3A3A3" points="1.006,22.798 5.399,22.906 5.946,21.403 1.57,20.965 	"/>
	<polygon fill="#8D8D8D" points="1.57,20.965 5.946,21.403 5.399,18.225 4.336,17.949 1.375,19.624 	"/>
	<polygon fill="#8D8D8D" points="5.399,29.75 1.006,31.15 1.57,32.492 5.946,30.849 	"/>
	<polygon fill="#8D8D8D" points="5.399,34.878 1.006,37.408 7.138,43.541 11.352,39.904 	"/>
	<path fill="#8D8D8D" d="M295.585,23.07l4.36-0.07l0.114-0.928l-4.266-0.447L295.585,23.07L295.585,23.07z M300.583,17.828
		l0.42-3.428l-4.393,1.622l-0.423,2.901L300.583,17.828z"/>
	<polygon fill="#A3A3A3" points="299.949,23 295.585,23.07 296.613,30.117 301.003,31.6 	"/>
	<polygon fill="#8D8D8D" points="301.003,37.408 296.613,34.878 290.662,39.904 294.873,43.541 	"/>
	<path fill="#8D8D8D" d="M123.267,41.99l0.813-3.356l-6.381,0.493l1.313,3.253L123.267,41.99L123.267,41.99z M115.314,39.312
		l-7.656,0.593l-1.308,3.637l7.974-0.729L115.314,39.312z"/>
	<polygon fill="#8D8D8D" points="202.501,41.762 204.056,45.806 208.701,43.541 207.009,39.904 	"/>
	<polygon fill="#8D8D8D" points="248.063,41.176 250.994,45.092 258.464,43.541 255.315,39.904 	"/>
	<path fill="#8D8D8D" d="M54.047,42.131l2.84-3.383L31.91,39.669l0.735,3.396L54.047,42.131L54.047,42.131z M27.833,39.818
		l-2.285,0.086l-4.458,3.637h0.674l3.595-0.158L27.833,39.818z"/>
	<polygon fill="#757575" points="124.08,38.634 123.267,41.99 134.264,43.541 134.752,39.904 	"/>
	<path fill="#757575" d="M161.302,39.904l0.312,3.637l6.353,0.339l-0.271-3.688L161.302,39.904L161.302,39.904z M176.478,44.334
		l27.578,1.474l-1.555-4.044l-28.896-1.307L176.478,44.334z"/>
	<polygon fill="#757575" points="238.895,39.904 241.546,43.541 250.994,45.092 248.063,41.176 	"/>
	<polygon fill="#808080" points="21.09,43.541 25.548,39.904 11.352,39.904 7.138,43.541 	"/>
	<polygon fill="#808080" points="56.887,38.748 54.047,42.131 106.35,43.541 107.658,39.904 	"/>
	<polygon fill="#808080" points="134.752,39.904 134.264,43.541 161.614,43.541 161.302,39.904 	"/>
	<path fill="#808080" d="M207.009,39.904l1.689,3.637H221.9l-0.46-3.637H207.009L207.009,39.904z M225.934,43.541h1.903
		l-1.993-3.637h-2.038L225.934,43.541L225.934,43.541z M231.457,43.541l-3.963-3.637h11.401l2.651,3.637H231.457z"/>
	<polygon fill="#808080" points="255.315,39.904 258.464,43.541 294.873,43.541 290.662,39.904 	"/>
	<polygon fill="#666666" points="167.063,31.617 167.966,43.88 170.444,42.008 176.478,44.334 173.607,40.457 	"/>
	<path fill="#666666" d="M6.671,14.652l23.608,3.599l3.044,8.854l21.265-4.271l3.354-9.391l-3.548-8.578l1.164-0.969l4.136,9.525
		l-4.604,9.895l11.527,4.98l11.808-12.692l0.138-0.146l0.197-0.02l14.327-1.531l2.72-3.335l0.513-2.211l0.555,2.414l-2.139,2.98
		l18.842-1.683l0.116-0.011l13.009,4.666l31.132,2.077l0.469-11.683l1.662,0.125l-1.092,11.983l8.26,11.554l13.795-13.783
		l-6.922-6.139l-12.512-2.438l1.354-1.174l11.477,2.566l0.153,0.022l0.124,0.108l7.309,6.48l45.223-1.938l-0.84-5.694l-0.051-1.3
		l1.479-0.299l1.204,7.063l12.34,10.336l17.297-4.621l0.063-0.018h0.068l35.063-0.432l0.258,1.905l-35.268-0.396l-26.677,6.423
		l-6.489,10.683l-1.408-1.291l7.16-10.198l0.114-0.149l0.188-0.045l9.146-1.744l-13.066-9.692l-45.273,3.753l-7.188,5.418
		l13.675,8.464l31.862,2.081l0.354,2.8l-32.404-3.811l-0.142-0.008l-0.119-0.071l-13.763-9.094l-6.692,8.354l-0.96-1.298
		l0.176,2.412l-9.216-14.128l-31.267-2.083l-16.47,12.271l6.041,5.642l-0.723,2.551l-6.4-7.677l-42.391-1.544l-0.108-0.006
		l-0.091-0.04l-11.689-5.146L33.17,27.859l-1.729,9.627l-2.038,0.074l3.282-10.287l-3.871-7.445L4.447,15.352L6.671,14.652
		L6.671,14.652z M93.441,14.956l-0.048,0.004L79.07,16.491L67.383,28.538l41.854,0.989l17.355-12.186l-13.464-3.406L93.441,14.956z"
		/>
	<polygon fill="#999999" points="296.613,16.022 296.613,11.771 293.875,16.366 258.066,15.802 241.854,20.031 228.925,14.266 
		241.265,24.602 258.694,19.965 293.757,19.533 296.19,18.925 	"/>
	<polygon fill="#999999" points="33.324,27.104 54.588,22.833 57.942,13.442 52.116,21.024 34.776,24.126 31.814,16.372 
		6.58,13.625 5.399,11.771 5.399,14.376 6.671,14.652 30.28,18.251 	"/>
	<polygon fill="#999999" points="29.401,37.563 32.683,27.275 28.141,35.399 24.757,36.81 11.928,36.668 7.628,33.144 5.946,30.849 
		5.399,34.878 11.352,39.904 25.548,39.904 27.833,39.818 	"/>
	<polygon fill="#999999" points="75.869,13.059 65.718,25.465 55.089,23.315 66.617,28.298 78.424,15.604 78.562,15.458 
		78.759,15.438 93.086,13.907 95.806,10.572 92.293,12.918 	"/>
	<polygon fill="#999999" points="106.599,26.238 67.383,28.538 109.238,29.527 126.593,17.344 	"/>
	<polygon fill="#999999" points="113.693,12.063 126.702,16.729 157.833,18.806 158.177,10.231 156.437,16.51 127.535,14.396 
		113.86,9.603 94.735,13.757 113.577,12.075 	"/>
	<polygon fill="#999999" points="124.281,35.396 119.628,35.959 117.794,32.999 110.287,30.091 116.328,35.73 117.699,39.127 
		124.08,38.634 134.752,39.904 161.302,39.904 167.693,40.19 167.239,34.029 166.009,38.074 135.559,36.382 	"/>
	<polygon fill="#999999" points="168.023,32.915 173.607,40.457 202.501,41.762 207.009,39.904 221.441,39.904 206.184,37.085 
		201.25,39.059 175.875,37.085 	"/>
	<polygon fill="#999999" points="175.251,24.198 188.927,32.662 220.791,34.743 223.806,39.904 225.843,39.904 224.171,36.857 
		231.333,26.659 231.449,26.51 231.634,26.465 240.781,24.721 229.449,23.553 222.399,29.754 190.675,28.768 	"/>
	<polygon fill="#999999" points="167.132,30.787 180.927,17.004 167.837,24.961 158.875,19.233 	"/>
	<polygon fill="#999999" points="238.893,36.243 225.582,38.148 227.494,39.904 238.895,39.904 248.063,41.176 255.315,39.904 
		290.662,39.904 296.613,34.878 296.613,30.117 294.298,33.703 286.544,35.959 255.955,35.396 247.496,37.792 	"/>
	<polygon fill="#999999" points="181.91,16.432 227.132,14.495 226.292,8.801 224.089,12.132 183.348,12.839 176.582,8.749 
		162.847,7.252 174.324,9.819 174.477,9.843 174.601,9.951 	"/>
	<polygon fill="#FFFFFF" points="10.542,6.746 6.043,11.224 11.776,7.31 28.341,6.746 11.564,6.288 7.752,3.614 	"/>
	<polygon fill="#FFFFFF" points="37.604,6.603 34.589,7.726 38.344,7.272 53.849,6.233 38.626,6.392 35.345,3.503 	"/>
	<polygon fill="#FFFFFF" points="75.867,5.111 59.876,6.032 76.951,5.834 87.954,6.625 77.357,5.147 74.964,2.232 	"/>
	<polygon fill="#FFFFFF" points="99.27,8.942 99.27,6.746 98.923,9.892 100.792,7.248 126.734,6.94 133.284,7.473 127.191,6.543 
		126.101,3.49 126.345,6.367 100.594,6.746 	"/>
	<polygon fill="#FFFFFF" points="138.965,6.521 135.627,7.308 139.53,7.156 155.99,6.746 139.67,6.416 139.057,3.777 	"/>
	<polygon fill="#FFFFFF" points="189.016,5.012 170.375,6.596 189.218,5.742 205.787,7.433 220.167,6.112 205.44,6.746 
		189.923,5.107 190,1.545 	"/>
	<polygon fill="#FFFFFF" points="291.128,7.143 295.417,10.764 290.087,7.222 274,6.746 261.669,6.191 273.593,6.023 276.373,3.735 
		275.074,5.953 290.087,6.306 293.692,4.107 	"/>
	<polygon fill="#FFFFFF" points="240.235,4.86 231.957,5.607 240.851,5.583 254.798,5.885 241.591,4.949 242.896,1.653 	"/>
	<polygon fill="#FFFFFF" points="32.236,26.414 28.812,19.831 6.301,15.691 28.28,20.641 	"/>
	<polygon fill="#FFFFFF" points="59.694,13.423 55.773,21.846 60.641,13.385 58.037,9.607 	"/>
	<polygon fill="#FFFFFF" points="66.615,29.016 54.925,23.868 33.167,27.861 31.725,35.899 33.634,28.393 54.817,24.551 
		66.694,29.873 108.708,31.142 114.905,37.441 109.205,30.604 66.814,29.061 66.706,29.056 	"/>
	<polygon fill="#FFFFFF" points="79.598,17.191 93.79,15.703 113.223,14.725 124.209,16.74 113.129,13.936 93.441,14.956 
		93.393,14.96 79.07,16.491 69.162,26.705 	"/>
	<polygon fill="#FFFFFF" points="126.756,17.817 111.32,29.322 126.984,18.474 157.488,20.643 165.625,31.552 158.023,19.901 	"/>
	<polygon fill="#FFFFFF" points="174.712,25.37 188.214,34.589 208.228,36.023 188.738,33.732 188.597,33.726 188.478,33.653 
		174.714,24.56 168.526,32.287 	"/>
	<polygon fill="#FFFFFF" points="182.712,19.293 227.619,16.05 237.826,22.527 227.714,15.026 182.441,18.78 176.3,23.408 	"/>
	<polygon fill="#FFFFFF" points="180.927,17.004 174.005,10.865 161.496,8.427 173.492,11.409 	"/>
	<polygon fill="#FFFFFF" points="258.748,21.044 232.071,27.468 226.617,36.441 232.695,28.247 259.057,21.831 289.568,21.39 	"/>
	<polygon fill="#FFFFFF" points="6.332,21.357 5.592,19.348 5.946,21.403 5.063,22.558 1.365,22.807 4.957,23.438 4.957,29.43 
		2.25,30.754 5.133,30.241 5.946,30.849 5.399,29.75 5.399,23.104 	"/>
	<polygon fill="#FFFFFF" points="297.108,29.842 295.69,23.784 296.123,30.368 295.945,34.6 291.894,38.86 296.615,35.517 
		300.78,37.276 297.039,34.6 297.039,30.897 299.72,31.166 	"/>
	<circle fill="#999999" cx="28.929" cy="25.329" r="1.163"/>
	<circle fill="#999999" cx="16.345" cy="25.857" r="1.833"/>
	<circle fill="#999999" cx="42.003" cy="15.989" r="1.269"/>
	<circle fill="#999999" cx="32.134" cy="13.169" r="0.705"/>
	<circle fill="#999999" cx="50.039" cy="32.482" r="0.845"/>
	<circle fill="#999999" cx="52.717" cy="11.478" r="0.987"/>
	<circle fill="#999999" cx="67.661" cy="13.451" r="1.551"/>
	<circle fill="#999999" cx="64.136" cy="21.769" r="0.846"/>
	<circle fill="#999999" cx="90.217" cy="21.346" r="0.987"/>
	<circle fill="#999999" cx="106.572" cy="20.218" r="0.987"/>
	<circle fill="#999999" cx="133.074" cy="28.113" r="2.678"/>
	<circle fill="#999999" cx="149.428" cy="25.857" r="0.987"/>
	<circle fill="#999999" cx="72.313" cy="35.867" r="1.127"/>
	<circle fill="#999999" cx="92.333" cy="35.866" r="1.974"/>
	<circle fill="#999999" cx="105.021" cy="35.867" r="0.846"/>
	<circle fill="#999999" cx="35.941" cy="35.021" r="0.564"/>
	<circle fill="#999999" cx="19.012" cy="32.613" r="0.976"/>
	<path fill="#999999" d="M154.357,33.327c0.313,0,0.564,0.253,0.564,0.563c0,0.313-0.252,0.564-0.564,0.564
		c-0.309,0-0.563-0.254-0.563-0.564C153.792,33.58,154.048,33.327,154.357,33.327z"/>
	<circle fill="#999999" cx="145.618" cy="11.616" r="1.41"/>
	<circle fill="#999999" cx="137.371" cy="10.982" r="0.494"/>
	<circle fill="#999999" cx="124.824" cy="10.559" r="0.775"/>
	<circle fill="#999999" cx="104.311" cy="9.079" r="0.846"/>
	<path fill="#999999" d="M166.833,14.295c0.586,0,1.058,0.476,1.058,1.059c0,0.584-0.472,1.058-1.058,1.058
		c-0.582,0-1.057-0.474-1.057-1.058C165.779,14.769,166.251,14.295,166.833,14.295z"/>
	<circle fill="#999999" cx="161.477" cy="18.031" r="1.057"/>
	<circle fill="#999999" cx="173.25" cy="16.41" r="1.41"/>
	<circle fill="#999999" cx="192.423" cy="23.035" r="1.551"/>
	<circle fill="#999999" cx="208.847" cy="22.119" r="0.917"/>
	<circle fill="#999999" cx="221.324" cy="20.639" r="0.846"/>
	<circle fill="#999999" cx="216.178" cy="28.745" r="1.762"/>
	<circle fill="#999999" cx="201.166" cy="27.124" r="0.282"/>
	<circle fill="#999999" cx="175.503" cy="33.468" r="0.846"/>
	<circle fill="#999999" cx="181.355" cy="33.539" r="0.634"/>
	<circle fill="#999999" cx="140.401" cy="33.891" r="0.564"/>
	<circle fill="#999999" cx="120.241" cy="28.675" r="0.846"/>
	<circle fill="#999999" cx="291.529" cy="27.263" r="1.128"/>
	<circle fill="#999999" cx="285.537" cy="31.421" r="0.917"/>
	<circle fill="#999999" cx="264.108" cy="30.012" r="1.339"/>
	<circle fill="#999999" cx="245.71" cy="31.633" r="1.551"/>
	<circle fill="#999999" cx="234.714" cy="33.465" r="0.987"/>
	<circle fill="#999999" cx="275.598" cy="27.263" r="2.114"/>
	<circle fill="#999999" cx="273.765" cy="13.729" r="3.242"/>
	<circle fill="#999999" cx="285.889" cy="10.486" r="0.846"/>
	<circle fill="#999999" cx="291.529" cy="12.883" r="0.987"/>
	<path fill="#999999" d="M254.522,10.627c0.581,0,1.058,0.476,1.058,1.059c0,0.584-0.477,1.058-1.058,1.058
		c-0.586,0-1.058-0.474-1.058-1.058S253.936,10.627,254.522,10.627z"/>
	<circle fill="#999999" cx="237.816" cy="12.037" r="2.538"/>
	<circle fill="#999999" cx="248.037" cy="15.914" r="1.48"/>
	<circle fill="#999999" cx="265.871" cy="9.5" r="0.564"/>
	<circle fill="#999999" cx="192.173" cy="10.237" r="0.811"/>
	<circle fill="#999999" cx="184.492" cy="8.898" r="0.74"/>
	<circle fill="#999999" cx="216.106" cy="10.696" r="1.48"/>
	<circle fill="#999999" cx="206.519" cy="10.625" r="0.564"/>
</g>
<g>
	<polygon fill="#353535" points="19.649,17.887 19.649,11.881 8.648,11.881 8.648,17.887 2.5,17.887 2.5,28.89 8.648,28.89 
		8.648,34.895 19.649,34.895 19.649,28.89 25.796,28.89 25.796,17.887 	"/>
	<g>
		<path fill="#E22727" d="M10.148,13.381h8.001v6.007h6.147v8.003h-6.147v6.005h-8.001V27.39H4v-8.003h6.148V13.381z"/>
	</g>
	<g opacity="0.1">
		<path fill="#FFFFFF" d="M9.254,25.832c4.304-1.839,8.811-3.271,13.486-4.368c0.517-0.122,1.036-0.236,1.556-0.352v-1.725h-6.147
			v-6.007h-8.001v6.007H4v8.003h1.863C6.979,26.841,8.109,26.322,9.254,25.832z"/>
	</g>
</g>
</svg>
