<?xml version="1.0" encoding="utf-8"?>
<!-- Generator: Adobe Illustrator 15.0.0, SVG Export Plug-In . SVG Version: 6.00 Build 0)  -->
<!DOCTYPE svg PUBLIC "-//W3C//DTD SVG 1.1//EN" "http://www.w3.org/Graphics/SVG/1.1/DTD/svg11.dtd">
<svg version="1.1" id="Layer_1" xmlns="http://www.w3.org/2000/svg" xmlns:xlink="http://www.w3.org/1999/xlink" x="0px" y="0px"
	 width="138.519px" height="147.388px" viewBox="0 0 138.519 147.388" enable-background="new 0 0 138.519 147.388"
	 xml:space="preserve">
<g>
	<g>
		
			<polygon fill-rule="evenodd" clip-rule="evenodd" fill="none" stroke="#666666" stroke-width="1.9199" stroke-miterlimit="22.9256" points="
			7.772,2.27 13.847,2.27 19.563,2.874 33.457,2.521 35.269,3.074 37.3,3.058 43.05,7.653 40.691,3.032 41.525,3.025 44.352,8.024 
			43.453,3.01 44.656,3.001 48.188,1.584 55.344,2.534 64.824,2.283 65.426,6.584 66.651,2.257 70.977,2.195 73.025,1.043 
			90.222,2.216 94.31,0.971 99.218,1.334 95.353,8.629 102.725,2.971 103.403,1.644 112.245,2.298 115.687,1.746 120.146,2.194 
			130.427,2.27 136.494,8.336 137.517,14.354 136.198,16.772 136.209,19.435 128.951,19.502 136.22,22.027 136.22,22.027 
			136.226,23.742 137.163,26.251 137.036,40.936 136.185,43.352 136.226,51.16 137.163,53.297 135.979,103.102 128.951,108.025 
			135.691,106.574 135.678,106.73 135.698,107.512 125.978,109.744 135.823,112.403 135.977,118.4 136.705,127.96 136.498,138.771 
			130.427,144.837 120.284,144.837 112.849,146.417 99.452,145.078 99.116,138.186 97.76,144.908 97.049,144.837 87.755,145.86 
			78.376,145.513 72.535,138.279 72.266,145.288 71.394,145.255 71.745,139.767 68.792,145.16 60.059,144.837 57.433,146.324 
			44.049,144.837 35.87,144.837 33.989,144.66 31.757,140.509 31.59,144.431 30.725,144.349 30.967,139.394 28.504,144.139 
			25.089,143.815 16.166,144.837 7.772,144.837 1.706,138.77 2.225,127.505 1.133,125.743 2.266,122.3 2.112,119.66 13.868,113.229 
			1.98,117.388 1.939,116.692 9.778,113.972 1.828,114.764 1.364,106.781 2.184,104.827 2.301,96.46 0.963,42.56 1.706,39.585 
			1.706,33.311 1.102,29.036 1.706,22.158 1.978,21.305 10.013,21.591 2.604,18.964 1.706,15.746 1.706,8.336 		"/>
		<path fill-rule="evenodd" clip-rule="evenodd" fill="#959595" d="M7.772,2.27h6.074l5.716,0.604l13.895-0.353l1.812,0.553
			L37.3,3.058l5.75,4.595l-2.358-4.621l0.834-0.006l2.826,4.999L43.453,3.01l1.203-0.009l3.531-1.417l7.156,0.95l9.48-0.25
			l0.602,4.301l1.226-4.328l4.325-0.062l2.049-1.152l17.196,1.173l4.088-1.245l4.908,0.363l-3.865,7.295l7.372-5.658l0.679-1.327
			l8.842,0.654l3.441-0.553l4.46,0.448l10.28,0.076l6.067,6.067l1.022,6.018l-1.318,2.417l0.011,2.663l-7.258,0.067l7.269,2.525l0,0
			l0.006,1.714l0.938,2.51l-0.127,14.685l-0.852,2.416l0.041,7.808l0.938,2.137l-1.185,49.805l-7.027,4.923l6.74-1.451l-0.014,0.156
			l0.021,0.782l-9.721,2.231l9.846,2.659l0.153,5.997l0.729,9.561l-0.207,10.811l-6.071,6.066h-10.143l-7.436,1.58l-13.396-1.34
			l-0.336-6.892l-1.356,6.722l-0.711-0.07l-9.294,1.022l-9.379-0.347l-5.841-7.234l-0.27,7.009l-0.872-0.032l0.352-5.488
			l-2.953,5.393l-8.733-0.322l-2.626,1.486l-13.384-1.486H35.87l-1.881-0.178l-2.232-4.15l-0.167,3.922l-0.865-0.082l0.242-4.955
			l-2.463,4.745l-3.415-0.324l-8.923,1.022H7.772l-6.066-6.067l0.519-11.265l-1.092-1.763l1.133-3.442l-0.153-2.641l11.756-6.431
			L1.98,117.388l-0.041-0.696l7.839-2.72l-7.95,0.792l-0.464-7.983l0.819-1.954l0.117-8.366L0.963,42.56l0.743-2.974v-6.274
			l-0.604-4.275l0.604-6.877l0.271-0.854l8.035,0.287l-7.409-2.627l-0.897-3.218V8.336L7.772,2.27z"/>
	</g>
	<polygon fill-rule="evenodd" clip-rule="evenodd" fill="#B3B3B3" points="10.264,4.943 16.106,4.943 21.604,5.518 34.971,5.182 
		36.713,5.708 40.579,5.678 43.05,7.653 42.036,5.667 43.015,5.66 44.352,8.024 43.927,5.653 45.743,5.639 49.141,4.292 
		56.024,5.194 65.197,4.952 65.426,6.584 65.892,4.942 70.759,4.873 72.729,3.778 89.271,4.893 93.204,3.709 97.782,4.044 
		95.353,8.629 101.018,4.281 110.457,4.971 113.768,4.446 118.058,4.872 127.947,4.943 133.783,10.708 134.767,16.427 
		133.499,18.723 133.502,19.46 128.951,19.502 133.508,21.085 133.525,25.346 134.427,27.731 134.305,41.684 133.485,43.979 
		133.524,51.398 134.427,53.429 133.067,105.142 128.951,108.025 133.028,107.147 133.054,108.119 125.978,109.744 133.146,111.68 
		133.285,117.056 133.986,126.142 133.787,136.413 127.947,142.177 118.19,142.177 111.038,143.679 99.327,142.522 99.116,138.186 
		98.263,142.417 95.839,142.177 86.898,143.149 76.15,142.757 72.535,138.279 72.368,142.619 71.564,142.589 71.745,139.767 
		70.226,142.541 60.257,142.177 58.033,143.59 45.159,142.177 37.292,142.177 32.408,141.72 31.757,140.509 31.708,141.654 
		30.86,141.575 30.967,139.394 29.883,141.483 26.921,141.207 18.338,142.177 10.264,142.177 4.428,136.412 4.926,125.708 
		3.876,124.034 4.966,120.763 4.814,118.182 13.868,113.229 4.712,116.433 4.671,115.744 9.778,113.972 4.598,114.489 4.1,106.017 
		4.887,104.16 5,96.21 3.712,43.227 4.428,40.4 4.428,34.439 3.847,30.376 4.428,23.842 5.207,21.42 10.013,21.591 5.012,19.818 
		4.428,17.749 4.428,10.708 	"/>
	<polygon fill-rule="evenodd" clip-rule="evenodd" fill="#CCCCCC" points="16.106,4.943 14.125,2.299 13.847,2.27 7.772,2.27 
		10.264,4.943 	"/>
	<polygon fill-rule="evenodd" clip-rule="evenodd" fill="#CCCCCC" points="19.563,2.874 21.604,5.518 34.971,5.182 33.457,2.521 	
		"/>
	<path fill-rule="evenodd" clip-rule="evenodd" fill="#CCCCCC" d="M35.269,3.074l1.444,2.635l3.866-0.03L37.3,3.058L35.269,3.074
		L35.269,3.074z M42.036,5.667l0.979-0.008l-1.489-2.634l-0.834,0.006L42.036,5.667L42.036,5.667z M43.927,5.653l1.816-0.014
		l-1.087-2.638L43.453,3.01L43.927,5.653z"/>
	<path fill-rule="evenodd" clip-rule="evenodd" fill="#CCCCCC" d="M55.344,2.534l0.681,2.661l9.173-0.243l-0.373-2.668L55.344,2.534
		L55.344,2.534z M65.892,4.942l4.867-0.069l0.218-2.678l-4.325,0.062L65.892,4.942z"/>
	<polygon fill-rule="evenodd" clip-rule="evenodd" fill="#CCCCCC" points="73.025,1.043 72.729,3.778 89.271,4.893 90.222,2.216 	
		"/>
	<path fill-rule="evenodd" clip-rule="evenodd" fill="#CCCCCC" d="M94.31,0.971l-1.105,2.739l4.578,0.335l1.436-2.71L94.31,0.971
		L94.31,0.971z M101.018,4.281l9.439,0.69l1.788-2.673l-8.842-0.654l-0.679,1.327L101.018,4.281z"/>
	<polygon fill-rule="evenodd" clip-rule="evenodd" fill="#CCCCCC" points="120.146,2.194 118.058,4.872 127.947,4.943 
		130.524,2.367 130.427,2.27 	"/>
	<polygon fill-rule="evenodd" clip-rule="evenodd" fill="#C9C9C9" points="21.604,5.518 19.563,2.874 14.125,2.299 16.106,4.943 	
		"/>
	<polygon fill-rule="evenodd" clip-rule="evenodd" fill="#C9C9C9" points="33.457,2.521 34.971,5.182 36.713,5.708 35.269,3.074 	
		"/>
	<polygon fill-rule="evenodd" clip-rule="evenodd" fill="#C9C9C9" points="48.188,1.584 49.141,4.292 56.024,5.194 55.344,2.534 	
		"/>
	<polygon fill-rule="evenodd" clip-rule="evenodd" fill="#C9C9C9" points="115.687,1.746 113.768,4.446 118.058,4.872 
		120.146,2.194 	"/>
	<polygon fill-rule="evenodd" clip-rule="evenodd" fill="#D6D6D6" points="49.141,4.292 48.188,1.584 44.656,3.001 45.743,5.639 	
		"/>
	<polygon fill-rule="evenodd" clip-rule="evenodd" fill="#D6D6D6" points="70.977,2.195 70.759,4.873 72.729,3.778 73.025,1.043 	
		"/>
	<polygon fill-rule="evenodd" clip-rule="evenodd" fill="#D6D6D6" points="90.222,2.216 89.271,4.893 93.204,3.709 94.31,0.971 	"/>
	<polygon fill-rule="evenodd" clip-rule="evenodd" fill="#D6D6D6" points="112.245,2.298 110.457,4.971 113.768,4.446 
		115.687,1.746 	"/>
	<polygon fill-rule="evenodd" clip-rule="evenodd" fill="#D6D6D6" points="4.428,10.708 10.264,4.943 7.772,2.27 1.706,8.336 	"/>
	<polygon fill-rule="evenodd" clip-rule="evenodd" fill="#A4A4A4" points="1.978,21.305 1.706,22.158 4.428,23.842 5.207,21.42 	"/>
	<polygon fill-rule="evenodd" clip-rule="evenodd" fill="#A4A4A4" points="4.428,40.4 1.706,39.585 0.963,42.56 3.712,43.227 	"/>
	<polygon fill-rule="evenodd" clip-rule="evenodd" fill="#A4A4A4" points="4.887,104.16 2.184,104.827 1.364,106.781 4.1,106.017 	
		"/>
	<polygon fill-rule="evenodd" clip-rule="evenodd" fill="#A4A4A4" points="4.966,120.763 2.266,122.3 1.133,125.743 3.876,124.034 	
		"/>
	<polygon fill-rule="evenodd" clip-rule="evenodd" fill="#8D8D8D" points="5.012,19.818 4.428,17.749 1.706,15.746 2.604,18.964 	
		"/>
	<polygon fill-rule="evenodd" clip-rule="evenodd" fill="#8D8D8D" points="3.847,30.376 1.102,29.036 1.706,33.311 4.428,34.439 	
		"/>
	<polygon fill-rule="evenodd" clip-rule="evenodd" fill="#8D8D8D" points="5,96.21 2.301,96.46 2.184,104.827 4.887,104.16 	"/>
	<polygon fill-rule="evenodd" clip-rule="evenodd" fill="#8D8D8D" points="3.876,124.034 1.133,125.743 2.225,127.505 
		4.926,125.708 	"/>
	<polygon fill-rule="evenodd" clip-rule="evenodd" fill="#8D8D8D" points="10.264,142.177 4.428,136.412 1.706,138.77 
		7.772,144.837 	"/>
	<polygon fill-rule="evenodd" clip-rule="evenodd" fill="#D6D6D6" points="127.947,4.943 133.783,10.708 136.494,8.336 
		130.524,2.367 	"/>
	<polygon fill-rule="evenodd" clip-rule="evenodd" fill="#8D8D8D" points="137.517,14.354 134.767,16.427 133.499,18.723 
		136.198,16.772 	"/>
	<polygon fill-rule="evenodd" clip-rule="evenodd" fill="#8D8D8D" points="137.036,40.936 134.305,41.684 133.485,43.979 
		136.185,43.352 	"/>
	<polygon fill-rule="evenodd" clip-rule="evenodd" fill="#A9A9A9" points="135.977,118.4 133.285,117.056 133.986,126.142 
		133.975,126.734 136.705,127.96 	"/>
	<polygon fill-rule="evenodd" clip-rule="evenodd" fill="#A4A4A4" points="134.427,27.731 137.163,26.251 136.226,23.742 
		133.525,25.346 	"/>
	<polygon fill-rule="evenodd" clip-rule="evenodd" fill="#A9A9A9" points="136.226,51.16 133.524,51.398 134.427,53.429 
		137.163,53.297 	"/>
	<path fill-rule="evenodd" clip-rule="evenodd" fill="#8D8D8D" d="M135.678,106.73l-0.308-0.088l-2.342,0.505l0.025,0.972
		l2.645-0.606L135.678,106.73L135.678,106.73z M133.146,111.68l0.14,5.376l2.691,1.344l-0.153-5.997L133.146,111.68z"/>
	<polygon fill-rule="evenodd" clip-rule="evenodd" fill="#8D8D8D" points="133.787,136.413 127.947,142.177 130.427,144.837 
		136.498,138.771 	"/>
	<polygon fill-rule="evenodd" clip-rule="evenodd" fill="#808080" points="16.166,144.837 18.338,142.177 10.264,142.177 
		7.772,144.837 	"/>
	<path fill-rule="evenodd" clip-rule="evenodd" fill="#808080" d="M60.257,142.177l-0.198,2.66l8.733,0.322l1.434-2.619
		L60.257,142.177L60.257,142.177z M71.394,145.255l0.872,0.032l0.103-2.669l-0.804-0.029L71.394,145.255L71.394,145.255z
		 M78.376,145.513l9.379,0.347l-0.856-2.711l-10.748-0.392L78.376,145.513z"/>
	<path fill-rule="evenodd" clip-rule="evenodd" fill="#808080" d="M95.839,142.177l1.21,2.66l0.711,0.07l0.503-2.491L95.839,142.177
		L95.839,142.177z M99.452,145.078l13.396,1.34l-1.811-2.738l-11.711-1.157L99.452,145.078z"/>
	<polygon fill-rule="evenodd" clip-rule="evenodd" fill="#808080" points="118.19,142.177 120.284,144.837 130.427,144.837 
		127.947,142.177 	"/>
	<polygon fill-rule="evenodd" clip-rule="evenodd" fill="#8D8D8D" points="25.089,143.815 26.921,141.207 18.338,142.177 
		16.166,144.837 	"/>
	<polygon fill-rule="evenodd" clip-rule="evenodd" fill="#8D8D8D" points="37.292,142.177 35.87,144.837 44.049,144.837 
		45.159,142.177 	"/>
	<polygon fill-rule="evenodd" clip-rule="evenodd" fill="#8D8D8D" points="58.033,143.59 57.433,146.324 60.059,144.837 
		60.257,142.177 	"/>
	<polygon fill-rule="evenodd" clip-rule="evenodd" fill="#8D8D8D" points="86.898,143.149 87.755,145.86 97.049,144.837 
		95.839,142.177 	"/>
	<polygon fill-rule="evenodd" clip-rule="evenodd" fill="#8D8D8D" points="111.038,143.679 112.849,146.417 120.284,144.837 
		118.19,142.177 	"/>
	<path fill-rule="evenodd" clip-rule="evenodd" fill="#808080" d="M35.87,144.837l1.422-2.66l-4.884-0.457l1.581,2.939
		L35.87,144.837L35.87,144.837z M31.708,141.654l-0.848-0.079l-0.136,2.774l0.865,0.082L31.708,141.654L31.708,141.654z
		 M29.883,141.483l-2.962-0.276l-1.832,2.608l3.415,0.324L29.883,141.483z"/>
	<polygon fill-rule="evenodd" clip-rule="evenodd" fill="#808080" points="45.159,142.177 44.049,144.837 57.433,146.324 
		58.033,143.59 	"/>
	<polygon fill-rule="evenodd" clip-rule="evenodd" fill="#666666" points="2.604,18.964 3.776,20.285 1.978,21.305 5.207,21.42 
		10.013,21.591 5.012,19.818 	"/>
	<polygon fill-rule="evenodd" clip-rule="evenodd" fill="#666666" points="37.3,3.058 40.579,5.678 43.05,7.653 42.036,5.667 
		40.691,3.032 39.83,3.624 39.748,3.636 	"/>
	<polygon fill-rule="evenodd" clip-rule="evenodd" fill="#666666" points="97.782,4.044 95.353,8.629 101.018,4.281 102.725,2.971 
		103.403,1.644 99.859,3.216 99.218,1.334 	"/>
	<polygon fill-rule="evenodd" clip-rule="evenodd" fill="#666666" points="133.054,108.119 125.978,109.744 133.146,111.68 
		135.823,112.403 134.246,109.946 135.698,107.512 	"/>
	<polygon fill-rule="evenodd" clip-rule="evenodd" fill="#666666" points="128.951,108.025 133.028,107.147 135.37,106.642 
		135.691,106.574 134.339,105.625 135.979,103.102 133.067,105.142 	"/>
	<polygon fill-rule="evenodd" clip-rule="evenodd" fill="#666666" points="76.15,142.757 72.535,138.279 72.368,142.619 
		72.266,145.288 73.694,142.801 78.376,145.513 	"/>
	<polygon fill-rule="evenodd" clip-rule="evenodd" fill="#666666" points="71.394,145.255 71.564,142.589 71.745,139.767 
		70.226,142.541 68.792,145.16 70.603,143.801 	"/>
	<polygon fill-rule="evenodd" clip-rule="evenodd" fill="#666666" points="4.814,118.182 13.868,113.229 4.712,116.433 
		1.98,117.388 3.871,117.615 2.112,119.66 	"/>
	<polygon fill-rule="evenodd" clip-rule="evenodd" fill="#666666" points="134.912,20.521 136.209,19.435 133.502,19.46 
		128.951,19.502 133.508,21.085 136.22,22.027 	"/>
	<path fill-rule="evenodd" clip-rule="evenodd" fill="#666666" d="M5.792,20.095l32.395,9.133l15.92,0.362l-1.078-15.438
		l-8.677-6.127l-0.449-2.507l9.688,8.168l0.127,0.098l0.011,0.16l1.088,15.596l9.758-2.865L65.035,3.79l1.004,0.631L65.283,26.83
		l16.912,15.64l12.855-13.218l0.302-20.623l1.192-1.208l-0.587,22.521l21.975,5.362l11.019-15.802l1.553,0.54L118.092,35.88
		l1.052,23.118l-16.568,52.956l24.239-2.402l4.086,1.521l-28.581,1.391l-0.092,0.01l-0.083-0.036l-22.34-9.549l5.138,16.471
		l15.184,15.739l0.139,0.145l-0.051,0.192l-0.887,7.086l-0.613-2.343l0.639-3.98l-14.746-16.162l-10.243,8.986l0.272,11.858
		l-2.19-0.263l0.09-2.34l1.053-8.727l-41.137-0.704l-1.591,12.727l-0.978-0.092l2.119-12.915l-10.539-21.652l-7.595,6.313
		l-3.489,1.909l-0.284-0.589l11.199-8.417l10.188-58.658l6.185-17.646L5.543,21.432L5.792,20.095L5.792,20.095z M54.476,29.943
		l-15.305,1.441l-6.709,15.585l12.813,60.238l33.641-5.269l1.732-58.164L64.669,27.661L54.476,29.943L54.476,29.943z M82.548,43.127
		l-2.926,58.909l22.563,9.645l15.729-53.605l-0.184-22.089l-21.937-5.401L82.548,43.127L82.548,43.127z M78.635,103.218
		l-33.517,4.555l-12.3,20.756l41.081-0.046l10.318-9.052L78.635,103.218L78.635,103.218z M44.922,107.628L31.847,48.417
		l-9.867,57.926l10.245,21.746L44.922,107.628z"/>
	<polygon fill-rule="evenodd" clip-rule="evenodd" fill="#999999" points="38.187,29.228 54.106,29.589 53.515,21.112 
		51.768,26.953 35.968,25.559 5.854,18.96 4.428,17.749 5.012,19.818 5.792,20.095 5.796,20.096 	"/>
	<polygon fill-rule="evenodd" clip-rule="evenodd" fill="#999999" points="54.297,22.083 54.816,29.54 64.574,26.675 64.821,14.408 
		62.201,22.864 56.368,26.21 	"/>
	<polygon fill-rule="evenodd" clip-rule="evenodd" fill="#999999" points="65.283,26.83 82.195,42.469 95.051,29.251 95.268,14.413 
		92.732,27.511 82.044,35.969 66.715,24.563 65.912,8.174 	"/>
	<polygon fill-rule="evenodd" clip-rule="evenodd" fill="#999999" points="95.958,29.942 117.933,35.304 128.951,19.502 
		133.502,19.46 133.499,18.723 128.05,18.31 115.781,31.601 97.472,28.626 96.154,22.394 	"/>
	<polygon fill-rule="evenodd" clip-rule="evenodd" fill="#999999" points="102.073,104.927 82.834,99.444 80.523,59.328 
		79.622,102.037 102.186,111.681 117.914,58.076 	"/>
	<polygon fill-rule="evenodd" clip-rule="evenodd" fill="#999999" points="45.274,107.208 78.915,101.939 80.647,43.775 
		74.517,98.236 46.052,101.209 32.462,46.969 	"/>
	<polygon fill-rule="evenodd" clip-rule="evenodd" fill="#999999" points="21.294,106.132 31.482,47.474 37.667,29.829 
		30.204,46.946 18.635,102.697 4.386,110.883 4.598,114.489 9.778,113.972 4.671,115.744 4.712,116.433 10.095,114.549 	"/>
	<polygon fill-rule="evenodd" clip-rule="evenodd" fill="#999999" points="32.482,120.728 21.979,106.343 32.225,128.089 
		44.922,107.628 	"/>
	<polygon fill-rule="evenodd" clip-rule="evenodd" fill="#999999" points="35.226,138.667 32.404,135.6 32.451,128.848 
		30.86,141.575 31.708,141.654 31.757,140.509 32.408,141.72 37.292,142.177 45.159,142.177 58.033,143.59 60.257,142.177 
		70.226,142.541 71.745,139.767 71.564,142.589 72.368,142.619 72.445,140.619 72.535,138.279 73.588,129.552 69.773,140.323 
		60.164,140.132 57.856,141.363 46.496,139.155 	"/>
	<polygon fill-rule="evenodd" clip-rule="evenodd" fill="#999999" points="29.883,141.483 32.002,128.568 28.301,136.623 
		23.189,137.458 11.943,137.273 5.214,132.904 4.712,130.299 4.428,136.412 10.264,142.177 18.338,142.177 26.921,141.207 	"/>
	<polygon fill-rule="evenodd" clip-rule="evenodd" fill="#999999" points="74.636,140.881 76.15,142.757 86.898,143.149 
		95.839,142.177 98.263,142.417 98.714,140.179 99.353,136.199 95.335,138.574 86.726,139.42 76.995,136.993 74.363,129.023 	"/>
	<polygon fill-rule="evenodd" clip-rule="evenodd" fill="#999999" points="100.214,135.436 99.327,142.522 111.038,143.679 
		118.19,142.177 127.947,142.177 133.787,136.413 133.975,126.734 131.21,133.183 126.47,135.971 117.455,135.042 109.149,138.049 
		103.759,137.212 104.35,130.488 86.412,116.082 79.805,102.889 84.942,119.36 100.126,135.099 100.265,135.244 	"/>
	<polygon fill-rule="evenodd" clip-rule="evenodd" fill="#999999" points="73.899,128.483 84.218,119.431 81.427,111.325 
		81.394,116.173 71.728,124.353 32.818,128.529 	"/>
	<polygon fill-rule="evenodd" clip-rule="evenodd" fill="#999999" points="125.978,109.744 102.575,111.955 125.818,105.259 
		134.054,57.872 133.067,105.142 128.951,108.025 133.028,107.147 133.054,108.119 	"/>
	<polygon fill-rule="evenodd" clip-rule="evenodd" fill="#FFFFFF" points="4.342,10.325 2.337,8.886 4.063,10.906 4.428,17.388 
		4.645,11.068 10.359,5.236 16.029,5.167 20.881,5.442 16.262,4.725 14.446,2.729 15.564,4.656 10.406,4.679 8.064,2.583 
		9.803,4.865 	"/>
	<polygon fill-rule="evenodd" clip-rule="evenodd" fill="#FFFFFF" points="44.352,8.024 43.44,6.414 44.002,8.491 52.599,14.486 
		53.423,19.794 53.028,14.151 	"/>
	<polygon fill-rule="evenodd" clip-rule="evenodd" fill="#FFFFFF" points="48.707,4.28 45.743,5.639 49.228,4.717 55.784,5.163 
		49.46,4.169 48.341,2.02 	"/>
	<polygon fill-rule="evenodd" clip-rule="evenodd" fill="#FFFFFF" points="65.012,4.955 54.373,5.105 64.413,5.509 64.863,12.307 	
		"/>
	<polygon fill-rule="evenodd" clip-rule="evenodd" fill="#FFFFFF" points="34.471,4.952 28.287,5.35 34.681,5.417 36.648,6.108 
		39.699,5.686 36.713,5.708 35.21,5.254 33.87,3.247 	"/>
	<polygon fill-rule="evenodd" clip-rule="evenodd" fill="#FFFFFF" points="70.577,4.581 66.394,4.935 70.81,5.325 72.9,4.209 
		86.312,4.694 73.087,3.605 72.961,1.637 72.413,3.605 70.949,4.511 70.883,3.35 	"/>
	<polygon fill-rule="evenodd" clip-rule="evenodd" fill="#FFFFFF" points="89.924,4.697 93.104,3.966 97.135,4.396 95.353,8.629 
		97.782,4.044 93.486,3.536 94.042,1.634 92.929,3.512 	"/>
	<polygon fill-rule="evenodd" clip-rule="evenodd" fill="#FFFFFF" points="101.018,4.281 96.905,7.437 101.159,4.634 110.639,5.238 
		113.822,4.727 117.908,4.857 114.264,4.308 115.27,2.332 113.59,4.192 110.895,4.704 111.352,3.635 110.407,4.634 	"/>
	<polygon fill-rule="evenodd" clip-rule="evenodd" fill="#FFFFFF" points="127.855,4.634 121.514,4.897 127.693,5.355 
		133.502,11.117 134.618,15.562 134.129,10.955 135.956,8.807 133.781,10.281 128.344,5.006 130.089,2.801 	"/>
	<polygon fill-rule="evenodd" clip-rule="evenodd" fill="#FFFFFF" points="39.619,32.037 54.769,30.503 64.458,28.18 78.312,41.419 
		64.669,27.661 54.476,29.943 39.171,31.384 33.088,45.516 	"/>
	<polygon fill-rule="evenodd" clip-rule="evenodd" fill="#FFFFFF" points="5.543,21.432 36.177,29.439 5.577,22.256 4.694,23.999 
		4.206,30.528 4.338,33.812 3.625,30.667 1.461,29.211 3.741,30.017 4.159,24.022 2.213,22.472 4.252,23.372 5.207,21.42 	"/>
	<polygon fill-rule="evenodd" clip-rule="evenodd" fill="#FFFFFF" points="96.04,31.389 117.219,36.536 117.812,45.761 
		117.73,35.987 95.794,30.585 82.548,43.127 81.289,53.203 83.249,43.448 	"/>
	<polygon fill-rule="evenodd" clip-rule="evenodd" fill="#FFFFFF" points="118.878,36.35 130.504,20.042 118.092,35.88 
		118.844,52.401 	"/>
	<polygon fill-rule="evenodd" clip-rule="evenodd" fill="#FFFFFF" points="133.508,21.085 131.229,20.294 133.166,21.248 
		133.375,25.314 134.293,27.881 134.383,32.726 134.606,27.986 136.688,26.508 134.583,27.382 133.816,25.453 135.635,24.093 
		133.793,24.942 	"/>
	<polygon fill-rule="evenodd" clip-rule="evenodd" fill="#FFFFFF" points="133.827,51.059 133.5,46.807 133.247,51.5 
		134.153,53.476 134.054,57.872 134.641,53.731 136.875,53.312 134.595,53.15 133.804,51.57 134.578,51.305 	"/>
	<polygon fill-rule="evenodd" clip-rule="evenodd" fill="#FFFFFF" points="31.916,49.92 44.098,106.134 31.847,48.417 
		22.732,104.632 	"/>
	<polygon fill-rule="evenodd" clip-rule="evenodd" fill="#FFFFFF" points="4.428,38.536 4.526,40.372 3.835,43.346 4.919,59.607 
		3.405,43.393 1.249,42.629 3.545,42.904 4.195,40.534 2.708,39.885 4.242,40.116 	"/>
	<polygon fill-rule="evenodd" clip-rule="evenodd" fill="#FFFFFF" points="4.114,106.273 4.887,104.16 3.879,105.941 1.749,106.673 
		3.902,106.335 4.418,111.444 	"/>
	<polygon fill-rule="evenodd" clip-rule="evenodd" fill="#FFFFFF" points="45.562,108.404 78.23,103.873 80.066,107.375 
		78.635,103.218 45.118,107.773 34.899,125.017 	"/>
	<polygon fill-rule="evenodd" clip-rule="evenodd" fill="#FFFFFF" points="119.844,59.427 118.954,54.831 119.144,58.999 
		102.575,111.955 	"/>
	<polygon fill-rule="evenodd" clip-rule="evenodd" fill="#FFFFFF" points="80.867,103.343 102.022,112.983 123.994,111.41 
		102.319,112.464 102.228,112.474 102.145,112.438 	"/>
	<polygon fill-rule="evenodd" clip-rule="evenodd" fill="#FFFFFF" points="133.146,111.68 130.9,111.074 132.715,111.869 
		132.971,117.027 133.869,124.621 133.552,117.445 135.662,118.243 133.645,116.934 	"/>
	<polygon fill-rule="evenodd" clip-rule="evenodd" fill="#FFFFFF" points="75.029,128.439 84.594,120.861 97.437,134.098 
		84.606,120.037 	"/>
	<polygon fill-rule="evenodd" clip-rule="evenodd" fill="#FFFFFF" points="32.977,128.856 69.107,130.039 73.588,129.552 	"/>
	<polygon fill-rule="evenodd" clip-rule="evenodd" fill="#FFFFFF" points="21.463,106.916 13.868,113.229 10.379,115.138 
		5.603,117.751 13.97,113.89 21.266,107.896 31.195,126.912 	"/>
	<polygon fill-rule="evenodd" clip-rule="evenodd" fill="#FFFFFF" points="5.21,120.838 4.869,119.117 4.698,120.583 3.231,121.751 
		4.692,121.094 3.693,123.993 1.43,125.558 3.874,124.452 4.926,125.708 4.768,129.111 5.232,125.509 4.257,123.975 	"/>
	<g>
		<circle fill-rule="evenodd" clip-rule="evenodd" fill="#999999" cx="20.392" cy="12.037" r="1.626"/>
		<circle fill-rule="evenodd" clip-rule="evenodd" fill="#999999" cx="36.888" cy="14.5" r="1.58"/>
		<circle fill-rule="evenodd" clip-rule="evenodd" fill="#999999" cx="26.711" cy="18.822" r="0.697"/>
		<circle fill-rule="evenodd" clip-rule="evenodd" fill="#999999" cx="48.878" cy="19.983" r="0.836"/>
		<circle fill-rule="evenodd" clip-rule="evenodd" fill="#999999" cx="38.235" cy="21.424" r="0.418"/>
		<circle fill-rule="evenodd" clip-rule="evenodd" fill="#999999" cx="10.492" cy="34.482" r="2.138"/>
		<circle fill-rule="evenodd" clip-rule="evenodd" fill="#999999" cx="21.181" cy="38.479" r="1.115"/>
		<circle fill-rule="evenodd" clip-rule="evenodd" fill="#999999" cx="22.678" cy="127.655" r="1.487"/>
		<circle fill-rule="evenodd" clip-rule="evenodd" fill="#999999" cx="12.816" cy="64.317" r="1.115"/>
		<circle fill-rule="evenodd" clip-rule="evenodd" fill="#999999" cx="14.675" cy="42.196" r="0.372"/>
		<circle fill-rule="evenodd" clip-rule="evenodd" fill="#999999" cx="63.678" cy="134.906" r="2.788"/>
		<circle fill-rule="evenodd" clip-rule="evenodd" fill="#999999" cx="39.856" cy="133.032" r="2.044"/>
		<circle fill-rule="evenodd" clip-rule="evenodd" fill="#999999" cx="64.956" cy="59.948" r="1.208"/>
		<circle fill-rule="evenodd" clip-rule="evenodd" fill="#999999" cx="70.254" cy="35.505" r="1.301"/>
		<circle fill-rule="evenodd" clip-rule="evenodd" fill="#999999" cx="54.732" cy="58.647" r="1.58"/>
		<circle fill-rule="evenodd" clip-rule="evenodd" fill="#999999" cx="43.766" cy="38.014" r="1.208"/>
		<circle fill-rule="evenodd" clip-rule="evenodd" fill="#999999" cx="62.261" cy="14.314" r="1.115"/>
		<circle fill-rule="evenodd" clip-rule="evenodd" fill="#999999" cx="90.979" cy="15.336" r="3.811"/>
		<circle fill-rule="evenodd" clip-rule="evenodd" fill="#999999" cx="80.849" cy="19.147" r="1.301"/>
		<circle fill-rule="evenodd" clip-rule="evenodd" fill="#999999" cx="82.708" cy="11.154" r="1.673"/>
		<circle fill-rule="evenodd" clip-rule="evenodd" fill="#999999" cx="87.727" cy="27.698" r="0.929"/>
		<circle fill-rule="evenodd" clip-rule="evenodd" fill="#999999" cx="32.232" cy="87.532" r="2.881"/>
		<circle fill-rule="evenodd" clip-rule="evenodd" fill="#999999" cx="97.839" cy="54.693" r="1.208"/>
		<circle fill-rule="evenodd" clip-rule="evenodd" fill="#999999" cx="117.188" cy="52.327" r="0.465"/>
		<circle fill-rule="evenodd" clip-rule="evenodd" fill="#999999" cx="105.85" cy="62.179" r="1.208"/>
		<circle fill-rule="evenodd" clip-rule="evenodd" fill="#999999" cx="126.901" cy="41.068" r="1.394"/>
		<circle fill-rule="evenodd" clip-rule="evenodd" fill="#999999" cx="106.436" cy="22.128" r="3.346"/>
		<circle fill-rule="evenodd" clip-rule="evenodd" fill="#999999" cx="93.678" cy="115.236" r="1.58"/>
		<circle fill-rule="evenodd" clip-rule="evenodd" fill="#999999" cx="119.776" cy="66.444" r="1.301"/>
		<circle fill-rule="evenodd" clip-rule="evenodd" fill="#999999" cx="112.635" cy="12.27" r="1.673"/>
		<circle fill-rule="evenodd" clip-rule="evenodd" fill="#999999" cx="129.457" cy="12.548" r="1.58"/>
		<circle fill-rule="evenodd" clip-rule="evenodd" fill="#999999" cx="113.285" cy="23.329" r="0.279"/>
		<circle fill-rule="evenodd" clip-rule="evenodd" fill="#999999" cx="56.87" cy="77.514" r="0.929"/>
		<circle fill-rule="evenodd" clip-rule="evenodd" fill="#999999" cx="11.836" cy="130.334" r="2.881"/>
		<circle fill-rule="evenodd" clip-rule="evenodd" fill="#999999" cx="84.178" cy="132.155" r="1.952"/>
		<circle fill-rule="evenodd" clip-rule="evenodd" fill="#999999" cx="69.789" cy="81.696" r="0.651"/>
		<circle fill-rule="evenodd" clip-rule="evenodd" fill="#999999" cx="85.589" cy="79.094" r="0.464"/>
		<circle fill-rule="evenodd" clip-rule="evenodd" fill="#999999" cx="55.651" cy="86.068" r="1.563"/>
		<circle fill-rule="evenodd" clip-rule="evenodd" fill="#999999" cx="49.554" cy="116.657" r="2.138"/>
		<circle fill-rule="evenodd" clip-rule="evenodd" fill="#999999" cx="32.304" cy="65.429" r="1.022"/>
		<circle fill-rule="evenodd" clip-rule="evenodd" fill="#999999" cx="30.94" cy="71.473" r="0.836"/>
		<circle fill-rule="evenodd" clip-rule="evenodd" fill="#999999" cx="18.393" cy="85.507" r="1.301"/>
		<circle fill-rule="evenodd" clip-rule="evenodd" fill="#999999" cx="10.028" cy="96.288" r="1.301"/>
		<circle fill-rule="evenodd" clip-rule="evenodd" fill="#999999" cx="32.68" cy="107.657" r="1.487"/>
		<circle fill-rule="evenodd" clip-rule="evenodd" fill="#999999" cx="16.93" cy="120.408" r="1.301"/>
		<circle fill-rule="evenodd" clip-rule="evenodd" fill="#999999" cx="61.054" cy="117.282" r="1.022"/>
		<circle fill-rule="evenodd" clip-rule="evenodd" fill="#999999" cx="63.964" cy="100.693" r="1.58"/>
		<circle fill-rule="evenodd" clip-rule="evenodd" fill="#999999" cx="72.304" cy="108.907" r="1.487"/>
		<circle fill-rule="evenodd" clip-rule="evenodd" fill="#999999" cx="81.526" cy="93.756" r="1.115"/>
		<circle fill-rule="evenodd" clip-rule="evenodd" fill="#999999" cx="89.307" cy="98.983" r="1.022"/>
		<circle fill-rule="evenodd" clip-rule="evenodd" fill="#999999" cx="116.678" cy="124.156" r="3.16"/>
		<circle fill-rule="evenodd" clip-rule="evenodd" fill="#999999" cx="126.299" cy="118.287" r="1.952"/>
		<circle fill-rule="evenodd" clip-rule="evenodd" fill="#999999" cx="131.874" cy="85.414" r="1.022"/>
		<circle fill-rule="evenodd" clip-rule="evenodd" fill="#999999" cx="123.323" cy="82.812" r="1.208"/>
		<circle fill-rule="evenodd" clip-rule="evenodd" fill="#999999" cx="106.89" cy="123.284" r="1.58"/>
		<circle fill-rule="evenodd" clip-rule="evenodd" fill="#999999" cx="121.278" cy="97.124" r="0.836"/>
		<circle fill-rule="evenodd" clip-rule="evenodd" fill="#999999" cx="124.902" cy="89.507" r="0.93"/>
		<circle fill-rule="evenodd" clip-rule="evenodd" fill="#999999" cx="87.088" cy="74.255" r="0.836"/>
	</g>
</g>
<g>
	
		<polygon fill-rule="evenodd" clip-rule="evenodd" fill="none" stroke="#666666" stroke-width="1.9199" stroke-miterlimit="22.9256" points="
		11.255,26.356 126.53,26.356 130.25,29.919 130.25,125.913 126.53,129.476 11.255,129.476 7.534,125.913 7.534,29.919 	"/>
	<path fill-rule="evenodd" clip-rule="evenodd" fill="#808080" d="M11.255,26.356H126.53l3.72,3.563v95.993l-3.72,3.563H11.255
		l-3.721-3.563V29.919L11.255,26.356z"/>
</g>
<g>
	
		<polygon fill-rule="evenodd" clip-rule="evenodd" fill="none" stroke="#666666" stroke-width="1.7453" stroke-miterlimit="22.9256" points="
		26.022,7.29 112.456,7.29 116.095,10.928 116.095,16.989 112.456,20.627 26.022,20.627 22.384,16.989 22.384,10.928 	"/>
	<path fill-rule="evenodd" clip-rule="evenodd" fill="#808080" d="M26.022,7.29h86.434l3.639,3.638v6.061l-3.639,3.639H26.022
		l-3.639-3.639v-6.061L26.022,7.29z"/>
</g>
<g opacity="0.5">
	<path d="M39.669,17.116h2.857v1.429h-4.285v-7.143h1.428V17.116z"/>
	<path d="M49.669,12.831h-2.857v1.429h2.857v1.429h-2.857v1.428h2.857v1.429h-4.285v-7.143h4.285V12.831z"/>
	<path d="M52.526,14.259v-2.857h1.428v2.857H52.526z M53.954,17.116v-2.857h1.43v2.857H53.954z M55.384,17.116h1.428v1.429h-1.428
		V17.116z M56.812,17.116v-2.857h1.43v2.857H56.812z M58.241,14.259v-2.857h1.428v2.857H58.241z"/>
	<path d="M66.812,12.831h-2.857v1.429h2.857v1.429h-2.857v1.428h2.857v1.429h-4.285v-7.143h4.285V12.831z"/>
	<path d="M71.097,17.116h2.857v1.429h-4.285v-7.143h1.428V17.116z"/>
	<path d="M82.526,11.402h1.428v5.714h-1.428V11.402z M86.812,18.545h-2.857v-1.429h2.857V18.545z M86.812,11.402h1.429v5.714h-1.429
		V11.402z"/>
	<path d="M91.097,18.545v-7.143h4.286v1.429h-2.857v1.429h2.857v1.429h-2.857v2.857H91.097z M95.383,12.831h1.429v1.429h-1.429
		V12.831z"/>
	<path d="M99.669,15.688v-4.286h1.428v4.286H99.669z M99.669,17.116h1.428v1.429h-1.428V17.116z"/>
</g>
<g>
	<path fill="#FFD700" d="M39.239,16.601h2.857v1.429h-4.285v-7.143h1.428V16.601z"/>
	<path fill="#FFD700" d="M49.239,12.315h-2.857v1.429h2.857v1.429h-2.857v1.428h2.857v1.429h-4.285v-7.143h4.285V12.315z"/>
	<path fill="#FFD700" d="M52.097,13.744v-2.857h1.428v2.857H52.097z M53.524,16.601v-2.857h1.43v2.857H53.524z M54.954,16.601h1.428
		v1.429h-1.428V16.601z M56.382,16.601v-2.857h1.43v2.857H56.382z M57.812,13.744v-2.857h1.428v2.857H57.812z"/>
	<path fill="#FFD700" d="M66.382,12.315h-2.857v1.429h2.857v1.429h-2.857v1.428h2.857v1.429h-4.285v-7.143h4.285V12.315z"/>
	<path fill="#FFD700" d="M70.667,16.601h2.857v1.429h-4.285v-7.143h1.428V16.601z"/>
	<path fill="#FFD700" d="M82.097,10.887h1.428v5.714h-1.428V10.887z M86.382,18.03h-2.857v-1.429h2.857V18.03z M86.382,10.887h1.429
		v5.714h-1.429V10.887z"/>
	<path fill="#FFD700" d="M90.667,18.03v-7.143h4.286v1.429h-2.857v1.429h2.857v1.429h-2.857v2.857H90.667z M94.953,12.315h1.429
		v1.429h-1.429V12.315z"/>
	<path fill="#FFD700" d="M99.239,15.173v-4.286h1.428v4.286H99.239z M99.239,16.601h1.428v1.429h-1.428V16.601z"/>
</g>
</svg>
