<?xml version="1.0" encoding="utf-8"?>
<!-- Generator: Adobe Illustrator 15.0.0, SVG Export Plug-In . SVG Version: 6.00 Build 0)  -->
<!DOCTYPE svg PUBLIC "-//W3C//DTD SVG 1.1//EN" "http://www.w3.org/Graphics/SVG/1.1/DTD/svg11.dtd">
<svg version="1.1" id="Layer_1" xmlns="http://www.w3.org/2000/svg" xmlns:xlink="http://www.w3.org/1999/xlink" x="0px" y="0px"
	 width="28.925px" height="28.973px" viewBox="0 0 28.925 28.973" enable-background="new 0 0 28.925 28.973" xml:space="preserve">
<g>
	<path fill-rule="evenodd" clip-rule="evenodd" fill="#666666" d="M5.284,4.931V24.04h1.997v-0.351v-5.748v-0.716h0.718h11.985
		h0.717v0.716v5.748v0.351h2.939V8.137l-3.203-3.206h-0.062v8.604v0.717h-0.719H8.096H7.378v-0.717V4.931H5.284L5.284,4.931z
		 M3.85,24.758V4.215V3.498h0.718h3.528h0.102h0.615h0.101h9.926h0.101h0.616h0.101h1.076h0.296l0.212,0.21l3.624,3.626l0.211,0.209
		v0.297v16.917v0.717h-0.717H4.568H3.85V24.758L3.85,24.758z M18.121,4.931v0.111h-0.277h-2.319h-0.717v0.718v6.14v0.22H9.631V4.931
		H18.121L18.121,4.931z M19.267,18.658v4.314H8.715v-4.314H19.267z"/>
	<path fill-rule="evenodd" clip-rule="evenodd" fill="#CCCCCC" d="M4.568,4.215v20.543h19.791V7.841l-3.626-3.626h-1.076v9.32H8.096
		v-9.32H4.568L4.568,4.215z M8.914,4.215h9.926v8.623H8.914V4.215L8.914,4.215z M15.524,5.761h2.319v6.14h-2.319V5.761L15.524,5.761
		z M7.999,17.941h11.985v5.748H7.999V17.941z"/>
</g>
</svg>
