<?xml version="1.0" encoding="utf-8"?>
<!-- Generator: Adobe Illustrator 15.0.0, SVG Export Plug-In . SVG Version: 6.00 Build 0)  -->
<!DOCTYPE svg PUBLIC "-//W3C//DTD SVG 1.1//EN" "http://www.w3.org/Graphics/SVG/1.1/DTD/svg11.dtd">
<svg version="1.1" id="Layer_1" xmlns="http://www.w3.org/2000/svg" xmlns:xlink="http://www.w3.org/1999/xlink" x="0px" y="0px"
	 width="21px" height="21px" viewBox="0 0 21 21" enable-background="new 0 0 21 21" xml:space="preserve">
<circle fill="#E22727" cx="10.5" cy="10.5" r="10.5"/>
<path fill="#FFFFFF" d="M10.514,2.262c-4.15,0-7.671,4.09-6.609,8.102c0.258,0.979,0.529,1.874,0.847,2.677
	c-0.501,0.56-0.285,1.634,0.192,2.153c0.293,0.317,0.947,0.865,1.494,1.087c0.443-0.065,1.74,0.661,1.66,2.033
	c0.15,0.063,0.31,0.113,0.469,0.161v-1.342h0.352v1.396c0.262,0.065,0.384,0.118,0.67,0.154v-1.551h0.35v1.569
	c0.266,0.025,0.383,0.036,0.662,0.036c0.002,0-0.071,0-0.068,0v-1.605h0.359v1.604c0.278-0.006,0.3-0.023,0.563-0.054v-1.551h0.357
	v1.522c0.272-0.04,0.374-0.096,0.622-0.168v-1.354h0.357v1.294c0.11-0.036,0.22-0.076,0.326-0.119
	c-0.22-1.715,1.516-2.229,1.76-2.178c0.567-0.191,1.288-0.789,1.599-1.129c0.496-0.537,0.713-1.682,0.131-2.217
	c-0.021-0.017-0.041-0.029-0.063-0.047c0.217-0.629,0.406-1.318,0.583-2.066C18.08,6.631,14.664,2.262,10.514,2.262z M8.921,12.55
	c-0.712,0.515-1.487,1.513-2.438,0.933c-0.95-0.575-0.974-2.696-0.416-3.538c0.479-0.724,3.229-0.55,3.582,0.058
	C10.002,10.61,9.635,12.032,8.921,12.55z M11.456,15.097c-0.087,0.264-0.63-0.083-0.874-0.255c-0.243,0.172-0.787,0.519-0.875,0.255
	c-0.113-0.342,0.596-2.467,0.682-2.641c0.024-0.049,0.063-0.094,0.104-0.125c0.02-0.033,0.049-0.047,0.084-0.045
	c0.002,0,0.004,0,0.006,0s0.004,0,0.007,0c0.035-0.002,0.063,0.012,0.084,0.045c0.04,0.03,0.079,0.076,0.104,0.125
	C10.861,12.628,11.57,14.755,11.456,15.097z M14.841,13.315c-0.909,0.639-1.75-0.304-2.495-0.771
	c-0.748-0.469-1.209-1.863-0.896-2.492c0.313-0.628,3.043-0.987,3.569-0.298C15.633,10.558,15.752,12.675,14.841,13.315z"/>
</svg>
