<?xml version="1.0" encoding="utf-8"?>
<!-- Generator: Adobe Illustrator 15.0.0, SVG Export Plug-In . SVG Version: 6.00 Build 0)  -->
<!DOCTYPE svg PUBLIC "-//W3C//DTD SVG 1.1//EN" "http://www.w3.org/Graphics/SVG/1.1/DTD/svg11.dtd">
<svg version="1.1" id="Layer_1" xmlns="http://www.w3.org/2000/svg" xmlns:xlink="http://www.w3.org/1999/xlink" x="0px" y="0px"
	 width="21px" height="21px" viewBox="0 0 21 21" enable-background="new 0 0 21 21" xml:space="preserve">
<circle opacity="0.15" cx="11" cy="11" r="10"/>
<circle fill="#E22727" cx="10" cy="10" r="10"/>
<g>
	<path fill="#FFFFFF" d="M11.45,11.779h-2.9L8.102,3.465h3.797L11.45,11.779z M8.137,14.855c0-0.533,0.158-0.947,0.475-1.242
		c0.316-0.297,0.776-0.445,1.38-0.445c0.598,0,1.051,0.148,1.357,0.445c0.309,0.295,0.462,0.709,0.462,1.242
		c0,0.527-0.159,0.939-0.479,1.236c-0.318,0.295-0.766,0.443-1.34,0.443c-0.58,0-1.034-0.148-1.362-0.443
		C8.301,15.795,8.137,15.383,8.137,14.855z"/>
</g>
</svg>
