<?xml version="1.0" encoding="utf-8"?>
<!-- Generator: Adobe Illustrator 15.0.0, SVG Export Plug-In . SVG Version: 6.00 Build 0)  -->
<!DOCTYPE svg PUBLIC "-//W3C//DTD SVG 1.1//EN" "http://www.w3.org/Graphics/SVG/1.1/DTD/svg11.dtd">
<svg version="1.1" id="Layer_1" xmlns="http://www.w3.org/2000/svg" xmlns:xlink="http://www.w3.org/1999/xlink" x="0px" y="0px"
	 width="28.925px" height="28.973px" viewBox="0 0 28.925 28.973" enable-background="new 0 0 28.925 28.973" xml:space="preserve">
<g>
	
		<polygon fill-rule="evenodd" clip-rule="evenodd" fill="none" stroke="#666666" stroke-width="2.1223" stroke-miterlimit="22.9256" points="
		18.82,1.359 23.81,1.088 27.455,4.782 27.862,8.994 27.429,18.383 26.951,18.813 27.393,19.156 27.37,19.664 27.375,19.92 
		26.206,20.582 27.405,21.362 27.455,23.78 23.81,27.473 12.789,27.885 10.305,27.752 9.488,27.117 9.187,27.694 8.441,27.655 
		8.173,27.246 7.582,27.608 5.065,27.473 1.419,23.78 1.723,18.41 1.158,11.297 1.26,11.285 1.85,10.705 1.071,10.199 1.064,10.111 
		1.419,4.782 5.065,1.088 11.162,1.775 16.97,1.459 18.137,2.012 18.8,1.453 	"/>
	<path fill-rule="evenodd" clip-rule="evenodd" fill="#808080" d="M5.065,1.088l6.097,0.688l5.809-0.316l1.215,2.924l0.635-3.023
		l4.99-0.271l3.645,3.694l0.407,4.212l-0.433,9.389l-4.532,1.115l4.496-0.342l-0.023,0.508l0.006,0.256l-5.326,0.574l5.355,0.867
		l0.05,2.418l-3.645,3.693l-11.021,0.412l-2.483-0.133l-0.967-1.621l-0.151,1.563l-0.746-0.039l0.186-1.627l-1.045,1.58
		l-2.517-0.135L1.419,23.78l0.304-5.369l-0.565-7.114l4.111-0.49l-4.198-0.607l-0.007-0.088l0.355-5.329L5.065,1.088z"/>
	<polygon fill-rule="evenodd" clip-rule="evenodd" fill="#B3B3B3" points="22.492,3.04 18.37,3.505 18.185,4.383 17.845,3.564 
		17.283,3.627 6.478,3.04 3.364,6.196 3.016,9.794 3.048,10.485 5.269,10.806 3.075,11.068 3.436,18.908 3.364,22.426 6.478,25.58 
		15.893,25.934 22.492,25.58 25.605,22.426 25.528,21.057 22.049,20.494 25.475,20.125 25.429,19.307 22.897,19.498 25.405,18.881 
		25.346,17.838 25.91,10.749 25.605,6.196 	"/>
	<polygon fill-rule="evenodd" clip-rule="evenodd" fill="#666666" points="8.441,27.655 8.626,26.028 7.582,27.608 8.173,27.246 	
		"/>
	<polygon fill-rule="evenodd" clip-rule="evenodd" fill="#666666" points="9.338,26.131 9.187,27.694 9.488,27.117 10.305,27.752 	
		"/>
	<polygon fill-rule="evenodd" clip-rule="evenodd" fill="#666666" points="22.049,20.494 25.528,21.057 27.405,21.362 
		26.206,20.582 27.375,19.92 25.475,20.125 	"/>
	<polygon fill-rule="evenodd" clip-rule="evenodd" fill="#666666" points="25.429,19.307 27.393,19.156 26.951,18.813 
		27.429,18.383 25.405,18.881 22.897,19.498 	"/>
	<polygon fill-rule="evenodd" clip-rule="evenodd" fill="#666666" points="18.37,3.505 18.8,1.453 18.137,2.012 16.97,1.459 
		17.845,3.564 18.185,4.383 	"/>
	<polygon fill-rule="evenodd" clip-rule="evenodd" fill="#666666" points="5.269,10.806 3.048,10.485 1.071,10.199 1.85,10.705 
		1.26,11.285 3.075,11.068 	"/>
	<polygon fill-rule="evenodd" clip-rule="evenodd" fill="#666666" points="12.628,13.174 18.151,9.164 17.894,3.681 18.532,2.733 
		18.411,9.231 18.411,9.3 18.356,9.339 13.431,13.483 17.437,19.281 24.144,20.27 22.889,20.631 22.049,20.494 17.538,19.951 
		11.072,23.164 9.694,26.727 9.338,26.131 10.842,22.981 10.86,22.946 10.894,22.926 17.167,19.362 12.573,13.431 3.534,11.013 
		5.269,10.806 	"/>
	<polygon fill-rule="evenodd" clip-rule="evenodd" fill="#CCCCCC" points="6.478,3.04 17.283,3.627 17.845,3.564 16.97,1.459 
		11.162,1.775 5.065,1.088 	"/>
	<polygon fill-rule="evenodd" clip-rule="evenodd" fill="#CCCCCC" points="18.8,1.453 18.532,2.733 18.517,3.488 22.492,3.04 
		23.81,1.088 18.82,1.359 	"/>
	<polygon fill-rule="evenodd" clip-rule="evenodd" fill="#D6D6D6" points="6.478,3.04 5.065,1.088 1.419,4.782 3.364,6.196 	"/>
	<polygon fill-rule="evenodd" clip-rule="evenodd" fill="#D6D6D6" points="22.492,3.04 25.605,6.196 27.455,4.782 23.81,1.088 	"/>
	<polygon fill-rule="evenodd" clip-rule="evenodd" fill="#A3A3A3" points="27.455,4.782 25.605,6.196 25.91,10.749 27.862,8.994 	
		"/>
	<polygon fill-rule="evenodd" clip-rule="evenodd" fill="#A3A3A3" points="3.016,9.794 3.364,6.196 1.419,4.782 1.064,10.111 
		1.071,10.199 3.048,10.485 	"/>
	<polygon fill-rule="evenodd" clip-rule="evenodd" fill="#999999" points="3.075,11.068 1.26,11.285 1.158,11.297 1.723,18.41 
		3.436,18.908 	"/>
	<polygon fill-rule="evenodd" clip-rule="evenodd" fill="#999999" points="25.91,10.749 25.346,17.838 27.429,18.383 27.862,8.994 	
		"/>
	<polygon fill-rule="evenodd" clip-rule="evenodd" fill="#A3A3A3" points="3.364,22.426 3.436,18.908 1.723,18.41 1.419,23.78 	"/>
	<polygon fill-rule="evenodd" clip-rule="evenodd" fill="#8D8D8D" points="3.364,22.426 1.419,23.78 5.065,27.473 6.478,25.58 	"/>
	<polygon fill-rule="evenodd" clip-rule="evenodd" fill="#757575" points="15.893,25.934 12.789,27.885 23.81,27.473 22.492,25.58 	
		"/>
	<polygon fill-rule="evenodd" clip-rule="evenodd" fill="#8D8D8D" points="25.605,22.426 22.492,25.58 23.81,27.473 27.455,23.78 	
		"/>
	<polygon fill-rule="evenodd" clip-rule="evenodd" fill="#A3A3A3" points="25.605,22.426 27.455,23.78 27.405,21.362 25.528,21.057 
			"/>
	<polygon fill-rule="evenodd" clip-rule="evenodd" fill="#A3A3A3" points="25.475,20.125 27.375,19.92 27.37,19.664 27.393,19.156 
		25.429,19.307 	"/>
	<polygon fill-rule="evenodd" clip-rule="evenodd" fill="#A3A3A3" points="25.405,18.881 27.429,18.383 25.346,17.838 	"/>
	<polygon fill-rule="evenodd" clip-rule="evenodd" fill="#FFFFFF" points="3.367,5.983 1.758,5.028 3.18,6.326 3.038,10.242 
		3.519,6.292 6.519,3.268 13.52,3.423 6.621,2.908 5.554,1.763 6.248,3.046 	"/>
	<polygon fill-rule="evenodd" clip-rule="evenodd" fill="#FFFFFF" points="22.486,3.235 19.004,3.433 22.316,2.891 23.504,1.541 
		22.74,3.011 25.605,5.915 26.951,5.168 25.774,6.309 25.898,10.373 27.626,9.206 25.91,10.749 25.605,14.581 25.74,10.683 
		25.469,6.326 	"/>
	<polygon fill-rule="evenodd" clip-rule="evenodd" fill="#FFFFFF" points="18.411,9.3 13.807,13.168 18.877,9.419 18.481,5.431 	"/>
	<polygon fill-rule="evenodd" clip-rule="evenodd" fill="#FFFFFF" points="3.534,11.013 1.441,11.263 3.401,11.206 8.049,12.47 
		8.388,16.918 8.388,12.312 	"/>
	<polygon fill-rule="evenodd" clip-rule="evenodd" fill="#FFFFFF" points="11.072,23.164 10.383,24.946 11.318,23.489 17.759,20.26 
		24.727,20.928 22.049,20.494 17.538,19.951 	"/>
	<polygon fill-rule="evenodd" clip-rule="evenodd" fill="#FFFFFF" points="22.897,19.498 27.393,19.156 27.379,19.453 	"/>
	<path fill-rule="evenodd" clip-rule="evenodd" fill="#999999" d="M5.269,10.806l-1.376-0.199l1.946-0.086l2.111,0.556L7.275,8.052
		l3.717-0.66c0.966-2.25,3.694-2.494,5.307-0.941l1.608-0.277l0.082-0.473l0.162,3.463l-5.522,4.01L5.269,10.806z"/>
	<polygon fill-rule="evenodd" clip-rule="evenodd" fill="#999999" points="17.437,19.281 13.95,14.234 18.009,18.735 24.111,19.85 
		27.375,19.92 23.762,20.311 	"/>
	<polygon fill-rule="evenodd" clip-rule="evenodd" fill="#999999" points="10.842,22.981 17.167,19.362 10.315,22.444 8.688,24.987 
		6.738,25.227 3.772,22.84 6.478,25.58 9.546,25.696 	"/>
	<polygon fill-rule="evenodd" clip-rule="evenodd" fill="#999999" points="22.096,24.918 15.892,25.537 10.085,25.717 
		15.893,25.934 22.492,25.58 25.605,22.426 25.528,21.057 25.079,22.239 	"/>
	<polygon fill-rule="evenodd" clip-rule="evenodd" fill="#FFFFFF" points="3.318,18.719 2.164,18.539 3.334,19.098 3.368,22.256 
		3.606,19.063 3.314,16.246 	"/>
	<ellipse fill-rule="evenodd" clip-rule="evenodd" fill="#999999" cx="7.867" cy="6.124" rx="0.831" ry="0.842"/>
	<ellipse fill-rule="evenodd" clip-rule="evenodd" fill="#999999" cx="13.851" cy="6.313" rx="0.44" ry="0.446"/>
	<ellipse fill-rule="evenodd" clip-rule="evenodd" fill="#999999" cx="9.714" cy="10.161" rx="0.475" ry="0.48"/>
	<circle fill-rule="evenodd" clip-rule="evenodd" fill="#999999" cx="23.207" cy="11.638" r="0.377"/>
	<ellipse fill-rule="evenodd" clip-rule="evenodd" fill="#999999" cx="21.563" cy="6.777" rx="0.661" ry="0.67"/>
	<ellipse fill-rule="evenodd" clip-rule="evenodd" fill="#999999" cx="19.58" cy="16.173" rx="1.017" ry="1.03"/>
	<circle fill-rule="evenodd" clip-rule="evenodd" fill="#999999" cx="6.292" cy="14.662" r="0.206"/>
	<ellipse fill-rule="evenodd" clip-rule="evenodd" fill="#999999" cx="12.105" cy="17.702" rx="0.593" ry="0.601"/>
	<ellipse fill-rule="evenodd" clip-rule="evenodd" fill="#999999" cx="6.02" cy="20.124" rx="0.881" ry="0.894"/>
	<ellipse fill-rule="evenodd" clip-rule="evenodd" fill="#999999" cx="20.614" cy="23.749" rx="0.594" ry="0.601"/>
	<circle fill-rule="evenodd" clip-rule="evenodd" fill="#999999" cx="16.308" cy="22.993" r="0.36"/>
	<g>
		<path fill-rule="evenodd" clip-rule="evenodd" fill="#666666" d="M10.403,10.075l8.956-1.723L19.153,7.28L15.73,7.938
			l-0.431,0.083V8.02l-0.561,0.108L12.911,8.48l-0.613,0.118l-0.378,0.072l-2.755,0.53l0.168,0.874H10.403L10.403,10.075z
			 M15.979,10.075h4.16h0.528v0.527v11.718v0.527h-0.528H8.916H8.388v-0.527V10.742l-0.357-1.86l-0.1-0.517l0.518-0.1L11.34,7.71
			c0.021-0.099,0.05-0.196,0.085-0.292l-0.002-0.001c0.088-0.235,0.219-0.458,0.386-0.659c0.186-0.224,0.42-0.421,0.691-0.577
			L12.5,6.179c0.257-0.148,0.546-0.259,0.856-0.318s0.619-0.064,0.91-0.022c0.306,0.044,0.598,0.141,0.857,0.282
			c0.227,0.124,0.432,0.283,0.602,0.471c0.068,0.075,0.131,0.155,0.187,0.239l3.56-0.685l0.517-0.1l0.1,0.518l0.405,2.106l0.1,0.517
			l-0.518,0.101L15.979,10.075L15.979,10.075z M19.612,11.131h-9.125l-1.043,0.201v10.461h10.168V11.131L19.612,11.131z
			 M11.238,11.281c-0.307,0-0.585,0.126-0.788,0.328h-0.002c-0.202,0.202-0.328,0.482-0.328,0.789v6.958
			c0,0.307,0.126,0.588,0.328,0.789c0.202,0.203,0.482,0.328,0.79,0.328l0,0c0.308,0,0.587-0.125,0.79-0.328v-0.002
			c0.202-0.203,0.328-0.482,0.328-0.787v-6.958c0-0.307-0.126-0.587-0.328-0.789C11.825,11.407,11.545,11.281,11.238,11.281
			L11.238,11.281L11.238,11.281z M14.528,11.281c-0.307,0-0.586,0.126-0.788,0.328h-0.002c-0.202,0.202-0.328,0.482-0.328,0.789
			v6.958c0,0.307,0.126,0.584,0.328,0.787l0.002,0.002c0.202,0.203,0.481,0.328,0.788,0.328c0.308,0,0.588-0.125,0.789-0.328v-0.002
			c0.203-0.203,0.328-0.482,0.328-0.787v-6.958c0-0.307-0.125-0.587-0.328-0.789C15.116,11.407,14.835,11.281,14.528,11.281
			L14.528,11.281z M17.893,11.281c-0.308,0-0.588,0.126-0.79,0.328s-0.328,0.482-0.328,0.789v6.958c0,0.307,0.126,0.588,0.328,0.789
			h0.001c0.203,0.203,0.482,0.328,0.789,0.328l0,0c0.306,0,0.585-0.125,0.788-0.328h0.001c0.202-0.201,0.328-0.482,0.328-0.789
			v-6.958c0-0.307-0.126-0.587-0.328-0.789S18.201,11.281,17.893,11.281L17.893,11.281L17.893,11.281z M12.351,8.588l-0.054,0.011
			L12.351,8.588z"/>
	</g>
	<linearGradient id="SVGID_1_" gradientUnits="userSpaceOnUse" x1="14.3438" y1="23.8274" x2="14.3437" y2="4.6421">
		<stop  offset="0" style="stop-color:#000000"/>
		<stop  offset="1" style="stop-color:#464748"/>
	</linearGradient>
	<path fill-rule="evenodd" clip-rule="evenodd" fill="url(#SVGID_1_)" d="M10.443,10.602l9.533-1.832l-0.405-2.106l-3.939,0.758
		c-0.139-0.359-0.41-0.648-0.76-0.839c-0.399-0.218-0.903-0.303-1.417-0.204c-0.513,0.099-0.949,0.364-1.239,0.715
		c-0.255,0.307-0.399,0.676-0.395,1.06l-3.272,0.63l0.367,1.914v11.624h11.224V10.602H10.443L10.443,10.602z M11.238,11.808
		L11.238,11.808c0.325,0,0.59,0.266,0.59,0.59v6.958c0,0.324-0.265,0.59-0.59,0.59l0,0c-0.324,0-0.591-0.266-0.591-0.59v-6.958
		C10.647,12.074,10.914,11.808,11.238,11.808L11.238,11.808z M14.528,11.808L14.528,11.808c0.324,0,0.59,0.266,0.59,0.59v6.958
		c0,0.324-0.266,0.59-0.59,0.59l0,0c-0.325,0-0.591-0.266-0.591-0.59v-6.958C13.937,12.074,14.203,11.808,14.528,11.808
		L14.528,11.808z M17.893,11.808L17.893,11.808c0.324,0,0.59,0.266,0.59,0.59v6.958c0,0.324-0.266,0.59-0.59,0.59l0,0
		c-0.325,0-0.59-0.266-0.59-0.59v-6.958C17.303,12.074,17.568,11.808,17.893,11.808L17.893,11.808z M14.639,7.612l-1.827,0.351
		c0.028-0.09,0.077-0.177,0.143-0.256c0.151-0.184,0.392-0.325,0.683-0.382c0.29-0.056,0.566-0.013,0.775,0.102
		C14.503,7.476,14.581,7.538,14.639,7.612z"/>
	<polygon fill-rule="evenodd" clip-rule="evenodd" fill="#FFFFFF" points="20.667,22.848 20.139,22.848 12.03,22.848 11.628,23.143 
		20.995,23.162 21.023,20.451 20.667,20.377 20.667,22.321 	"/>
	<polygon fill-rule="evenodd" clip-rule="evenodd" fill="#FFFFFF" points="18.474,9.594 17.975,9.894 20.925,9.426 20.155,6.914 
		20.493,8.671 20.591,9.187 20.075,9.287 	"/>
</g>
</svg>
