<?xml version="1.0" encoding="utf-8"?>
<!-- Generator: Adobe Illustrator 15.0.0, SVG Export Plug-In . SVG Version: 6.00 Build 0)  -->
<!DOCTYPE svg PUBLIC "-//W3C//DTD SVG 1.1//EN" "http://www.w3.org/Graphics/SVG/1.1/DTD/svg11.dtd">
<svg version="1.1" id="Layer_1" xmlns="http://www.w3.org/2000/svg" xmlns:xlink="http://www.w3.org/1999/xlink" x="0px" y="0px"
	 width="28.925px" height="28.973px" viewBox="0 0 28.925 28.973" enable-background="new 0 0 28.925 28.973" xml:space="preserve">
<g>
	
		<polygon fill-rule="evenodd" clip-rule="evenodd" fill="none" stroke="#666666" stroke-width="2.1223" stroke-miterlimit="22.9256" points="
		18.82,1.359 23.81,1.087 27.456,4.782 27.862,8.994 27.429,18.382 26.952,18.813 27.393,19.157 27.37,19.663 27.375,19.919 
		26.206,20.581 27.405,21.36 27.456,23.778 23.81,27.474 12.789,27.886 10.305,27.753 9.488,27.118 9.187,27.692 8.441,27.653 
		8.173,27.247 7.582,27.608 5.065,27.474 1.419,23.778 1.723,18.409 1.159,11.296 1.26,11.285 1.85,10.705 1.071,10.199 
		1.064,10.111 1.419,4.782 5.065,1.087 11.162,1.775 16.97,1.459 18.138,2.012 18.8,1.454 	"/>
	<path fill-rule="evenodd" clip-rule="evenodd" fill="#808080" d="M5.065,1.087l6.097,0.688l5.809-0.315l1.216,2.923l0.634-3.023
		l4.99-0.271l3.646,3.694l0.406,4.212l-0.433,9.388l-4.532,1.117l4.496-0.342l-0.023,0.506l0.006,0.256l-5.326,0.576l5.355,0.865
		l0.051,2.418l-3.646,3.695l-11.021,0.412l-2.483-0.133L9.338,26.13l-0.151,1.563l-0.746-0.039l0.186-1.627l-1.045,1.582
		l-2.517-0.135l-3.646-3.695l0.304-5.369l-0.564-7.113l4.11-0.49l-4.198-0.607l-0.007-0.088l0.355-5.329L5.065,1.087z"/>
	<polygon fill-rule="evenodd" clip-rule="evenodd" fill="#B3B3B3" points="22.492,3.041 18.37,3.504 18.186,4.382 17.845,3.564 
		17.284,3.626 6.478,3.041 3.364,6.196 3.016,9.793 3.048,10.485 5.269,10.806 3.075,11.068 3.436,18.909 3.364,22.425 
		6.478,25.581 15.893,25.933 22.492,25.581 25.606,22.425 25.528,21.058 22.049,20.495 25.475,20.124 25.429,19.306 22.897,19.499 
		25.405,18.88 25.346,17.839 25.91,10.749 25.606,6.196 	"/>
	<polygon fill-rule="evenodd" clip-rule="evenodd" fill="#666666" points="8.441,27.653 8.626,26.026 7.582,27.608 8.173,27.247 	
		"/>
	<polygon fill-rule="evenodd" clip-rule="evenodd" fill="#666666" points="9.338,26.13 9.187,27.692 9.488,27.118 10.305,27.753 	
		"/>
	<polygon fill-rule="evenodd" clip-rule="evenodd" fill="#666666" points="22.049,20.495 25.528,21.058 27.405,21.36 26.206,20.581 
		27.375,19.919 25.475,20.124 	"/>
	<polygon fill-rule="evenodd" clip-rule="evenodd" fill="#666666" points="25.429,19.306 27.393,19.157 26.952,18.813 
		27.429,18.382 25.405,18.88 22.897,19.499 	"/>
	<polygon fill-rule="evenodd" clip-rule="evenodd" fill="#666666" points="18.37,3.504 18.8,1.454 18.138,2.012 16.97,1.459 
		17.845,3.564 18.186,4.382 	"/>
	<polygon fill-rule="evenodd" clip-rule="evenodd" fill="#666666" points="5.269,10.806 3.048,10.485 1.071,10.199 1.85,10.705 
		1.26,11.285 3.075,11.068 	"/>
	<polygon fill-rule="evenodd" clip-rule="evenodd" fill="#666666" points="12.628,13.174 18.151,9.164 17.894,3.681 18.532,2.733 
		18.411,9.231 18.411,9.299 18.356,9.338 13.431,13.483 17.438,19.282 24.145,20.269 22.889,20.63 22.049,20.495 17.538,19.95 
		11.072,23.163 9.694,26.728 9.338,26.13 10.842,22.979 10.86,22.946 10.894,22.927 17.167,19.36 12.573,13.431 3.534,11.013 
		5.269,10.806 	"/>
	<polygon fill-rule="evenodd" clip-rule="evenodd" fill="#CCCCCC" points="6.478,3.041 17.284,3.626 17.845,3.564 16.97,1.459 
		11.162,1.775 5.065,1.087 	"/>
	<polygon fill-rule="evenodd" clip-rule="evenodd" fill="#CCCCCC" points="18.8,1.454 18.532,2.733 18.518,3.488 22.492,3.041 
		23.81,1.087 18.82,1.359 	"/>
	<polygon fill-rule="evenodd" clip-rule="evenodd" fill="#D6D6D6" points="6.478,3.041 5.065,1.087 1.419,4.782 3.364,6.196 	"/>
	<polygon fill-rule="evenodd" clip-rule="evenodd" fill="#D6D6D6" points="22.492,3.041 25.606,6.196 27.456,4.782 23.81,1.087 	"/>
	<polygon fill-rule="evenodd" clip-rule="evenodd" fill="#A3A3A3" points="27.456,4.782 25.606,6.196 25.91,10.749 27.862,8.994 	
		"/>
	<polygon fill-rule="evenodd" clip-rule="evenodd" fill="#A3A3A3" points="3.016,9.793 3.364,6.196 1.419,4.782 1.064,10.111 
		1.071,10.199 3.048,10.485 	"/>
	<polygon fill-rule="evenodd" clip-rule="evenodd" fill="#999999" points="3.075,11.068 1.26,11.285 1.159,11.296 1.723,18.409 
		3.436,18.909 	"/>
	<polygon fill-rule="evenodd" clip-rule="evenodd" fill="#999999" points="25.91,10.749 25.346,17.839 27.429,18.382 27.862,8.994 	
		"/>
	<polygon fill-rule="evenodd" clip-rule="evenodd" fill="#A3A3A3" points="3.364,22.425 3.436,18.909 1.723,18.409 1.419,23.778 	
		"/>
	<polygon fill-rule="evenodd" clip-rule="evenodd" fill="#8D8D8D" points="3.364,22.425 1.419,23.778 5.065,27.474 6.478,25.581 	
		"/>
	<polygon fill-rule="evenodd" clip-rule="evenodd" fill="#757575" points="15.893,25.933 12.789,27.886 23.81,27.474 22.492,25.581 
			"/>
	<polygon fill-rule="evenodd" clip-rule="evenodd" fill="#8D8D8D" points="25.606,22.425 22.492,25.581 23.81,27.474 27.456,23.778 
			"/>
	<polygon fill-rule="evenodd" clip-rule="evenodd" fill="#A3A3A3" points="25.606,22.425 27.456,23.778 27.405,21.36 25.528,21.058 
			"/>
	<polygon fill-rule="evenodd" clip-rule="evenodd" fill="#A3A3A3" points="25.475,20.124 27.375,19.919 27.37,19.663 27.393,19.157 
		25.429,19.306 	"/>
	<polygon fill-rule="evenodd" clip-rule="evenodd" fill="#A3A3A3" points="25.405,18.88 27.429,18.382 25.346,17.839 	"/>
	<polygon fill-rule="evenodd" clip-rule="evenodd" fill="#FFFFFF" points="3.367,5.983 1.758,5.028 3.18,6.326 3.038,10.243 
		3.519,6.292 6.519,3.268 13.521,3.422 6.621,2.908 5.554,1.763 6.248,3.045 	"/>
	<polygon fill-rule="evenodd" clip-rule="evenodd" fill="#FFFFFF" points="22.486,3.235 19.004,3.433 22.317,2.891 23.504,1.541 
		22.741,3.011 25.605,5.915 26.951,5.167 25.774,6.309 25.899,10.373 27.625,9.206 25.91,10.749 25.606,14.581 25.74,10.682 
		25.469,6.327 	"/>
	<path fill-rule="evenodd" clip-rule="evenodd" fill="#FFFFFF" d="M18.411,9.299l-1.275,1.071l0,0
		c-0.703,0.59-1.406,1.18-2.109,1.771v0.002l0.519,2.153l-0.293-1.989l1.956-1.654c1.758,0.392,3.524,0.954,5.101-1.752
		l-0.676,0.775c-1.22,1.398-2.664,1.105-4.148,0.771l1.394-1.03l-0.396-3.986L18.411,9.299z"/>
	<polygon fill-rule="evenodd" clip-rule="evenodd" fill="#FFFFFF" points="3.534,11.013 1.441,11.263 3.401,11.206 12.201,13.792 
		16.68,18.731 12.573,13.431 	"/>
	<polygon fill-rule="evenodd" clip-rule="evenodd" fill="#FFFFFF" points="10.986,23.341 10.383,24.946 11.318,23.489 
		17.759,20.259 24.727,20.929 17.538,19.95 	"/>
	<polygon fill-rule="evenodd" clip-rule="evenodd" fill="#FFFFFF" points="22.897,19.499 27.393,19.157 27.379,19.452 	"/>
	<path fill-rule="evenodd" clip-rule="evenodd" fill="#999999" d="M5.269,10.806l-1.376-0.199l1.947-0.086l6.39,1.684L12.53,12
		l-1.579-5.886L12.2,5.595c2.185-0.715,4.096-0.489,5.629,1.029l0.16-0.925l0.162,3.464l-5.522,4.011L5.269,10.806z"/>
	<polygon fill-rule="evenodd" clip-rule="evenodd" fill="#999999" points="17.438,19.282 13.95,14.234 18.01,18.733 24.112,19.851 
		27.375,19.919 23.762,20.31 	"/>
	<polygon fill-rule="evenodd" clip-rule="evenodd" fill="#999999" points="10.842,22.979 17.167,19.36 10.315,22.444 8.688,24.987 
		6.739,25.228 3.773,22.839 6.478,25.581 9.546,25.696 	"/>
	<polygon fill-rule="evenodd" clip-rule="evenodd" fill="#999999" points="22.096,24.919 15.893,25.538 10.085,25.716 
		15.893,25.933 22.492,25.581 25.606,22.425 25.528,21.058 25.079,22.239 	"/>
	<polygon fill-rule="evenodd" clip-rule="evenodd" fill="#FFFFFF" points="3.318,18.718 2.164,18.538 3.334,19.097 3.368,22.257 
		3.606,19.062 3.314,16.245 	"/>
	<ellipse fill-rule="evenodd" clip-rule="evenodd" fill="#999999" cx="7.867" cy="6.124" rx="0.831" ry="0.842"/>
	<ellipse fill-rule="evenodd" clip-rule="evenodd" fill="#999999" cx="13.851" cy="6.313" rx="0.44" ry="0.447"/>
	<ellipse fill-rule="evenodd" clip-rule="evenodd" fill="#999999" cx="9.714" cy="10.161" rx="0.475" ry="0.48"/>
	<ellipse fill-rule="evenodd" clip-rule="evenodd" fill="#999999" cx="23.208" cy="11.638" rx="0.372" ry="0.377"/>
	<ellipse fill-rule="evenodd" clip-rule="evenodd" fill="#999999" cx="21.563" cy="6.777" rx="0.661" ry="0.67"/>
	<ellipse fill-rule="evenodd" clip-rule="evenodd" fill="#999999" cx="19.58" cy="16.173" rx="1.017" ry="1.031"/>
	<circle fill-rule="evenodd" clip-rule="evenodd" fill="#999999" cx="6.292" cy="14.662" r="0.206"/>
	<ellipse fill-rule="evenodd" clip-rule="evenodd" fill="#999999" cx="12.105" cy="17.702" rx="0.593" ry="0.602"/>
	<ellipse fill-rule="evenodd" clip-rule="evenodd" fill="#999999" cx="6.02" cy="20.124" rx="0.881" ry="0.893"/>
	<ellipse fill-rule="evenodd" clip-rule="evenodd" fill="#999999" cx="20.614" cy="23.749" rx="0.594" ry="0.602"/>
	<ellipse fill-rule="evenodd" clip-rule="evenodd" fill="#999999" cx="16.309" cy="22.993" rx="0.355" ry="0.361"/>
	<path fill-rule="evenodd" clip-rule="evenodd" fill="#666666" d="M11.856,15.915c0.518,0,1.02,0.051,1.492,0.146
		c0.161,0.031,0.319,0.068,0.475,0.111c-0.309-1.268-0.66-2.731-1.012-4.197c-0.405-1.688-0.813-3.385-1.239-5.121l-0.118-0.482
		l0.483-0.118l0.419-0.103c2.768-1.343,4.37-0.071,5.964,1.192c0.923,0.731,1.844,1.461,2.961,1.512l1.027,0.046l-0.676,0.775
		c-1.243,1.427-2.722,1.093-4.237,0.752c-0.969-0.219-1.958-0.442-2.8-0.072l1.753,7.285c0.222,0.252,0.399,0.527,0.526,0.82
		c0.144,0.33,0.22,0.68,0.22,1.035c0,1.029-0.617,1.947-1.615,2.598c-0.936,0.607-2.217,0.984-3.623,0.984
		c-1.405,0-2.688-0.377-3.623-0.984c-0.998-0.65-1.615-1.566-1.615-2.598c0-1.029,0.617-1.947,1.615-2.598
		C9.168,16.292,10.451,15.915,11.856,15.915L11.856,15.915z M13.154,17.036c-0.408-0.082-0.844-0.127-1.298-0.127
		c-1.213,0-2.302,0.314-3.082,0.822c-0.718,0.467-1.162,1.092-1.162,1.766s0.444,1.299,1.162,1.766
		c0.78,0.508,1.869,0.822,3.082,0.822s2.303-0.314,3.083-0.822c0.718-0.467,1.161-1.092,1.161-1.766
		c0-0.225-0.047-0.441-0.135-0.643c-0.095-0.219-0.241-0.432-0.429-0.631l-0.089-0.096l-0.031-0.129l-1.873-7.781l-0.081-0.34
		l0.293-0.19c1.251-0.814,2.567-0.517,3.857-0.227c0.858,0.194,1.702,0.385,2.426,0.142c-0.869-0.319-1.602-0.9-2.337-1.482
		c-1.357-1.076-2.723-2.159-4.956-1.056l-0.047,0.023l-0.046,0.011c0.321,1.315,0.722,2.982,1.121,4.648
		c0.414,1.724,0.828,3.447,1.229,5.082l0.24,0.98l-0.922-0.41C13.968,17.245,13.576,17.12,13.154,17.036z"/>
	<path fill-rule="evenodd" clip-rule="evenodd" fill="#CCCCCC" d="M11.856,16.413c0.988,0,1.906,0.197,2.665,0.533
		c-0.757-3.087-1.706-7.106-2.468-10.21l0.473-0.115c4.191-2.071,5.533,2.586,8.733,2.73c-1.962,2.25-4.919-0.755-7.234,0.752
		l1.872,7.781c0.444,0.469,0.701,1.021,0.701,1.613c0,1.705-2.123,3.086-4.742,3.086c-2.618,0-4.741-1.381-4.741-3.086
		C7.115,17.794,9.238,16.413,11.856,16.413z"/>
	<path fill-rule="evenodd" clip-rule="evenodd" fill="#FFFFFF" d="M10.986,23.341c2.717,0.336,5.899-1.029,6.286-3.258l-0.282,0.141
		c-0.216,0.732-0.753,1.379-1.511,1.871c-0.936,0.607-2.217,0.984-3.623,0.984c-0.259,0-0.513-0.012-0.762-0.037L10.986,23.341z"/>
	<path fill-rule="evenodd" clip-rule="evenodd" fill="#FFFFFF" d="M7.089,20.997c0.764,1.301,2.141,2.082,3.583,2.34l0.155-0.326
		c-0.953-0.143-1.919-0.477-2.595-0.916C7.756,21.784,7.367,21.413,7.089,20.997z"/>
</g>
</svg>
