<?xml version="1.0" encoding="utf-8"?>
<!-- Generator: Adobe Illustrator 15.0.0, SVG Export Plug-In . SVG Version: 6.00 Build 0)  -->
<!DOCTYPE svg PUBLIC "-//W3C//DTD SVG 1.1//EN" "http://www.w3.org/Graphics/SVG/1.1/DTD/svg11.dtd">
<svg version="1.1" id="Layer_1" xmlns="http://www.w3.org/2000/svg" xmlns:xlink="http://www.w3.org/1999/xlink" x="0px" y="0px"
	 width="28.924px" height="28.972px" viewBox="0 0 28.924 28.972" enable-background="new 0 0 28.924 28.972" xml:space="preserve">
<g>
	
		<polygon fill-rule="evenodd" clip-rule="evenodd" fill="none" stroke="#666666" stroke-width="2.1223" stroke-miterlimit="22.9256" points="
		18.819,1.358 23.809,1.087 27.455,4.781 27.861,8.993 27.428,18.382 26.951,18.812 27.392,19.157 27.369,19.663 27.375,19.919 
		26.205,20.581 27.404,21.36 27.455,23.778 23.809,27.474 12.789,27.884 10.304,27.753 9.487,27.118 9.187,27.692 8.441,27.653 
		8.173,27.247 7.581,27.606 5.065,27.474 1.419,23.778 1.723,18.409 1.158,11.296 1.259,11.284 1.849,10.704 1.071,10.198 
		1.063,10.11 1.419,4.781 5.065,1.087 11.162,1.774 16.969,1.458 18.137,2.011 18.799,1.453 	"/>
	<path fill-rule="evenodd" clip-rule="evenodd" fill="#808080" d="M5.065,1.087l6.097,0.687l5.808-0.315l1.216,2.923l0.634-3.023
		l4.99-0.271l3.646,3.693l0.406,4.212l-0.433,9.389l-4.532,1.115l4.496-0.34l-0.023,0.506l0.006,0.256l-5.326,0.574l5.355,0.867
		l0.051,2.418l-3.646,3.695l-11.021,0.41l-2.484-0.131L9.338,26.13l-0.151,1.563l-0.746-0.039l0.185-1.627l-1.045,1.58l-2.516-0.133
		l-3.646-3.695l0.304-5.369l-0.565-7.113l4.111-0.491l-4.198-0.607L1.063,10.11l0.356-5.329L5.065,1.087z"/>
	<polygon fill-rule="evenodd" clip-rule="evenodd" fill="#B3B3B3" points="22.491,3.04 18.369,3.503 18.185,4.381 17.844,3.563 
		17.283,3.626 6.477,3.04 3.364,6.196 3.016,9.792 3.048,10.484 5.269,10.805 3.075,11.068 3.436,18.909 3.364,22.425 6.477,25.581 
		15.892,25.933 22.491,25.581 25.605,22.425 25.527,21.056 22.048,20.493 25.474,20.124 25.428,19.306 22.896,19.497 25.404,18.88 
		25.345,17.837 25.909,10.748 25.605,6.196 	"/>
	<polygon fill-rule="evenodd" clip-rule="evenodd" fill="#666666" points="8.441,27.653 8.625,26.026 7.581,27.606 8.173,27.247 	
		"/>
	<polygon fill-rule="evenodd" clip-rule="evenodd" fill="#666666" points="9.338,26.13 9.187,27.692 9.487,27.118 10.304,27.753 	
		"/>
	<polygon fill-rule="evenodd" clip-rule="evenodd" fill="#666666" points="22.048,20.493 25.527,21.056 27.404,21.36 26.205,20.581 
		27.375,19.919 25.474,20.124 	"/>
	<polygon fill-rule="evenodd" clip-rule="evenodd" fill="#666666" points="25.428,19.306 27.392,19.157 26.951,18.812 
		27.428,18.382 25.404,18.88 22.896,19.497 	"/>
	<polygon fill-rule="evenodd" clip-rule="evenodd" fill="#666666" points="18.369,3.503 18.799,1.453 18.137,2.011 16.969,1.458 
		17.844,3.563 18.185,4.381 	"/>
	<polygon fill-rule="evenodd" clip-rule="evenodd" fill="#666666" points="5.269,10.805 3.048,10.484 1.071,10.198 1.849,10.704 
		1.259,11.284 3.075,11.068 	"/>
	<polygon fill-rule="evenodd" clip-rule="evenodd" fill="#666666" points="12.627,13.173 18.15,9.163 17.893,3.68 18.531,2.733 
		18.41,9.231 18.41,9.298 18.355,9.337 13.43,13.483 17.437,19.282 24.144,20.269 22.888,20.63 22.048,20.493 17.537,19.95 
		11.072,23.163 9.694,26.728 9.338,26.13 10.842,22.979 10.86,22.946 10.893,22.927 17.166,19.36 12.572,13.43 3.533,11.013 
		5.269,10.805 	"/>
	<polygon fill-rule="evenodd" clip-rule="evenodd" fill="#CCCCCC" points="6.477,3.04 17.283,3.626 17.844,3.563 16.969,1.458 
		11.162,1.774 5.065,1.087 	"/>
	<polygon fill-rule="evenodd" clip-rule="evenodd" fill="#CCCCCC" points="18.799,1.453 18.531,2.733 18.517,3.487 22.491,3.04 
		23.809,1.087 18.819,1.358 	"/>
	<polygon fill-rule="evenodd" clip-rule="evenodd" fill="#D6D6D6" points="6.477,3.04 5.065,1.087 1.419,4.781 3.364,6.196 	"/>
	<polygon fill-rule="evenodd" clip-rule="evenodd" fill="#D6D6D6" points="22.491,3.04 25.605,6.196 27.455,4.781 23.809,1.087 	"/>
	<polygon fill-rule="evenodd" clip-rule="evenodd" fill="#A3A3A3" points="27.455,4.781 25.605,6.196 25.909,10.748 27.861,8.993 	
		"/>
	<polygon fill-rule="evenodd" clip-rule="evenodd" fill="#A3A3A3" points="3.016,9.792 3.364,6.196 1.419,4.781 1.063,10.11 
		1.071,10.198 3.048,10.484 	"/>
	<polygon fill-rule="evenodd" clip-rule="evenodd" fill="#999999" points="3.075,11.068 1.259,11.284 1.158,11.296 1.723,18.409 
		3.436,18.909 	"/>
	<polygon fill-rule="evenodd" clip-rule="evenodd" fill="#999999" points="25.909,10.748 25.345,17.837 27.428,18.382 27.861,8.993 
			"/>
	<polygon fill-rule="evenodd" clip-rule="evenodd" fill="#A3A3A3" points="3.364,22.425 3.436,18.909 1.723,18.409 1.419,23.778 	
		"/>
	<polygon fill-rule="evenodd" clip-rule="evenodd" fill="#8D8D8D" points="3.364,22.425 1.419,23.778 5.065,27.474 6.477,25.581 	
		"/>
	<polygon fill-rule="evenodd" clip-rule="evenodd" fill="#757575" points="15.892,25.933 12.789,27.884 23.809,27.474 
		22.491,25.581 	"/>
	<polygon fill-rule="evenodd" clip-rule="evenodd" fill="#8D8D8D" points="25.605,22.425 22.491,25.581 23.809,27.474 
		27.455,23.778 	"/>
	<polygon fill-rule="evenodd" clip-rule="evenodd" fill="#A3A3A3" points="25.605,22.425 27.455,23.778 27.404,21.36 25.527,21.056 
			"/>
	<polygon fill-rule="evenodd" clip-rule="evenodd" fill="#A3A3A3" points="25.474,20.124 27.375,19.919 27.369,19.663 
		27.392,19.157 25.428,19.306 	"/>
	<polygon fill-rule="evenodd" clip-rule="evenodd" fill="#A3A3A3" points="25.404,18.88 27.428,18.382 25.345,17.837 	"/>
	<polygon fill-rule="evenodd" clip-rule="evenodd" fill="#FFFFFF" points="3.366,5.982 1.758,5.028 3.179,6.325 3.037,10.242 
		3.518,6.292 6.519,3.267 13.52,3.422 6.621,2.907 5.554,1.763 6.248,3.044 	"/>
	<polygon fill-rule="evenodd" clip-rule="evenodd" fill="#FFFFFF" points="22.485,3.234 19.003,3.432 22.316,2.89 23.503,1.54 
		22.74,3.01 25.604,5.914 26.95,5.167 25.773,6.308 25.898,10.372 27.625,9.205 25.909,10.748 25.605,14.579 25.739,10.682 
		25.468,6.326 	"/>
	<polygon fill-rule="evenodd" clip-rule="evenodd" fill="#FFFFFF" points="18.41,9.298 13.806,13.167 18.876,9.417 18.48,5.431 	"/>
	<polygon fill-rule="evenodd" clip-rule="evenodd" fill="#FFFFFF" points="11.072,23.163 10.382,24.944 11.318,23.487 
		17.758,20.259 24.726,20.927 22.048,20.493 17.537,19.95 	"/>
	<polygon fill-rule="evenodd" clip-rule="evenodd" fill="#FFFFFF" points="22.896,19.497 27.392,19.157 27.378,19.452 	"/>
	<polygon fill-rule="evenodd" clip-rule="evenodd" fill="#999999" points="5.269,10.805 3.893,10.607 5.839,10.52 6.957,10.814 
		7.134,9.238 12.56,9.245 12.544,10.136 18.001,5.979 18.15,9.163 12.627,13.173 	"/>
	<polygon fill-rule="evenodd" clip-rule="evenodd" fill="#999999" points="17.437,19.282 13.949,14.234 18.009,18.733 
		24.111,19.849 27.375,19.919 23.761,20.31 	"/>
	<polygon fill-rule="evenodd" clip-rule="evenodd" fill="#999999" points="10.842,22.979 17.166,19.36 10.314,22.444 8.688,24.985 
		6.738,25.226 3.772,22.839 6.477,25.581 9.545,25.694 	"/>
	<polygon fill-rule="evenodd" clip-rule="evenodd" fill="#999999" points="22.095,24.917 15.892,25.536 10.084,25.716 
		15.892,25.933 22.491,25.581 25.605,22.425 25.527,21.056 25.078,22.237 	"/>
	<polygon fill-rule="evenodd" clip-rule="evenodd" fill="#FFFFFF" points="3.317,18.718 2.163,18.538 3.334,19.097 3.367,22.255 
		3.606,19.062 3.313,16.245 	"/>
	<ellipse fill-rule="evenodd" clip-rule="evenodd" fill="#999999" cx="7.867" cy="6.123" rx="0.83" ry="0.841"/>
	<ellipse fill-rule="evenodd" clip-rule="evenodd" fill="#999999" cx="13.85" cy="6.313" rx="0.44" ry="0.447"/>
	<ellipse fill-rule="evenodd" clip-rule="evenodd" fill="#999999" cx="9.714" cy="10.16" rx="0.474" ry="0.481"/>
	<ellipse fill-rule="evenodd" clip-rule="evenodd" fill="#999999" cx="23.207" cy="11.637" rx="0.372" ry="0.378"/>
	<ellipse fill-rule="evenodd" clip-rule="evenodd" fill="#999999" cx="21.562" cy="6.776" rx="0.661" ry="0.67"/>
	<ellipse fill-rule="evenodd" clip-rule="evenodd" fill="#999999" cx="19.579" cy="16.172" rx="1.017" ry="1.03"/>
	<circle fill-rule="evenodd" clip-rule="evenodd" fill="#999999" cx="6.291" cy="14.66" r="0.206"/>
	<ellipse fill-rule="evenodd" clip-rule="evenodd" fill="#999999" cx="12.105" cy="17.701" rx="0.593" ry="0.601"/>
	<ellipse fill-rule="evenodd" clip-rule="evenodd" fill="#999999" cx="6.019" cy="20.123" rx="0.882" ry="0.894"/>
	<ellipse fill-rule="evenodd" clip-rule="evenodd" fill="#999999" cx="20.613" cy="23.748" rx="0.594" ry="0.601"/>
	<circle fill-rule="evenodd" clip-rule="evenodd" fill="#999999" cx="16.308" cy="22.992" r="0.36"/>
	<path fill-rule="evenodd" clip-rule="evenodd" fill="#666666" d="M7.91,9.75h3.779h0.516v0.516v0.496l6.775-5.11l0.824-0.622v1.032
		v5.609l0.119,0.048c0.574,0.229,1.063,0.627,1.405,1.131c0.333,0.492,0.528,1.084,0.528,1.718c0,0.635-0.195,1.227-0.528,1.719
		c-0.342,0.504-0.831,0.902-1.405,1.131l-0.119,0.047v4.885v1.033l-0.824-0.623l-6.775-5.109v0.578v0.516h-0.516H7.91H7.394v-0.516
		v-7.962V9.75H7.91L7.91,9.75z M11.174,10.78h-2.75v6.932h2.75V10.78L11.174,10.78z M20.48,13.424
		c-0.068-0.102-0.146-0.195-0.23-0.282v2.851c0.084-0.088,0.162-0.182,0.23-0.283c0.219-0.322,0.348-0.717,0.348-1.143
		C20.828,14.141,20.699,13.748,20.48,13.424L20.48,13.424z M18.775,7.093l-6.057,4.568c-0.023,0.908-0.036,1.704-0.036,2.544
		c0,0.838,0.013,1.635,0.036,2.543l6.057,4.568V7.093z"/>
	<path fill-rule="evenodd" clip-rule="evenodd" fill="#CCCCCC" d="M7.91,10.265h3.779v7.962H7.91V10.265L7.91,10.265z
		 M19.734,12.195c0.943,0.376,1.608,1.296,1.608,2.373c0,1.076-0.665,1.996-1.608,2.373V12.195L19.734,12.195z M12.212,11.4
		l7.077-5.339c0,5.43,0,10.86,0,16.288l-7.077-5.338C12.153,14.882,12.153,13.528,12.212,11.4z"/>
	<polygon fill-rule="evenodd" clip-rule="evenodd" fill="#FFFFFF" points="7.067,19.11 12.205,18.743 7.394,18.743 7.394,12.045 
		3.533,11.013 1.44,11.262 3.401,11.205 7.022,12.459 	"/>
	<polygon fill-rule="evenodd" clip-rule="evenodd" fill="#FFFFFF" points="16.306,20.743 16.109,20.874 20.081,23.942 19.98,20.386 
		19.804,20.224 19.804,22.349 19.804,23.382 18.98,22.759 	"/>
	<path fill-rule="evenodd" clip-rule="evenodd" fill="#FFFFFF" d="M19.804,17.464v1.082l0.172-0.926
		c1.305-0.387,1.919-1.344,1.875-2.846C21.662,16.038,21.074,17.005,19.804,17.464z"/>
</g>
</svg>
