<?xml version="1.0" encoding="utf-8"?>
<!-- Generator: Adobe Illustrator 14.0.0, SVG Export Plug-In . SVG Version: 6.00 Build 43363)  -->
<!DOCTYPE svg PUBLIC "-//W3C//DTD SVG 1.1//EN" "http://www.w3.org/Graphics/SVG/1.1/DTD/svg11.dtd">
<svg version="1.1" id="Layer_1" xmlns="http://www.w3.org/2000/svg" xmlns:xlink="http://www.w3.org/1999/xlink" x="0px" y="0px"
	 width="50px" height="50px" viewBox="0 0 50 50" enable-background="new 0 0 50 50" xml:space="preserve">
<g>
	<g>
		<g>
			<defs>
				<path id="SVGID_1_" d="M24.354,3.517c0.357-0.92,0.931-0.917,1.276,0.005l4.976,13.243c0.347,0.921,1.435,1.721,2.417,1.775
					l14.397,0.796c0.982,0.054,1.157,0.602,0.388,1.215l-11.058,8.823c-0.77,0.614-1.193,1.896-0.941,2.847l3.694,13.938
					c0.251,0.951-0.216,1.287-1.037,0.745l-11.806-7.788c-0.821-0.544-2.172-0.549-2.999-0.016l-12.116,7.817
					c-0.827,0.535-1.291,0.196-1.028-0.754l3.76-13.636c0.263-0.95-0.148-2.235-0.913-2.857L2.186,20.565
					c-0.764-0.623-0.584-1.168,0.4-1.212l14.128-0.639c0.984-0.045,2.079-0.833,2.436-1.752L24.354,3.517z"/>
			</defs>
			<clipPath id="SVGID_2_">
				<use xlink:href="#SVGID_1_"  overflow="visible"/>
			</clipPath>
		</g>
	</g>
	<g>
		<g>
			<g>
				<path fill="#666666" d="M10.873,48.883c-0.673,0-1.287-0.301-1.685-0.822c-0.325-0.427-0.644-1.18-0.32-2.354l3.76-13.635
					c0.082-0.299-0.105-0.88-0.345-1.075L1.105,21.892c-1.343-1.093-1.147-2.242-1-2.686c0.147-0.444,0.675-1.485,2.405-1.563
					l14.127-0.639c0.308-0.014,0.806-0.373,0.918-0.661l5.203-13.445c0.625-1.607,1.773-1.78,2.237-1.78
					c0.471,0,1.628,0.177,2.239,1.803l4.976,13.243c0.108,0.289,0.602,0.65,0.909,0.668l14.397,0.795
					c1.728,0.095,2.245,1.141,2.387,1.586c0.142,0.444,0.327,1.597-1.026,2.676l-11.059,8.823c-0.239,0.192-0.432,0.773-0.354,1.072
					l3.694,13.935c0.31,1.17-0.015,1.921-0.34,2.342c-0.71,0.929-2.062,1.088-3.295,0.27l-11.805-7.786
					c-0.194-0.128-0.938-0.129-1.128-0.007l-12.116,7.819C11.932,48.704,11.394,48.883,10.873,48.883L10.873,48.883z M5.36,20.941
					l9.085,7.401c1.286,1.048,1.924,3.042,1.481,4.641l-3.042,11.031l9.848-6.352c1.354-0.871,3.529-0.864,4.871,0.024l9.55,6.301
					L34.155,32.66c-0.423-1.604,0.232-3.592,1.528-4.624l8.947-7.139L32.93,20.248c-1.654-0.091-3.343-1.331-3.925-2.882
					L24.979,6.651l-4.232,10.93c-0.602,1.546-2.301,2.769-3.956,2.842L5.36,20.941L5.36,20.941z"/>
			</g>
		</g>
		<g>
			<g>
				<linearGradient id="SVGID_3_" gradientUnits="userSpaceOnUse" x1="25.0005" y1="47.1709" x2="25.0005" y2="2.8291">
					<stop  offset="0" style="stop-color:#FFC421"/>
					<stop  offset="0.2459" style="stop-color:#FBD123"/>
					<stop  offset="0.6893" style="stop-color:#F6E427"/>
					<stop  offset="1" style="stop-color:#F4EB28"/>
				</linearGradient>
				<path fill-rule="evenodd" clip-rule="evenodd" fill="url(#SVGID_3_)" d="M24.354,3.517c0.357-0.92,0.931-0.917,1.276,0.005
					l4.976,13.243c0.347,0.921,1.435,1.721,2.417,1.775l14.397,0.796c0.982,0.054,1.157,0.602,0.388,1.215l-11.058,8.823
					c-0.77,0.614-1.193,1.896-0.941,2.847l3.694,13.938c0.251,0.951-0.216,1.287-1.037,0.745l-11.806-7.788
					c-0.821-0.544-2.172-0.549-2.999-0.016l-12.116,7.817c-0.827,0.535-1.291,0.196-1.028-0.754l3.76-13.636
					c0.263-0.95-0.148-2.235-0.913-2.857L2.186,20.565c-0.764-0.623-0.584-1.168,0.4-1.212l14.128-0.639
					c0.984-0.045,2.079-0.833,2.436-1.752L24.354,3.517z"/>
			</g>
		</g>
		<g>
			<defs>
				<path id="SVGID_4_" d="M24.354,3.517c0.357-0.92,0.931-0.917,1.276,0.005l4.976,13.243c0.347,0.921,1.435,1.721,2.417,1.775
					l14.397,0.796c0.982,0.054,1.157,0.602,0.388,1.215l-11.058,8.823c-0.77,0.614-1.193,1.896-0.941,2.847l3.694,13.938
					c0.251,0.951-0.216,1.287-1.037,0.745l-11.806-7.788c-0.821-0.544-2.172-0.549-2.999-0.016l-12.116,7.817
					c-0.827,0.535-1.291,0.196-1.028-0.754l3.76-13.636c0.263-0.95-0.148-2.235-0.913-2.857L2.186,20.565
					c-0.764-0.623-0.584-1.168,0.4-1.212l14.128-0.639c0.984-0.045,2.079-0.833,2.436-1.752L24.354,3.517z"/>
			</defs>
			<clipPath id="SVGID_5_">
				<use xlink:href="#SVGID_4_"  overflow="visible"/>
			</clipPath>
		</g>
		<g>
			<g>
				<path fill-rule="evenodd" clip-rule="evenodd" fill="#FFFF1F" d="M6.42,19.18c-0.985,0.045-0.983,0.11,0,0.144l11.126,0.383
					c0.983,0.033,2.07-0.694,2.413-1.618l4.395-11.821c0.343-0.923,0.894-0.92,1.225,0.009l4.251,11.969
					c0.331,0.929,1.404,1.653,2.39,1.609l11.995-0.52c0.984-0.042,0.984-0.123,0.002-0.177L33.023,18.54
					c-0.982-0.054-2.07-0.854-2.417-1.775L25.631,3.522c-0.346-0.922-0.919-0.925-1.276-0.005L19.15,16.962
					c-0.357,0.92-1.452,1.707-2.436,1.752L6.42,19.18z"/>
			</g>
		</g>
		<g>
			<g>
				<path fill-rule="evenodd" clip-rule="evenodd" fill="#FFCC00" d="M15.594,30.654c0.362-0.917-0.026-2.09-0.864-2.607
					L2.32,20.376c-0.838-0.518-0.899-0.434-0.135,0.189l11.179,9.105c0.764,0.622,1.175,1.907,0.913,2.857l-0.839,3.047
					c-0.262,0.949-0.178,0.976,0.184,0.061L15.594,30.654z"/>
			</g>
		</g>
		<g>
			<g>
				<path fill-rule="evenodd" clip-rule="evenodd" fill="#FFCC00" d="M34.586,27.83c-0.854,0.491-1.203,1.617-0.776,2.506
					l2.567,5.336c0.426,0.889,0.569,0.836,0.317-0.117l-0.885-3.334c-0.252-0.951,0.172-2.232,0.941-2.847l11.058-8.823
					c0.77-0.614,0.7-0.715-0.153-0.226L34.586,27.83z"/>
			</g>
		</g>
		<g>
			<g>
				<path fill-rule="evenodd" clip-rule="evenodd" fill="#FFCC00" d="M38.467,46.903c0.821,0.542,0.907,0.436,0.188-0.24
					L26.389,35.161c-0.719-0.674-1.897-0.677-2.62-0.007L11.355,46.671c-0.722,0.669-0.636,0.781,0.191,0.246L23.662,39.1
					c0.827-0.533,2.178-0.528,2.999,0.016L38.467,46.903z"/>
			</g>
		</g>
		<g>
			<g>
				<path fill-rule="evenodd" clip-rule="evenodd" fill="#FFFFFF" d="M10.659,19.468c-0.983-0.033-0.988,0.023-0.009,0.126
					l7.419,0.776c0.979,0.103,2.051-0.572,2.382-1.499l3.858-10.819c0.331-0.929,0.876-0.93,1.213-0.003l4.02,11.051
					c0.337,0.925,1.413,1.595,2.393,1.488l9.094-0.999c0.979-0.107,0.977-0.159-0.009-0.117l-8.8,0.383
					c-0.985,0.042-2.059-0.682-2.39-1.611L25.579,6.276c-0.331-0.929-0.882-0.932-1.225-0.009l-4.395,11.821
					c-0.343,0.923-1.43,1.651-2.413,1.618L10.659,19.468z"/>
			</g>
		</g>
		<g>
			<g>
				<path fill-rule="evenodd" clip-rule="evenodd" fill="#FFFFFF" d="M15.594,30.654c0.362-0.917-0.026-2.09-0.864-2.607
					l-4.682-2.895c-0.838-0.518-0.81-0.567,0.061-0.108l5.441,2.861c0.871,0.458,1.226,1.556,0.789,2.438l-2.296,4.63
					c-0.437,0.881-0.498,0.854-0.136-0.062L15.594,30.654z"/>
			</g>
		</g>
	</g>
	<g>
		<g>
			<defs>
				<path id="SVGID_6_" d="M24.354,3.517c0.357-0.92,0.931-0.917,1.276,0.005l4.976,13.243c0.347,0.921,1.435,1.721,2.417,1.775
					l14.397,0.796c0.982,0.054,1.157,0.602,0.388,1.215l-11.058,8.823c-0.77,0.614-1.193,1.896-0.941,2.847l3.694,13.938
					c0.251,0.951-0.216,1.287-1.037,0.745l-11.806-7.788c-0.821-0.544-2.172-0.549-2.999-0.016l-12.116,7.817
					c-0.827,0.535-1.291,0.196-1.028-0.754l3.76-13.636c0.263-0.95-0.148-2.235-0.913-2.857L2.186,20.565
					c-0.764-0.623-0.584-1.168,0.4-1.212l14.128-0.639c0.984-0.045,2.079-0.833,2.436-1.752L24.354,3.517z"/>
			</defs>
			<clipPath id="SVGID_7_">
				<use xlink:href="#SVGID_6_"  overflow="visible"/>
			</clipPath>
		</g>
	</g>
</g>
</svg>
