<?xml version="1.0" encoding="utf-8"?>
<!-- Generator: Adobe Illustrator 15.0.0, SVG Export Plug-In . SVG Version: 6.00 Build 0)  -->
<!DOCTYPE svg PUBLIC "-//W3C//DTD SVG 1.1//EN" "http://www.w3.org/Graphics/SVG/1.1/DTD/svg11.dtd">
<svg version="1.1" id="Layer_1" xmlns="http://www.w3.org/2000/svg" xmlns:xlink="http://www.w3.org/1999/xlink" x="0px" y="0px"
	 width="64px" height="64px" viewBox="0 0 64 64" enable-background="new 0 0 64 64" xml:space="preserve">
<rect fill="#484848" width="64" height="64"/>
<rect x="2" y="2" fill="#5E5E5E" width="28" height="28"/>
<rect x="2" y="34" fill="#666666" width="28" height="28"/>
<rect x="2" y="2" fill="#484848" width="4" height="4"/>
<rect x="2" y="26" fill="#484848" width="4" height="4"/>
<rect x="26" y="2" fill="#484848" width="4" height="4"/>
<rect x="2" y="34" fill="#484848" width="4" height="4"/>
<rect x="2" y="58" fill="#484848" width="4" height="4"/>
<rect x="26" y="58" fill="#484848" width="4" height="4"/>
<rect x="34" y="2" fill="#7D7D7D" width="28" height="28"/>
<rect x="34" y="2" fill="#484848" width="4" height="4"/>
<rect x="58" y="26" fill="#484848" width="4" height="4"/>
<rect x="58" y="2" fill="#484848" width="4" height="4"/>
<rect x="34" y="34" fill="#595959" width="28" height="28"/>
<rect x="58" y="34" fill="#484848" width="4" height="4"/>
<rect x="34" y="58" fill="#484848" width="4" height="4"/>
<rect x="58" y="58" fill="#484848" width="4" height="4"/>
<rect x="25" y="25" transform="matrix(0.7071 -0.7071 0.7071 0.7071 -13.2548 32)" fill="#484848" width="14" height="14"/>
<rect opacity="0.7" fill="#748274" width="64" height="64"/>
</svg>
