<?xml version="1.0" encoding="utf-8"?>
<!-- Generator: Adobe Illustrator 15.0.0, SVG Export Plug-In . SVG Version: 6.00 Build 0)  -->
<!DOCTYPE svg PUBLIC "-//W3C//DTD SVG 1.1//EN" "http://www.w3.org/Graphics/SVG/1.1/DTD/svg11.dtd">
<svg version="1.1" id="Layer_1" xmlns="http://www.w3.org/2000/svg" xmlns:xlink="http://www.w3.org/1999/xlink" x="0px" y="0px"
	 width="64px" height="64px" viewBox="0 0 64 64" enable-background="new 0 0 64 64" xml:space="preserve">
<g>
	<g opacity="0.65">
		<rect x="0.5" y="31.5" fill="#D0D0D0" width="32" height="32"/>
		<path fill="#AFAFAF" d="M0.5,63.141c0.079,0.125,0.161,0.252,0.262,0.359h0.722c-0.369-0.551-0.698-1.129-0.983-1.729L0.5,63.141
			L0.5,63.141z"/>
		<path fill="#AFAFAF" d="M32.294,31.666c-0.063-0.063-0.136-0.116-0.211-0.166h-1.378c0.022,0.028,0.045,0.056,0.065,0.086
			c0.129,0.191,0.136,0.443,0.108,0.698c-0.024,0.223-0.074,0.448-0.092,0.639c0,0.007-0.001,0.013-0.001,0.019
			c-0.161,0.147-0.3,0.324-0.408,0.514c-0.266,0.466-0.38,1-0.481,1.525c-0.328,1.688-0.575,3.391-0.74,5.101
			c-0.303,0.506-0.663,0.978-1.073,1.399c-0.145,0.147-0.3,0.313-0.422,0.488l-2.013-6.261c-0.116-0.362-0.234-0.735-0.221-1.117
			c0.015-0.401,0.175-0.784,0.333-1.155l0.824-1.937h-0.509h-0.377h-0.217c-0.058,0.005-0.111,0.019-0.152,0.052
			c-0.054,0.043-0.083,0.107-0.129,0.157c-0.059,0.062-0.129,0.113-0.191,0.17c-0.129,0.119-0.254,0.244-0.364,0.381
			c-0.172,0.213-0.31,0.459-0.363,0.728c-0.024,0.119-0.031,0.242-0.039,0.363c-0.004,0.082-0.009,0.164-0.014,0.244
			c-0.009,0.153,0.07,0.262,0.063,0.41c-0.004,0.107-0.005,0.215-0.006,0.322c-0.001,0.045-0.016,0.578,0.031,0.578
			c-0.74,0.006-1.481-0.205-2.157-0.521c-0.674-0.313-1.397-0.639-1.931-1.172c-0.252-0.252-0.501-0.578-0.533-0.946
			c-0.009-0.109,0.123-0.47,0.073-0.543c-0.114-0.169-0.552-0.069-0.745-0.063c-0.01-0.042-0.019-0.083-0.029-0.123
			c-0.033-0.013-0.066-0.026-0.1-0.039h-2.13c0.317,0.107,0.631,0.228,0.939,0.354c0.517,0.21,1.086,0.517,1.311,0.994
			c-0.013,1.229-0.464,2.454-1.279,3.377c-0.792,0.896-1.654,1.508-2.178,2.612c-0.442,0.933-0.935,1.896-1.646,2.658
			c-0.212,0.228-0.45,0.442-0.744,0.539C12.954,42.1,12.725,42.1,12.5,42.098c-1.612-0.008-3.224-0.016-4.836-0.022
			c-0.018-0.576-0.15-6.271-0.222-9.126c0.604-0.417,1.239-0.789,1.922-1.057c0.434-0.17,0.881-0.297,1.335-0.396H8.378
			c-0.143,0.081-0.286,0.161-0.429,0.242c-0.288,0.163-0.585,0.332-0.791,0.592c-0.007,0.009-0.014,0.019-0.021,0.028
			c-0.239,0.169-0.495,0.26-0.721,0.184c-0.177-0.13-0.354-0.259-0.531-0.389c-0.302-0.221-0.612-0.445-0.972-0.547
			c-0.251-0.072-0.515-0.08-0.775-0.083c-0.864-0.009-1.729,0.039-2.588,0.144c0.011-0.008,0.021-0.016,0.03-0.025
			c-0.032-0.048-0.065-0.097-0.098-0.145h-0.72c0.053,0.057,0.11,0.108,0.176,0.15c0.054,0.035,0.113,0.061,0.175,0.079
			c-0.204,0.03-0.408,0.063-0.612,0.1v0.873c0.205-0.092,0.411-0.184,0.616-0.274c0.32-0.143,0.646-0.287,0.995-0.329
			c0.495-0.059,0.987,0.095,1.463,0.248c0.527,0.168,1.055,0.338,1.582,0.506c0.345,0.111,0.698,0.224,1.061,0.215
			c0.057-0.002,0.114-0.006,0.171-0.014c0.127,1.316,0.34,2.609,0.265,3.938c-0.109,1.934-0.105,3.874,0.01,5.808
			c-0.511,0.301-1.02,0.605-1.519,0.926c-0.443-0.181-0.887-0.359-1.33-0.537c-0.539-0.22-1.099-0.451-1.486-0.886
			c-0.066-0.075-0.129-0.157-0.208-0.22c-0.097-0.077-0.215-0.122-0.331-0.167c-0.45-0.17-0.878-0.302-1.29-0.442v0.725
			c0.144,0.084,0.282,0.178,0.417,0.279c0.161,0.125,0.313,0.262,0.474,0.387c0.321,0.248,0.68,0.441,1.036,0.636
			c0.521,0.28,1.043,0.563,1.565,0.846c0.044,0.023,0.091,0.048,0.139,0.064c-0.907,0.647-1.754,1.364-2.479,2.209
			c-0.189,0.222-0.374,0.46-0.446,0.741c-0.071,0.281-0.023,0.578,0.025,0.865c0.26,1.528,0.64,3.082,0.813,4.619
			c-0.242,0.234-0.412,0.602-0.679,0.867c-0.28,0.281-0.569,0.553-0.865,0.816v1.146c0.623-0.57,1.276-1.105,1.96-1.602
			c0.053-0.037,0.106-0.078,0.157-0.12c0.214,0.184,0.467,0.325,0.662,0.53c0.248,0.261,0.393,0.615,0.677,0.836
			c0.4,0.311,0.961,0.271,1.464,0.219c0.717-0.076,1.434-0.152,2.15-0.229c-0.577,1.332-1.155,2.666-1.733,4
			c-0.04,0.092-0.081,0.188-0.082,0.289c-0.001,0.112,0.048,0.219,0.102,0.317c0.16,0.301,0.367,0.575,0.609,0.813
			c0.063,0.113,0.138,0.224,0.213,0.326c0.585,0.816,1.254,1.57,1.925,2.318c-0.075,0.042-0.15,0.084-0.226,0.127h2.321
			c0.829-0.18,1.685-0.266,2.531-0.35c0.476-0.047,0.952-0.094,1.43-0.076c0.719,0.025,1.422,0.193,2.105,0.426h2.13
			c-0.211-0.082-0.423-0.164-0.635-0.246c0.278-0.475,0.301-1.075,0.45-1.616c0.12-0.435,0.327-0.841,0.533-1.243
			c0.567-1.108,1.136-2.22,1.703-3.33c0.075-0.146,1.345-0.201,1.544-0.231c0.51-0.076,1.059-0.217,1.572-0.222
			c0.092-0.002,0.195,0.011,0.257,0.078c0.018,0.021,0.03,0.043,0.041,0.068c0.011,0.027,0.019,0.059,0.026,0.087
			c0.388,1.503,0.987,3.034,1.606,4.464c0.117,0.271,0.237,0.535,0.376,0.795c0.058,0.109,0.123,0.219,0.203,0.314
			c-0.477,0.227-0.874,0.613-1.117,1.082h1.129l0.008-0.018c0.229-0.176,0.454-0.355,0.715-0.476c0.463-0.213,0.992-0.211,1.5-0.188
			c0.692,0.033,1.472,0.15,1.897,0.681h1.298c-0.343-0.406-0.822-0.688-1.325-0.868c-0.581-0.206-1.198-0.286-1.81-0.363
			c-0.52-0.066-1.054-0.134-1.568-0.063c-0.417-1.912-1.021-3.784-1.803-5.578c1.148-0.088,2.303-0.086,3.451,0.006
			c0.386,0.03,0.785,0.068,1.155-0.032c0.133,0.129,0.239,0.285,0.305,0.459c0.027,0.071,0.05,0.148,0.105,0.201
			c0.044,0.042,0.095,0.061,0.148,0.063c-0.048,1.361,0.214,2.736,0.787,3.974c0.295,0.638,0.669,1.235,1.043,1.831
			c0.003,0.004,0.005,0.009,0.008,0.014V61.77c-0.718-1.508-1.162-3.146-1.296-4.813c0.414-0.445,0.847-0.875,1.296-1.287v-1.146
			c-0.133,0.119-0.267,0.236-0.401,0.353c-0.286,0.244-0.559,0.558-0.915,0.67c-0.101,0.031-0.206,0.046-0.314,0.05
			c-0.283,0.01-0.584-0.052-0.85-0.068c-0.628-0.039-1.256-0.072-1.883-0.117c-0.351-0.026-3.611-0.137-3.656-0.34
			c-0.536-2.439-0.139-5.148-0.994-7.478c0.049-0.047,0.095-0.098,0.14-0.147c1.302-1.473,2.605-2.945,3.907-4.418
			c0.055-0.063,0.11-0.125,0.155-0.193c0.013,0.002,0.026,0.006,0.039,0.008c0.56-0.373,1.05-0.852,1.438-1.4
			c0.1-0.143,0.196-0.291,0.296-0.438c1.008,0.426,2.103,0.633,3.039,1.191v-0.721c-0.424-0.145-0.844-0.301-1.241-0.509
			c-0.532-0.278-1.473-0.579-1.5-1.291c-0.019-0.477,0.209-1.032,0.29-1.504c0.096-0.562,0.231-1.112,0.388-1.659
			c0.313-1.101,0.712-2.174,1.069-3.26c0.014-0.042,0.027-0.085,0.04-0.128c0.318-0.142,0.637-0.283,0.954-0.424v-0.873
			c-0.032,0.006-0.064,0.011-0.097,0.017C32.354,31.756,32.309,31.682,32.294,31.666z M14.557,44.561
			c-0.008,0.017-0.014,0.033-0.018,0.054l-0.062-0.076C14.504,44.545,14.53,44.553,14.557,44.561z M6.84,54.509
			c-0.571,0.25-1.231,0.55-1.785,0.263C4.9,54.691,4.77,54.57,4.643,54.452c-0.328-0.306-0.646-0.679-1.009-0.941
			c-0.247-0.18-0.579-0.251-0.756-0.524c-0.096-0.149-0.127-0.329-0.155-0.504c-0.22-1.315-0.438-2.631-0.658-3.945
			c-0.07-0.424-0.136-0.883,0.066-1.26c0.109-0.205,0.286-0.363,0.461-0.518c1.372-1.197,2.817-2.312,4.325-3.333l4.173-0.343
			c0.617-0.05,1.247-0.102,1.851,0.04c0.582,0.138,0.937,0.416,1.221,0.815c0.139,0.478,0.31,1.006,0.326,1.104
			c0.153,0.883-0.112,2.037-0.161,2.935c-0.021,0.383-0.043,0.77-0.166,1.131c-0.304,0.889-1.15,1.457-1.943,1.961
			c-0.604,0.384-1.206,0.768-1.81,1.15c-0.351,0.223-0.496,0.332-0.631,0.702C9.66,53.244,9.495,53.59,9.17,53.746
			c-0.11,0.053-0.231,0.078-0.35,0.105C8.142,54.01,7.478,54.229,6.84,54.509z M18.505,59.746c-0.132,0.365-0.229,0.74-0.325,1.115
			c-0.17,0.664-0.34,1.326-0.51,1.99c-0.014,0.053-0.027,0.108-0.006,0.158c0.003,0.006,0.007,0.012,0.01,0.018
			c-0.473-0.184-0.945-0.365-1.418-0.549c-0.214-0.082-0.428-0.164-0.651-0.213c-0.354-0.078-0.72-0.066-1.082-0.058
			c-1.08,0.033-2.161,0.065-3.242,0.099c-0.313,0.01-0.63,0.021-0.926,0.12c-0.142,0.048-0.275,0.114-0.406,0.187
			c-0.819-0.703-1.622-1.428-2.404-2.172c-0.111-0.105-0.223-0.213-0.328-0.326c-0.006-0.532-0.13-1.082,0.052-1.582
			c0.111-0.309,0.329-0.563,0.515-0.833c0.456-0.659,0.578-1.485,1.203-2.005c0.343-0.285,0.735-0.613,0.743-1.06
			c0.003-0.153-0.042-0.313,0.005-0.458c0.041-0.128,0.146-0.224,0.248-0.312c0.575-0.49,1.22-0.896,1.847-1.306
			c0.604-0.396,1.317-0.606,1.909-1.041c0.793,0.594,1.586,1.188,2.379,1.781c0.792,0.594,1.586,1.188,2.314,1.855
			c0.608,0.558,1.17,1.167,1.677,1.818C19.488,57.85,18.868,58.74,18.505,59.746z M23.491,55.732
			c-0.825,0.174-1.661,0.295-2.502,0.359c-0.165,0.014-0.336,0.022-0.494-0.027c-0.218-0.069-0.383-0.244-0.539-0.412
			c-0.768-0.818-1.564-1.609-2.388-2.373c-0.412-0.381-0.831-0.754-1.256-1.121c-0.217-0.188-0.437-0.373-0.656-0.557
			c-0.093-0.076-0.188-0.177-0.294-0.229c-0.088-0.044-0.156-0.026-0.241-0.112c-0.118-0.119-0.235-0.238-0.354-0.355
			c-0.031-0.032-0.063-0.063-0.088-0.1c-0.08-0.117-0.088-0.277-0.02-0.4c0.115-0.29,0.353-0.473,0.469-0.766
			c0.129-0.324,0.227-0.66,0.295-1.002c0.22-1.092,0.166-2.219,0.084-3.33c-0.013-0.162-0.028-0.334-0.078-0.49
			c0.746,0.229,1.486,0.469,2.248,0.666c1.621,0.422,3.142,1.17,4.566,2.051c0.083,0.052,0.171,0.104,0.261,0.148
			C22.833,50.365,23.162,53.049,23.491,55.732z M27.015,42.613c-0.021,0.097-0.095,0.174-0.164,0.244
			c-1.196,1.192-2.644,2.102-3.95,3.174c-0.235,0.193-0.466,0.393-0.69,0.599c-1.782-1.19-3.81-2.013-5.918-2.397
			c-0.201-0.035-0.405-0.069-0.595-0.146c-0.352-0.142-0.622-0.412-0.856-0.716c0.026-0.088,0.054-0.174,0.082-0.26
			c0.744-2.191,1.89-4.248,3.368-6.03c0.3-0.362,0.644-0.765,0.866-1.181c0.129-0.24,0.191-0.51,0.314-0.754
			c0.091-0.18,0.224-0.35,0.411-0.424c0.113-0.047,0.237-0.053,0.357-0.029c0.113,0.022,0.223,0.07,0.318,0.135
			c0.537,0.361,1.224,0.583,1.842,0.76c0.225,0.064,2.131,0.335,2.161,0.436c0.23,0.764,0.561,1.498,0.848,2.244
			c0.284,0.74,0.483,1.498,0.72,2.254c0.195,0.619,0.616,1.17,0.843,1.802C27.005,42.416,27.037,42.518,27.015,42.613z"/>
		<path fill="#DADADA" d="M23.441,35.729c-0.589-0.096-1.16-0.231-1.733-0.449c-0.271-0.104-0.595-0.202-0.835-0.366
			c-0.213-0.146-0.373-0.34-0.657-0.349c-0.245-0.008-0.47,0.15-0.615,0.347c-0.146,0.194-0.231,0.43-0.329,0.653
			c-0.199,0.455-0.562,0.853-0.855,1.252c-0.342,0.466-0.688,0.929-1.025,1.396c-0.347,0.473-0.692,0.943-1.008,1.436
			c-0.615,0.961-1.11,2-1.469,3.084c-0.117,0.353-0.157,0.85,0.188,0.986c-0.042-0.453,0.111-0.902,0.301-1.314
			c0.715-1.557,1.941-2.809,2.935-4.204c0.382-0.537,0.731-1.101,1.038-1.685c0.255-0.483,0.586-1.059,1.133-1.076
			c0.233-0.006,0.454,0.097,0.669,0.188c0.518,0.224,1.06,0.396,1.619,0.456c0.374,0.041,0.761,0.094,1.134,0.116
			c0.119,0.006,0.239-0.009,0.357,0.011c0.266,0.041,0.495,0.262,0.549,0.525c-0.049-0.221-0.115-0.435-0.201-0.643
			c-0.02-0.049-0.041-0.098-0.076-0.138c-0.083-0.095-0.22-0.113-0.344-0.126C23.952,35.801,23.695,35.768,23.441,35.729z"/>
		<path fill="#C1C1C1" d="M17.683,44.654c0.523,0.188,1.069,0.326,1.583,0.545c0.771,0.326,1.509,0.732,2.203,1.201
			c0.317,0.215,0.689,0.438,1.058,0.336c0.214-0.062,0.382-0.223,0.54-0.379c0.297-0.295,0.585-0.64,0.919-0.887
			c0.318-0.238,0.649-0.462,0.96-0.716c0.637-0.519,1.252-1.078,1.801-1.688c0.079-0.086,0.159-0.176,0.201-0.285
			c0.046-0.119,0.042-0.252,0.037-0.381c-0.013-0.33-0.085-0.742-0.403-0.834c0.104,0.633-0.221,1.268-0.663,1.731
			c-0.441,0.466-0.996,0.804-1.495,1.205c-0.408,0.33-0.78,0.705-1.213,1.002c-0.432,0.297-0.943,0.519-1.466,0.481
			c-0.639-0.043-1.229-0.43-1.763-0.745c-0.606-0.359-1.364-0.56-2.056-0.666c-0.329-0.052-0.672-0.08-0.965-0.238
			C17.192,44.463,17.435,44.564,17.683,44.654z"/>
		<path fill="#DADADA" d="M21.831,47.134c-1.278-0.718-2.646-1.274-4.062-1.653c-0.596-0.16-1.209-0.293-1.745-0.598
			c-0.101-0.057-0.204-0.121-0.32-0.122c-0.19-0.001-0.341,0.183-0.376,0.37c-0.035,0.188,0.016,0.379,0.056,0.564
			c0.282,1.285,0.135,2.662-0.413,3.856c-0.122,0.267-0.266,0.529-0.308,0.82c-0.037,0.246-0.012,0.506,0.158,0.698
			c0.116,0.132,0.285,0.199,0.443,0.275c0.157,0.076,0.319,0.174,0.392,0.334c-0.042-0.092-0.085-0.184-0.127-0.273
			c-0.027-0.061-0.056-0.118-0.097-0.17c-0.091-0.106-0.234-0.157-0.332-0.26c-0.232-0.24-0.048-0.545,0.063-0.793
			c0.154-0.348,0.319-0.688,0.456-1.045c0.267-0.691,0.46-1.42,0.472-2.166c0.003-0.213-0.008-0.43,0.047-0.636
			c0.055-0.206,0.191-0.405,0.395-0.468c0.149-0.047,0.311-0.014,0.463,0.02c1.981,0.426,4.057,0.898,5.58,2.234
			C22.648,47.689,22.217,47.35,21.831,47.134z"/>
		<path fill="#C1C1C1" d="M19.593,55.346c-0.038-0.078-0.076-0.156-0.114-0.231c0.558,0.983,2.227,0.715,3.049,0.286
			c0.097-0.049,0.193-0.105,0.26-0.191c0.079-0.104,0.107-0.234,0.13-0.363c0.083-0.47,0.123-0.945,0.12-1.423
			c-0.002-0.471-0.068-0.937-0.022-1.405c0.004-0.041,0.008-0.086-0.013-0.121c-0.004-0.008-0.009-0.019-0.004-0.024
			s0.018,0.006,0.01,0.007c0.009,0.002-0.008-0.003-0.007,0.006c0.054,0.52,0.235,1.014,0.309,1.533
			c0.08,0.57,0.161,1.141,0.241,1.711c0.032,0.229,0.055,0.488-0.101,0.658c-0.12,0.129-0.309,0.163-0.484,0.188
			c-0.7,0.101-1.404,0.183-2.109,0.244c-0.169,0.016-0.346,0.027-0.499-0.041c-0.187-0.084-0.254-0.254-0.394-0.385
			c-0.114-0.107-0.225-0.15-0.302-0.307C19.64,55.438,19.616,55.393,19.593,55.346z"/>
		<path fill="#DADADA" d="M18.089,54.746c0.783,0.609,1.427,1.395,1.87,2.281c-0.59-0.557-1.18-1.113-1.77-1.67
			c-0.287-0.271-0.574-0.543-0.888-0.781c-0.864-0.661-1.914-1.072-2.695-1.83c-0.334-0.324-0.707-0.742-1.165-0.66
			c-0.169,0.03-0.317,0.128-0.46,0.225c-0.511,0.342-1.022,0.687-1.533,1.029c-0.333,0.223-0.685,0.469-0.834,0.84
			c-0.063,0.155-0.086,0.324-0.158,0.475c-0.066,0.141-0.172,0.257-0.274,0.373c-0.833,0.943-1.541,1.988-2.247,3.031
			c-0.159,0.234-0.32,0.474-0.424,0.738c-0.22,0.559-0.156,1.221,0.165,1.729c-0.612-0.397-0.684-1.293-0.435-1.979
			c0.25-0.687,0.736-1.26,1.05-1.918c0.134-0.28,0.237-0.581,0.418-0.836c0.17-0.239,0.407-0.438,0.513-0.712
			c0.058-0.148,0.072-0.313,0.116-0.467c0.128-0.446,0.492-0.78,0.851-1.077c0.836-0.688,1.731-1.308,2.673-1.843
			c0.267-0.151,0.561-0.303,0.864-0.264c0.162,0.021,0.313,0.092,0.455,0.17c1.079,0.596,1.854,1.613,2.829,2.366
			C17.361,54.236,17.738,54.475,18.089,54.746z"/>
		<path fill="#C1C1C1" d="M9.795,62.531c-0.218-0.074-0.323-0.314-0.404-0.53c0.221,0.364,0.754,0.324,1.169,0.228
			c0.959-0.227,1.908-0.512,2.885-0.637c0.978-0.125,2.004-0.082,2.899,0.33c0.167,0.076,0.337,0.168,0.521,0.171
			c0.185,0.003,0.388-0.118,0.397-0.303c0.004-0.06-0.013-0.118-0.015-0.177c-0.004-0.11,0.041-0.217,0.085-0.316
			c0.203-0.462,0.406-0.924,0.609-1.387c0.403-0.918,0.867-1.902,1.757-2.365c-0.597,0.805-1.055,1.71-1.349,2.667
			c-0.114,0.372-0.203,0.751-0.293,1.13c-0.091,0.389-0.159,1.701-0.687,1.766c-0.12,0.016-0.238-0.025-0.353-0.065
			c-2.201-0.752-4.549-0.916-6.835-0.515C10.054,62.549,9.919,62.572,9.795,62.531z"/>
		<path fill="#DADADA" d="M6.549,44.348c-0.344,0.293-0.755,0.492-1.142,0.728c-0.982,0.591-1.828,1.407-2.452,2.37
			c-0.185,0.285-0.354,0.589-0.427,0.922c-0.052,0.232-0.055,0.476-0.052,0.716c0.008,0.59,0.053,1.178,0.097,1.767
			c0.03,0.396,0.061,0.791,0.09,1.187c-0.266-1.364-0.484-2.737-0.656-4.117c-0.014-0.112-0.027-0.229,0.005-0.341
			c0.027-0.094,0.086-0.176,0.146-0.254c0.584-0.762,1.352-1.359,2.11-1.948c0.722-0.56,1.442-1.118,2.163-1.677
			c0.14-0.108,0.282-0.219,0.451-0.273c0.184-0.06,0.381-0.048,0.574-0.043c0.975,0.021,1.941-0.162,2.906-0.307
			c0.77-0.114,1.529-0.145,2.306-0.096c0.101,0.006,0.2,0.014,0.298,0.03c0.369,0.065,0.712,0.265,0.952,0.552
			c0.24,0.285,0.376,0.658,0.376,1.033c-0.174-0.312-0.419-0.582-0.711-0.787c-0.656-0.457-1.656-0.394-2.411-0.291
			c-1.117,0.149-2.232,0.491-3.352,0.354c-0.181-0.021-0.366-0.057-0.544-0.02C6.985,43.914,6.774,44.154,6.549,44.348z"/>
		<path fill="#C1C1C1" d="M5.403,54.863c-0.516-0.078-0.842-0.49-1.183-0.848c0.59,0.313,1.311,0.368,1.941,0.149
			c0.283-0.097,0.545-0.246,0.827-0.349c0.597-0.215,1.273-0.217,1.818-0.545c0.723-0.436,1.035-1.336,1.696-1.858
			c0.389-0.308,0.871-0.463,1.31-0.694c1.318-0.695,2.215-2.128,2.265-3.617c0.007-0.197-0.001-0.397,0.036-0.593
			c0.05-0.266,0.174-0.507,0.259-0.761c0.093-0.28,0.068-0.52,0.044-0.809c0.073,0.056,0.103,0.148,0.121,0.238
			c0.084,0.403,0.026,0.82-0.032,1.227c-0.088,0.623-0.175,1.238-0.221,1.863c-0.024,0.322-0.049,0.652-0.173,0.951
			c-0.131,0.314-0.364,0.576-0.61,0.813c-0.871,0.839-1.935,1.442-2.947,2.104c-0.241,0.157-0.485,0.323-0.646,0.563
			c-0.134,0.202-0.199,0.442-0.327,0.647c-0.377,0.607-1.156,0.826-1.812,0.932c-0.274,0.043-0.544,0.115-0.804,0.214
			c-0.514,0.194-0.994,0.456-1.562,0.37C5.405,54.863,5.404,54.863,5.403,54.863z"/>
		<path fill="#DADADA" d="M29.559,41.014c-0.08,0.023-0.143,0.084-0.202,0.144c-0.414,0.403-0.829,0.81-1.243,1.215
			c-0.209,0.203-0.417,0.407-0.626,0.61c-0.308,0.302-0.615,0.601-0.909,0.914c-0.351,0.371-0.682,0.761-1.013,1.148
			c-0.65,0.766-1.302,1.531-1.953,2.296c-0.041,0.048-0.083,0.099-0.101,0.161c-0.021,0.078,0.002,0.162,0.025,0.242
			c0.334,1.137,0.521,2.314,0.554,3.5c0.205-0.502,0.288-1.051,0.242-1.59c-0.048-0.563-0.233-1.125-0.12-1.678
			c0.11-0.539,0.488-0.979,0.853-1.393c0.811-0.919,1.62-1.839,2.431-2.757c0.44-0.5,0.882-1.002,1.366-1.46
			c0.254-0.24,0.53-0.477,0.866-0.571c0.227-0.063,0.466-0.063,0.701-0.051c0.712,0.032,1.442,0.147,2.07,0.471V42.17
			c-0.813-0.555-1.736-0.947-2.7-1.146C29.72,41.006,29.637,40.991,29.559,41.014z"/>
		<path fill="#C1C1C1" d="M30.748,54.754c-0.298,0.083-0.612,0.068-0.922,0.07c-0.561,0.003-1.121,0.064-1.669,0.186
			c-0.211,0.047-0.422,0.102-0.639,0.117c-0.432,0.027-0.857-0.107-1.29-0.141c-0.644-0.049-1.338,0.119-1.906-0.187
			c0.017,0.242,0.221,0.439,0.448,0.524s0.477,0.083,0.72,0.082c1.397-0.008,2.796,0.083,4.181,0.268
			c0.454,0.061,0.921,0.131,1.363,0.016c0.517-0.138,0.935-0.506,1.33-0.863c0.046-0.041,0.091-0.082,0.136-0.123v-0.92
			c-0.386,0.289-0.813,0.525-1.242,0.749C31.094,54.618,30.927,54.703,30.748,54.754z"/>
		<path fill="#DADADA" d="M7.2,33.143c-0.069,0.241-0.052,0.498-0.028,0.746c0.079,0.859,0.226,1.713,0.248,2.576
			c0.047,1.704-0.115,3.325,0.286,5.021c0.554-1.781,0.13-3.891,0.248-5.746c0.046-0.725,0.04-1.758,0.383-2.412
			c0.269-0.512,0.897-0.736,1.413-0.887c2.039-0.595,4.188-0.684,6.313-0.7c0.46-0.003,0.932-0.001,1.361,0.161
			c0.539,0.204,0.976,0.646,1.537,0.778c-0.336-0.32-0.676-0.644-1.079-0.874c-0.225-0.129-0.467-0.226-0.714-0.307H10.35
			c-0.556,0.138-1.104,0.3-1.643,0.481C8.08,32.192,7.384,32.508,7.2,33.143z"/>
		<path fill="#C1C1C1" d="M11.129,41.736c-0.358,0.049-0.719,0.096-1.081,0.098c-0.404,0.001-0.808-0.057-1.212-0.051
			c-0.414,0.006-0.827,0.08-1.219,0.215c1.568,0.163,3.149,0.195,4.723,0.1c0.507-0.031,1.038-0.084,1.461-0.365
			c0.235-0.155,0.423-0.373,0.586-0.604c0.616-0.869,0.925-1.936,1.586-2.771c0.235-0.299,0.512-0.563,0.768-0.842
			c0.525-0.576,0.965-1.221,1.403-1.863c0.183-0.27,0.367-0.538,0.511-0.832c0.197-0.397,0.316-0.836,0.351-1.278
			c-0.383,0.576-0.745,1.166-1.084,1.771c-0.128,0.229-0.254,0.461-0.42,0.662c-0.276,0.334-0.65,0.571-0.993,0.838
			c-0.611,0.475-1.139,1.059-1.549,1.715c-0.591,0.945-0.989,2.096-1.938,2.683C12.46,41.555,11.783,41.65,11.129,41.736z"/>
		<path fill="#DADADA" d="M2.313,54.67c0.068-0.033,0.141-0.063,0.216-0.064c0.11,0,0.212,0.062,0.298,0.131
			c0.422,0.334,0.687,0.891,1.199,1.056c0.197,0.063,0.409,0.06,0.616,0.049c0.926-0.042,1.848-0.174,2.749-0.393
			c-0.537-0.148-1.106-0.027-1.659,0.051C5.18,55.578,4.577,55.604,4.109,55.3c-0.169-0.11-0.308-0.255-0.446-0.399
			c-0.265-0.274-0.528-0.551-0.793-0.824C2.797,54,2.718,53.92,2.614,53.896c-0.137-0.027-0.271,0.053-0.385,0.131
			c-0.614,0.416-1.193,0.886-1.729,1.397v1.001c0.203-0.232,0.407-0.466,0.61-0.697C1.464,55.324,1.83,54.908,2.313,54.67z"/>
		<path fill="#DADADA" d="M31.146,56.775c-0.061,0.177-0.075,0.365-0.073,0.551c0.008,0.729,0.271,1.428,0.53,2.107
			c-0.037-0.559-0.073-1.117-0.109-1.675c-0.01-0.146-0.019-0.294,0.023-0.434c0.051-0.168,0.173-0.308,0.303-0.427
			c0.208-0.192,0.465-0.303,0.681-0.476V55.4c-0.168,0.142-0.339,0.279-0.513,0.414C31.646,56.08,31.286,56.367,31.146,56.775z"/>
		<path fill="#DADADA" d="M1.11,55.729c0.354-0.403,0.72-0.819,1.202-1.059c0.068-0.033,0.141-0.063,0.216-0.064
			c0.11,0,0.212,0.062,0.298,0.131c0.422,0.334,0.687,0.891,1.199,1.056c0.197,0.063,0.409,0.06,0.616,0.049
			c0.926-0.042,1.848-0.174,2.749-0.393c-0.537-0.148-1.106-0.027-1.659,0.051c-0.552,0.079-1.155,0.104-1.623-0.199
			c-0.168-0.11-0.307-0.255-0.445-0.399c-0.265-0.274-0.528-0.551-0.793-0.824C2.797,54,2.718,53.92,2.614,53.896
			c-0.137-0.027-0.271,0.053-0.385,0.131c-0.613,0.416-1.162,0.904-1.729,1.375v1.021c0.003-0.003,0.006-0.005,0.009-0.007
			C0.733,56.236,0.92,55.947,1.11,55.729z"/>
		<path fill="#C1C1C1" d="M8.45,63.016c-0.867-0.77-1.625-1.66-2.243-2.641c0.208,0.495,0.49,0.959,0.836,1.37
			c0.137,0.163,0.285,0.321,0.38,0.511c0.095,0.191,0.128,0.428,0.027,0.615c-0.067,0.127-0.188,0.217-0.303,0.302
			C6.99,63.289,6.821,63.406,6.646,63.5h1.978c0.008-0.009,0.015-0.018,0.021-0.027C8.735,63.316,8.585,63.135,8.45,63.016z"/>
		<path fill="#C1C1C1" d="M2.635,63.051c-0.195,0.072-0.388,0.168-0.597,0.182c-0.45,0.028-0.825-0.321-1.139-0.647
			c0.019,0.062,0.037,0.12,0.056,0.181c0.081,0.266,0.179,0.553,0.377,0.735h4.114c-0.08-0.052-0.158-0.106-0.238-0.16
			C4.459,62.85,3.475,62.74,2.635,63.051z"/>
		<path fill="#DADADA" d="M24.715,57.818c0.001-0.057-0.009-0.113-0.028-0.166c-0.033-0.096-0.014-0.18-0.047-0.273
			c-0.063-0.18-0.125-0.359-0.188-0.539c-0.025-0.072-0.052-0.148-0.108-0.199c-0.084-0.08-0.215-0.088-0.329-0.07
			c-0.761,0.107-1.533,0.14-2.296,0.234c-0.226,0.023-0.462,0.049-0.65,0.176c-0.164,0.111-0.271,0.287-0.372,0.457
			c-0.926,1.574-1.683,3.246-2.252,4.981c-0.083,0.252-0.161,0.528-0.069,0.776c0.926-1.336,1.679-2.793,2.233-4.322
			c0.16-0.439,0.325-0.917,0.71-1.184c0.25-0.174,0.558-0.233,0.856-0.289c0.149,0,0.32-0.062,0.467-0.088
			c0.155-0.028,0.316-0.049,0.469-0.086c0.266-0.064,0.553-0.109,0.821-0.035c0.239,0.065,0.465,0.254,0.627,0.438
			c0.065,0.074,0.126,0.158,0.151,0.254C24.713,57.863,24.715,57.842,24.715,57.818z"/>
		<path fill="#C1C1C1" d="M26.188,62.955c0.167-0.141,0.359-0.305,0.354-0.521c-0.001-0.092-0.039-0.18-0.076-0.263
			c-0.129-0.291-0.258-0.581-0.387-0.872c-0.119-0.27-0.219-0.541-0.418-0.764c0.171,0.201,0.157,0.506,0.214,0.754
			c0.063,0.275,0.111,0.575-0.022,0.839c-0.088,0.174-0.242,0.304-0.386,0.435c-0.304,0.28-0.574,0.597-0.807,0.938h0.981
			C25.81,63.305,25.992,63.121,26.188,62.955z"/>
		<path fill="#C1C1C1" d="M20.153,32.939c-0.082-0.142-0.164-0.281-0.247-0.422C19.87,32.691,19.998,32.836,20.153,32.939z"/>
		<path fill="#C1C1C1" d="M19.542,31.625c0.056,0.001,0.117,0.009,0.154,0.051c0.057,0.063,0.03,0.191,0.022,0.27
			c-0.014,0.129-0.051,0.248-0.042,0.38c0.012,0.172,0.08,0.336,0.167,0.486c0.209,0.36,0.524,0.653,0.872,0.887
			c0.348,0.232,0.729,0.41,1.11,0.583c0.359,0.163,0.722,0.323,1.101,0.437c0.195,0.059,0.397,0.078,0.593,0.131
			c0.179,0.047,0.354,0.104,0.545,0.078c0.41-0.058,0.369-0.144,0.312-0.6c-0.067-0.532-0.007-1.072,0.205-1.566
			c0.223-0.521,0.563-0.883,1.013-1.218c0.019-0.014,0.037-0.027,0.056-0.041c-0.017-0.001-0.033-0.002-0.051-0.003h-0.877
			c-0.054,0.001-0.089,0.011-0.141,0.066c-0.066,0.071-0.127,0.146-0.184,0.225c-0.11,0.153-0.207,0.316-0.317,0.47
			c-0.183,0.253-0.381,0.511-0.479,0.813c-0.098,0.304-0.091,0.729-0.397,0.819c-0.093,0.026-0.191,0.01-0.286-0.008
			c-0.561-0.104-1.112-0.255-1.647-0.449c-0.269-0.099-0.532-0.205-0.791-0.326c-0.227-0.104-0.324-0.24-0.367-0.488
			c-0.041-0.242-0.083-0.484-0.124-0.727c-0.018-0.104-0.036-0.208-0.085-0.302c-0.018-0.035-0.039-0.065-0.064-0.093h-1.325
			c0.17,0.105,0.37,0.162,0.57,0.159C19.237,31.658,19.39,31.623,19.542,31.625z"/>
		<path fill="#C1C1C1" d="M19.628,63.348c-0.052-0.015-0.105-0.02-0.159-0.022c-0.357-0.027-0.718-0.021-1.075,0.014
			c0.136,0.015,0.268,0.063,0.376,0.146c0.006,0.007,0.012,0.012,0.019,0.017h1.06C19.805,63.432,19.737,63.377,19.628,63.348z"/>
		<path fill="#DADADA" d="M29.703,56.997c-0.429-0.116-0.877-0.125-1.32-0.134c-0.284-0.006-0.569-0.01-0.854-0.016
			c-0.346-0.007-0.696-0.013-1.028,0.084c-0.104,0.029-0.218,0.08-0.257,0.184c-0.024,0.064-0.014,0.138-0.002,0.207
			c0.052,0.309,0.104,0.617,0.155,0.927c0.059,0.353,0.084,0.737,0.197,1.077c0.098,0.295,0.08,0.605,0.212,0.895
			c-0.044-0.068-0.088-0.137-0.131-0.205c-0.028-0.043-0.056-0.086-0.074-0.134c-0.021-0.056-0.028-0.116-0.041-0.176
			c-0.065-0.302-0.209-0.603-0.313-0.892c-0.12-0.34-0.246-0.68-0.396-1.008c-0.154-0.336-0.334-0.664-0.431-1.021
			c-0.013-0.049-0.022-0.108,0.013-0.146c0.026-0.027,0.07-0.031,0.109-0.033c0.487-0.026,0.976-0.054,1.464-0.08
			c0.403-0.021,0.808-0.043,1.212-0.033c0.531,0.015,1.043,0.104,1.577,0.051c0.186-0.018,0.392-0.041,0.542,0.068
			c0.08,0.059,0.132,0.146,0.182,0.231c0.094,0.162,0.189,0.335,0.18,0.521c-0.013,0.25-0.05,0.497-0.06,0.751
			c-0.008-0.032-0.016-0.063-0.023-0.096c-0.008-0.035-0.017-0.07-0.032-0.104c-0.079-0.164-0.197-0.325-0.297-0.479
			c-0.063-0.098-0.127-0.196-0.216-0.271C29.967,57.08,29.835,57.033,29.703,56.997z"/>
		<path fill="#DADADA" d="M25.406,34.611c-0.012,1.022,0.563,1.953,0.807,2.947c-0.228-0.941-0.349-1.908-0.36-2.879
			c-0.001-0.142,0-0.285,0.027-0.425c0.042-0.21,0.143-0.401,0.241-0.593c0.118-0.225,0.236-0.45,0.354-0.676
			c0.138-0.262,0.277-0.527,0.477-0.747c0.133-0.146,0.288-0.268,0.447-0.384c0.184-0.134,0.374-0.262,0.579-0.357h-1.531
			c-0.039,0.078-0.068,0.162-0.099,0.244C25.997,32.693,25.417,33.6,25.406,34.611z"/>
		<path fill="#DADADA" d="M30.788,32.979c0.232-0.391,0.213-0.905-0.007-1.304c-0.033-0.061-0.071-0.119-0.112-0.174h-0.64
			c0.066,0.036,0.131,0.078,0.189,0.126C30.605,31.945,30.717,32.483,30.788,32.979z"/>
		<path fill="#DADADA" d="M26.213,37.561c0.009,0.033,0.016,0.068,0.024,0.103C26.229,37.628,26.222,37.594,26.213,37.561z"/>
		<path fill="#C1C1C1" d="M29.132,40.16c-0.073,0.137-0.174,0.256-0.272,0.375c-0.404,0.486-0.809,0.973-1.213,1.459
			c0-0.104-0.132-0.292-0.169-0.396c-0.05-0.136-0.08-0.279-0.125-0.416c-0.097-0.289-0.253-0.57-0.38-0.851
			c-0.078-0.17-0.156-0.342-0.2-0.524c-0.029-0.117-0.043-0.238-0.058-0.358c-0.03-0.259-0.104-0.552-0.087-0.81
			c0.235,0.092,0.377,0.482,0.47,0.696c0.232,0.536,0.444,1.079,0.638,1.629c0.008,0.021,0.018,0.043,0.037,0.047
			c0.018,0.005,0.035-0.008,0.049-0.02c0.197-0.158,0.396-0.315,0.593-0.474c0.124-0.1,0.249-0.199,0.353-0.317
			c0.36-0.411,0.431-0.996,0.455-1.541c0.028-0.646,0.014-1.3,0.152-1.931c0.048-0.221,0.114-0.437,0.181-0.65
			c0.092-0.301,0.185-0.6,0.276-0.898c-0.053,0.329-0.106,0.66-0.159,0.991c-0.034,0.209-0.067,0.418-0.097,0.628
			c-0.114,0.817-0.164,1.643-0.236,2.465C29.312,39.57,29.278,39.889,29.132,40.16z"/>
		<path fill="#DADADA" d="M31.345,33.301c-0.106,0.146-0.157,0.323-0.206,0.496c-0.25,0.893-0.5,1.783-0.75,2.676
			c-0.275,0.979-0.553,1.973-0.577,2.99c-0.005,0.232,0.005,0.473,0.105,0.684c0.102,0.209,0.316,0.379,0.548,0.361
			c-0.439-0.492-0.27-1.254-0.073-1.883c0.312-1.004,0.624-2.008,0.937-3.012c0.119-0.383,0.24-0.771,0.451-1.113
			c0.189-0.309,0.443-0.564,0.721-0.799v-1.09c-0.197,0.092-0.392,0.188-0.584,0.283C31.705,32.999,31.485,33.111,31.345,33.301z"/>
		<path fill="#DADADA" d="M10.35,63.5h6.818c-0.08-0.025-0.161-0.051-0.242-0.074C14.793,62.805,12.521,62.961,10.35,63.5z"/>
		<path fill="#DADADA" d="M29.728,62.861c-0.415-0.123-0.856-0.115-1.289-0.096c-0.509,0.022-1.03,0.063-1.49,0.283
			c-0.179,0.085-0.35,0.202-0.456,0.368c-0.018,0.026-0.032,0.056-0.046,0.082h1.531c0.049-0.022,0.098-0.044,0.148-0.063
			c0.307-0.11,0.637-0.139,0.963-0.134c0.322,0.005,0.66,0.046,0.94,0.196h0.64C30.439,63.193,30.098,62.973,29.728,62.861z"/>
		<path fill="#C1C1C1" d="M32.5,41.406v-0.209c-0.588-0.133-1.176-0.271-1.733-0.484C31.316,41.006,31.94,41.137,32.5,41.406z"/>
		<path fill="#DADADA" d="M0.5,42.17v0.047c0.131,0.067,0.257,0.143,0.377,0.229C0.755,42.35,0.629,42.258,0.5,42.17z"/>
		<path fill="#C1C1C1" d="M1.826,53.316c0.095-0.115,0.198-0.219,0.224-0.383c0.017-0.104-0.001-0.209-0.018-0.313
			c-0.062-0.377-0.123-0.753-0.184-1.129c0.093,0.358,0.004,0.741-0.188,1.055c-0.099,0.162-0.243,0.271-0.354,0.418
			c-0.106,0.144-0.201,0.282-0.329,0.41c-0.148,0.147-0.31,0.283-0.478,0.408v0.92c0.278-0.252,0.558-0.504,0.836-0.757
			c0.169-0.151,0.281-0.291,0.39-0.485C1.754,53.408,1.79,53.361,1.826,53.316z"/>
		<path fill="#C1C1C1" d="M0.5,62.797V63.5h0.488c-0.109-0.223-0.273-0.421-0.425-0.619C0.542,62.854,0.521,62.824,0.5,62.797z"/>
		<path fill="#DADADA" d="M1.719,32.883c0.188-0.061,0.391-0.064,0.589-0.064c0.955,0.005,1.911,0.117,2.842,0.334
			c0.405,0.095,0.864,0.201,1.213-0.026c-0.65-0.101-1.29-0.269-1.906-0.496c-0.555-0.206-1.1-0.465-1.688-0.53
			c-0.782-0.086-1.543,0.179-2.269,0.511v1.091c0.206-0.173,0.425-0.332,0.642-0.488C1.321,33.082,1.506,32.949,1.719,32.883z"/>
		<path fill="#C1C1C1" d="M1.568,42.109c1.051,0.734,2.282,1.117,3.395,1.738c0.141,0.077,0.344,0.146,0.439,0.017
			c0.476-0.411,0.951-0.823,1.426-1.233c0.015-0.557-0.175-1.053-0.212-1.593c-0.032-0.448,0.06-0.929,0.06-1.384
			c0.001-1.141-0.217-2.528,0.003-3.645c-0.372,1.889-0.621,3.807-0.599,5.729c0.003,0.258,0,0.547-0.18,0.731
			c-0.063,0.064-0.141,0.111-0.221,0.15c-0.483,0.236-1.069,0.25-1.563,0.037c-0.308-0.133-0.573-0.344-0.857-0.521
			c-0.832-0.518-1.795-0.725-2.759-0.941v0.209c0.062,0.029,0.123,0.062,0.183,0.095C0.996,41.676,1.274,41.904,1.568,42.109z"/>
		<path fill="none" d="M1.483,31.5H0.762H1.483z"/>
		<path fill="none" d="M8.623,31.5H6.646H8.623z"/>
		<path fill="#C1C1C1" d="M1.662,31.702c0.172,0.023,0.346-0.009,0.517-0.035c0.973-0.147,1.973-0.105,2.93,0.123
			c0.086,0.021,0.173,0.042,0.249,0.086c0.078,0.043,0.143,0.105,0.208,0.165c0.174,0.155,0.363,0.291,0.561,0.414
			c0.191,0.119,0.404,0.23,0.628,0.212c0.311-0.024,0.542-0.283,0.771-0.494c0.317-0.291,0.69-0.52,1.094-0.672H1.297
			C1.392,31.605,1.509,31.681,1.662,31.702z"/>
		<path fill="none" d="M25.643,31.5h-0.981H25.643z"/>
		<path fill="#C1C1C1" d="M32.202,32.032c0.098,0.021,0.199,0.008,0.298-0.012V31.5h-0.84c0.065,0.102,0.121,0.21,0.202,0.308
			C31.95,31.915,32.066,32.003,32.202,32.032z"/>
		<path fill="#C1C1C1" d="M0.761,31.917c0.089-0.076,0.125-0.199,0.127-0.316c0.001-0.035-0.002-0.068-0.005-0.101H0.5v0.52
			c0.011-0.002,0.021-0.004,0.032-0.007C0.613,31.994,0.697,31.971,0.761,31.917z"/>
		<path fill="none" d="M10.35,31.5h6.818H10.35z"/>
		<path fill="none" d="M27.978,31.5h-1.531H27.978z"/>
		<path fill="none" d="M30.029,31.5h0.64H30.029z"/>
		<path fill="none" d="M0.988,31.5H0.5H0.988z"/>
		<path fill="#C1C1C1" d="M24.79,63.5h0.809C25.333,63.482,25.057,63.5,24.79,63.5z"/>
		<path fill="#C1C1C1" d="M24.722,63.5h0.068C24.764,63.5,24.741,63.5,24.722,63.5z"/>
		<path fill="#C1C1C1" d="M19.287,63.266c-0.198-0.026-0.398-0.021-0.598-0.024c-0.088-0.002-0.181-0.009-0.254-0.056
			c-0.073-0.049-0.116-0.154-0.065-0.227c-0.097,0.037-0.138,0.16-0.11,0.259c0.026,0.101,0.104,0.177,0.188,0.237
			c0.021,0.016,0.044,0.031,0.066,0.045h1.325C19.704,63.352,19.478,63.293,19.287,63.266z"/>
		<path fill="#AFAFAF" d="M0.5,63.141c0.079,0.125,0.161,0.252,0.262,0.359h0.722c-0.369-0.551-0.698-1.129-0.983-1.729L0.5,63.141
			L0.5,63.141z"/>
		<path fill="#C1C1C1" d="M9.795,62.531c-0.218-0.074-0.323-0.314-0.404-0.53c0.221,0.364,0.754,0.324,1.169,0.228
			c0.959-0.227,1.908-0.512,2.885-0.637c0.978-0.125,2.004-0.082,2.899,0.33c0.167,0.076,0.337,0.168,0.521,0.171
			c0.185,0.003,0.388-0.118,0.397-0.303c0.004-0.06-0.013-0.118-0.015-0.177c-0.004-0.11,0.041-0.217,0.085-0.316
			c0.203-0.462,0.406-0.924,0.609-1.387c0.403-0.918,0.867-1.902,1.757-2.365c-0.597,0.805-1.055,1.71-1.349,2.667
			c-0.114,0.372-0.203,0.751-0.293,1.13c-0.091,0.389-0.159,1.701-0.687,1.766c-0.12,0.016-0.238-0.025-0.353-0.065
			c-2.201-0.752-4.549-0.916-6.835-0.515C10.054,62.549,9.919,62.572,9.795,62.531z"/>
		<path fill="#C1C1C1" d="M8.45,63.016c-0.867-0.77-1.625-1.66-2.243-2.641c0.208,0.495,0.49,0.959,0.836,1.37
			c0.137,0.163,0.285,0.321,0.38,0.511c0.095,0.191,0.128,0.428,0.027,0.615c-0.067,0.127-0.188,0.217-0.303,0.302
			C6.99,63.289,6.821,63.406,6.646,63.5h1.978c0.008-0.009,0.015-0.018,0.021-0.027C8.735,63.316,8.585,63.135,8.45,63.016z"/>
		<path fill="#C1C1C1" d="M8.082,62.723c-0.126-0.086-0.253-0.17-0.379-0.255c-0.025-0.017-0.053-0.032-0.082-0.028
			c-0.04,0.009-0.06,0.052-0.073,0.09c-0.046,0.132-0.091,0.266-0.163,0.385c-0.225,0.374-0.682,0.559-1.117,0.568
			c-0.341,0.009-0.675-0.071-0.999-0.17c-0.293-0.088-0.554-0.246-0.852-0.328c-0.582-0.16-1.215-0.144-1.782,0.066
			c-0.195,0.072-0.388,0.168-0.597,0.182c-0.45,0.028-0.825-0.321-1.139-0.647c0.019,0.062,0.037,0.12,0.056,0.181
			c0.073,0.239,0.165,0.539,0.342,0.735h7.322c0.023-0.01,0.048-0.021,0.072-0.026C8.666,63.139,8.36,62.907,8.082,62.723z"/>
		<path fill="#C1C1C1" d="M26.188,62.955c0.167-0.141,0.359-0.305,0.354-0.521c-0.001-0.092-0.039-0.18-0.076-0.263
			c-0.105-0.237-0.197-0.491-0.319-0.722c-0.049-0.092-0.101-0.186-0.155-0.275c-0.041-0.066-0.161-0.172-0.178-0.244
			c0.044,0.191,0.068,0.389,0.104,0.578c0.039,0.204,0.03,0.434-0.065,0.62c-0.088,0.174-0.242,0.304-0.386,0.435
			c-0.304,0.28-0.574,0.597-0.807,0.938h0.981C25.81,63.305,25.992,63.121,26.188,62.955z"/>
		<path fill="#C1C1C1" d="M31.813,61.727c-0.184-0.336-0.345-0.684-0.483-1.039c-0.055-0.141-0.098-0.285-0.153-0.424
			c-0.045-0.113-0.12-0.213-0.163-0.33c-0.008-0.021-0.016-0.045-0.029-0.063c-0.013-0.018-0.03-0.031-0.051-0.038
			c-0.029,0.263,0.131,0.549,0.227,0.785c0.112,0.278,0.231,0.555,0.356,0.827c0.125,0.273,0.257,0.544,0.395,0.812
			c0.042,0.08,0.369,0.8,0.431,0.791c-0.334,0.043-0.577-0.287-0.828-0.511c-0.279-0.249-0.638-0.393-0.998-0.494
			c-0.49-0.139-1-0.208-1.509-0.208c-0.26-0.001-0.519,0.019-0.774,0.054c-0.197,0.026-0.477,0.112-0.663-0.002
			c-0.038-0.022-0.068-0.058-0.098-0.091c-0.177-0.205-0.318-0.44-0.415-0.692c0.014,0.041-0.007,0.123,0.002,0.174
			c0.012,0.06,0.036,0.115,0.051,0.176c0.027,0.105,0.013,0.207,0.039,0.313c0.008,0.029,0.016,0.062,0.016,0.092
			c0.001,0.041-0.012,0.082-0.013,0.125c-0.001,0.037,0.008,0.076,0.024,0.11c0.042,0.083,0.13,0.134,0.219,0.161
			c0.289,0.09,0.624,0.02,0.923,0.03c0.313,0.011,0.626,0.046,0.935,0.103c0.608,0.111,1.201,0.313,1.753,0.594
			c0.179,0.092,0.354,0.193,0.503,0.33c0.063,0.06,0.109,0.125,0.152,0.191h0.84v-0.709c-0.024-0.031-0.05-0.064-0.074-0.096
			C32.196,62.391,31.996,62.061,31.813,61.727z"/>
		<path fill="#C1C1C1" d="M0.5,63.5h0.383c-0.032-0.279-0.212-0.493-0.383-0.709V63.5z"/>
		<path fill="#DADADA" d="M10.35,63.5h6.818c-0.08-0.025-0.161-0.051-0.242-0.074C14.793,62.805,12.521,62.961,10.35,63.5z"/>
		<path fill="#DADADA" d="M29.728,62.861c-0.415-0.123-0.856-0.115-1.289-0.096c-0.509,0.022-1.03,0.063-1.49,0.283
			c-0.179,0.085-0.35,0.202-0.456,0.368c-0.018,0.026-0.032,0.056-0.046,0.082h1.531c0.049-0.022,0.098-0.044,0.148-0.063
			c0.307-0.11,0.637-0.139,0.963-0.134c0.322,0.005,0.66,0.046,0.94,0.196h0.64C30.439,63.193,30.098,62.973,29.728,62.861z"/>
		<path fill="#C1C1C1" d="M0.5,62.797V63.5h0.488c-0.109-0.223-0.273-0.421-0.425-0.619C0.542,62.854,0.521,62.824,0.5,62.797z"/>
		<path fill="#C1C1C1" d="M1.538,45.475c-0.475,0.418-0.84,1-0.854,1.631c-0.007,0.254,0.043,0.504,0.097,0.752
			c0.247,1.154,0.572,2.293,0.972,3.404c-0.134-0.824-0.266-1.647-0.398-2.474c-0.069-0.427-0.212-1.07-0.117-1.491
			c0.108-0.484,0.525-0.828,0.917-1.133c0.428-0.332,0.826-0.682,1.274-0.984c0.138-0.093,0.6-0.647,0.714-0.656
			c-0.032,0.002-0.025-0.047-0.024-0.08c0.001-0.057-0.055-0.094-0.103-0.12c-0.768-0.431-1.566-0.78-2.33-1.222
			c0.419,0.241,0.763,0.592,1.103,0.93c0.083,0.082,0.167,0.167,0.217,0.271c0.023,0.049,0.038,0.108,0.017,0.159
			c-0.021,0.052-0.074,0.081-0.123,0.106C2.384,44.841,1.989,45.121,1.538,45.475z"/>
	</g>
	<g opacity="0.65">
		<rect x="32.5" y="31.5" fill="#D0D0D0" width="32" height="32"/>
		<path fill="#AFAFAF" d="M32.5,63.141c0.079,0.125,0.161,0.252,0.262,0.359h0.723c-0.369-0.551-0.698-1.129-0.983-1.729
			L32.5,63.141L32.5,63.141z"/>
		<path fill="#AFAFAF" d="M64.294,31.666c-0.063-0.063-0.136-0.116-0.211-0.166h-1.378c0.021,0.028,0.045,0.056,0.064,0.086
			c0.129,0.191,0.137,0.443,0.108,0.698c-0.024,0.223-0.073,0.448-0.092,0.639c0,0.007-0.001,0.013-0.001,0.019
			c-0.161,0.147-0.301,0.324-0.408,0.514c-0.266,0.466-0.38,1-0.48,1.525c-0.328,1.688-0.576,3.391-0.74,5.101
			c-0.303,0.506-0.663,0.978-1.073,1.399c-0.146,0.147-0.3,0.313-0.422,0.488l-2.013-6.261c-0.116-0.362-0.234-0.735-0.222-1.117
			c0.015-0.401,0.175-0.784,0.333-1.155l0.824-1.937h-0.509h-0.377H57.48c-0.058,0.005-0.11,0.019-0.151,0.052
			c-0.054,0.043-0.083,0.107-0.129,0.157c-0.06,0.062-0.13,0.113-0.191,0.17c-0.129,0.119-0.254,0.244-0.364,0.381
			c-0.172,0.213-0.31,0.459-0.362,0.728c-0.024,0.119-0.031,0.242-0.039,0.363c-0.005,0.082-0.009,0.164-0.015,0.244
			c-0.008,0.153,0.07,0.262,0.063,0.41c-0.004,0.107-0.005,0.215-0.006,0.322c-0.001,0.045-0.017,0.578,0.03,0.578
			c-0.739,0.006-1.48-0.205-2.156-0.521c-0.674-0.313-1.396-0.639-1.932-1.172c-0.252-0.252-0.5-0.578-0.533-0.946
			c-0.008-0.109,0.123-0.47,0.074-0.543c-0.115-0.169-0.553-0.069-0.746-0.063c-0.01-0.042-0.019-0.083-0.028-0.123
			c-0.033-0.013-0.065-0.026-0.101-0.039h-2.129c0.316,0.107,0.631,0.228,0.938,0.354c0.517,0.21,1.086,0.517,1.312,0.994
			c-0.014,1.229-0.465,2.454-1.279,3.377c-0.793,0.896-1.654,1.508-2.178,2.612c-0.442,0.933-0.936,1.896-1.646,2.658
			c-0.212,0.228-0.45,0.442-0.744,0.539C44.954,42.1,44.725,42.1,44.5,42.098c-1.611-0.008-3.225-0.016-4.836-0.022
			c-0.018-0.576-0.15-6.271-0.223-9.126c0.604-0.417,1.24-0.789,1.922-1.057c0.435-0.17,0.882-0.297,1.336-0.396h-2.321
			c-0.144,0.081-0.286,0.161-0.429,0.242c-0.288,0.163-0.586,0.332-0.791,0.592c-0.008,0.009-0.014,0.019-0.021,0.028
			c-0.238,0.169-0.494,0.26-0.721,0.184c-0.178-0.13-0.354-0.259-0.531-0.389c-0.302-0.221-0.611-0.445-0.972-0.547
			c-0.251-0.072-0.515-0.08-0.774-0.083c-0.865-0.009-1.729,0.039-2.589,0.144c0.011-0.008,0.021-0.016,0.03-0.025
			c-0.032-0.048-0.064-0.097-0.098-0.145H32.76c0.053,0.057,0.11,0.108,0.176,0.15c0.055,0.035,0.113,0.061,0.176,0.079
			c-0.204,0.03-0.408,0.063-0.612,0.1v0.873c0.205-0.092,0.411-0.184,0.616-0.274c0.32-0.143,0.646-0.287,0.994-0.329
			c0.496-0.059,0.988,0.095,1.464,0.248c0.526,0.168,1.055,0.338,1.581,0.506c0.346,0.111,0.699,0.224,1.062,0.215
			c0.058-0.002,0.114-0.006,0.171-0.014c0.127,1.316,0.34,2.609,0.266,3.938c-0.109,1.934-0.105,3.874,0.01,5.808
			c-0.512,0.301-1.02,0.605-1.52,0.926c-0.442-0.181-0.887-0.359-1.33-0.537c-0.539-0.22-1.099-0.451-1.485-0.886
			c-0.066-0.075-0.129-0.157-0.208-0.22c-0.098-0.077-0.215-0.122-0.331-0.167c-0.448-0.171-0.876-0.304-1.288-0.442v0.723
			c0.145,0.086,0.282,0.179,0.417,0.281c0.161,0.125,0.313,0.262,0.474,0.387c0.321,0.248,0.68,0.44,1.036,0.635
			c0.521,0.281,1.044,0.563,1.565,0.846c0.044,0.023,0.091,0.047,0.139,0.064c-0.906,0.646-1.754,1.363-2.479,2.209
			c-0.189,0.222-0.375,0.46-0.446,0.742c-0.071,0.281-0.022,0.578,0.024,0.865c0.261,1.527,0.641,3.082,0.813,4.618
			c-0.242,0.234-0.412,0.603-0.679,0.867c-0.28,0.28-0.569,0.553-0.865,0.817v1.146c0.623-0.569,1.275-1.104,1.96-1.603
			c0.054-0.036,0.106-0.077,0.157-0.119c0.214,0.184,0.467,0.324,0.662,0.529c0.248,0.262,0.393,0.615,0.677,0.836
			c0.399,0.312,0.961,0.271,1.464,0.22c0.717-0.076,1.434-0.152,2.15-0.229c-0.577,1.334-1.155,2.666-1.733,4
			c-0.04,0.094-0.081,0.188-0.082,0.289c-0.001,0.113,0.048,0.219,0.103,0.318c0.16,0.301,0.367,0.574,0.608,0.814
			c0.063,0.112,0.138,0.223,0.214,0.325c0.584,0.816,1.254,1.57,1.924,2.318c-0.074,0.042-0.149,0.084-0.226,0.127h2.321
			c0.828-0.181,1.685-0.267,2.531-0.351c0.476-0.047,0.951-0.094,1.43-0.076c0.719,0.025,1.422,0.195,2.105,0.427h2.129
			c-0.211-0.082-0.422-0.164-0.635-0.246c0.278-0.476,0.301-1.075,0.45-1.616c0.12-0.435,0.327-0.841,0.533-1.242
			c0.567-1.109,1.136-2.221,1.702-3.33c0.076-0.146,1.346-0.203,1.545-0.232c0.51-0.076,1.059-0.217,1.572-0.223
			c0.092,0,0.194,0.012,0.256,0.08c0.019,0.02,0.031,0.043,0.041,0.067c0.012,0.027,0.02,0.058,0.026,0.087
			c0.388,1.504,0.987,3.034,1.606,4.465c0.117,0.27,0.236,0.534,0.376,0.795c0.058,0.108,0.123,0.219,0.202,0.313
			c-0.477,0.228-0.873,0.612-1.116,1.082h1.129l0.008-0.019c0.229-0.174,0.454-0.354,0.716-0.475c0.463-0.213,0.991-0.211,1.5-0.188
			c0.691,0.031,1.471,0.149,1.896,0.68h1.298c-0.343-0.406-0.821-0.689-1.325-0.868c-0.58-0.206-1.197-0.286-1.81-0.364
			c-0.521-0.065-1.054-0.133-1.568-0.063c-0.417-1.912-1.021-3.784-1.803-5.578c1.147-0.088,2.303-0.086,3.45,0.006
			c0.387,0.03,0.785,0.068,1.156-0.033c0.133,0.129,0.238,0.286,0.305,0.459c0.027,0.072,0.05,0.149,0.104,0.202
			c0.044,0.042,0.095,0.062,0.148,0.062c-0.048,1.363,0.214,2.736,0.786,3.975c0.296,0.639,0.67,1.234,1.043,1.831
			c0.004,0.004,0.006,0.009,0.009,0.015V61.77c-0.718-1.509-1.162-3.146-1.296-4.813c0.414-0.446,0.847-0.875,1.296-1.287v-1.146
			c-0.134,0.119-0.267,0.235-0.401,0.352c-0.285,0.244-0.559,0.557-0.914,0.67c-0.102,0.031-0.207,0.046-0.314,0.051
			c-0.283,0.01-0.584-0.053-0.85-0.068c-0.629-0.041-1.257-0.073-1.884-0.118c-0.351-0.026-3.61-0.138-3.655-0.341
			c-0.537-2.438-0.14-5.147-0.994-7.477c0.049-0.047,0.095-0.098,0.14-0.148c1.302-1.473,2.604-2.944,3.907-4.418
			c0.055-0.062,0.109-0.125,0.154-0.192c0.014,0.002,0.026,0.006,0.039,0.008c0.561-0.373,1.051-0.852,1.438-1.401
			c0.101-0.142,0.196-0.289,0.296-0.437c1.008,0.427,2.104,0.633,3.039,1.19v-0.721c-0.424-0.144-0.844-0.3-1.241-0.508
			c-0.532-0.279-1.473-0.579-1.5-1.291c-0.019-0.477,0.209-1.033,0.29-1.504c0.096-0.561,0.23-1.113,0.389-1.659
			c0.313-1.101,0.711-2.174,1.068-3.26c0.014-0.042,0.027-0.085,0.04-0.128c0.317-0.141,0.638-0.283,0.954-0.424v-0.873
			c-0.032,0.006-0.064,0.011-0.098,0.017C64.354,31.756,64.309,31.682,64.294,31.666z M46.557,44.561
			c-0.008,0.017-0.014,0.033-0.018,0.054l-0.063-0.076C46.504,44.545,46.529,44.553,46.557,44.561z M38.84,54.509
			c-0.57,0.25-1.23,0.55-1.785,0.263c-0.154-0.08-0.285-0.201-0.412-0.319c-0.328-0.306-0.646-0.679-1.009-0.941
			c-0.247-0.18-0.579-0.251-0.756-0.524c-0.096-0.149-0.127-0.329-0.155-0.504c-0.22-1.315-0.438-2.631-0.658-3.945
			c-0.069-0.424-0.135-0.883,0.066-1.26c0.109-0.205,0.286-0.363,0.461-0.518c1.372-1.197,2.817-2.312,4.325-3.333l4.173-0.343
			c0.617-0.05,1.247-0.102,1.852,0.04c0.582,0.138,0.937,0.416,1.221,0.815c0.139,0.478,0.311,1.006,0.326,1.104
			c0.152,0.883-0.112,2.037-0.161,2.935c-0.021,0.383-0.043,0.77-0.166,1.131c-0.304,0.889-1.149,1.457-1.943,1.961
			c-0.604,0.384-1.206,0.768-1.81,1.15c-0.352,0.223-0.496,0.332-0.631,0.702c-0.116,0.322-0.281,0.668-0.606,0.824
			c-0.11,0.053-0.231,0.078-0.351,0.106C40.143,54.01,39.479,54.229,38.84,54.509z M50.505,59.746
			c-0.132,0.365-0.229,0.74-0.325,1.115c-0.17,0.664-0.34,1.326-0.51,1.99c-0.014,0.053-0.027,0.108-0.006,0.158
			c0.003,0.006,0.007,0.012,0.01,0.018c-0.473-0.184-0.945-0.365-1.418-0.549c-0.214-0.082-0.428-0.164-0.65-0.213
			c-0.354-0.078-0.721-0.066-1.082-0.058c-1.08,0.033-2.162,0.065-3.242,0.099c-0.313,0.01-0.631,0.021-0.926,0.12
			c-0.143,0.048-0.275,0.114-0.406,0.187c-0.819-0.703-1.622-1.428-2.404-2.172c-0.111-0.105-0.223-0.213-0.328-0.326
			c-0.006-0.532-0.13-1.082,0.053-1.582c0.11-0.309,0.328-0.563,0.515-0.833c0.456-0.659,0.577-1.485,1.202-2.005
			c0.344-0.285,0.736-0.613,0.744-1.06c0.002-0.153-0.043-0.313,0.004-0.458c0.041-0.128,0.146-0.224,0.248-0.312
			c0.576-0.49,1.221-0.896,1.848-1.306c0.604-0.396,1.316-0.606,1.908-1.041c0.794,0.594,1.587,1.188,2.38,1.781
			c0.792,0.594,1.586,1.188,2.313,1.855c0.608,0.558,1.17,1.167,1.678,1.818C51.488,57.85,50.868,58.74,50.505,59.746z
			 M55.491,55.732c-0.825,0.174-1.661,0.295-2.503,0.359c-0.164,0.014-0.336,0.022-0.493-0.027
			c-0.218-0.069-0.384-0.244-0.539-0.412c-0.769-0.818-1.563-1.609-2.388-2.373c-0.412-0.381-0.832-0.754-1.256-1.121
			c-0.217-0.188-0.438-0.373-0.656-0.557c-0.094-0.076-0.188-0.177-0.295-0.229c-0.088-0.044-0.155-0.026-0.24-0.112
			c-0.118-0.119-0.234-0.238-0.354-0.355c-0.031-0.032-0.063-0.063-0.088-0.1c-0.08-0.117-0.089-0.277-0.021-0.4
			c0.114-0.29,0.353-0.473,0.469-0.766c0.129-0.324,0.228-0.66,0.295-1.002c0.22-1.092,0.166-2.219,0.084-3.33
			c-0.013-0.162-0.028-0.334-0.077-0.49c0.745,0.229,1.485,0.469,2.247,0.666c1.621,0.422,3.142,1.17,4.566,2.051
			c0.083,0.052,0.171,0.104,0.261,0.148C54.833,50.365,55.162,53.049,55.491,55.732z M59.016,42.613
			c-0.021,0.097-0.096,0.174-0.164,0.244c-1.197,1.192-2.645,2.102-3.951,3.174c-0.234,0.193-0.465,0.393-0.689,0.599
			c-1.781-1.19-3.811-2.013-5.918-2.397c-0.201-0.035-0.404-0.069-0.595-0.146c-0.353-0.142-0.622-0.412-0.856-0.716
			c0.026-0.088,0.055-0.174,0.082-0.26c0.744-2.191,1.891-4.248,3.368-6.03c0.3-0.362,0.644-0.765,0.866-1.181
			c0.129-0.24,0.191-0.51,0.314-0.754c0.09-0.18,0.223-0.35,0.41-0.424c0.113-0.047,0.237-0.053,0.357-0.029
			c0.113,0.022,0.223,0.07,0.318,0.135c0.537,0.361,1.224,0.583,1.842,0.76c0.225,0.064,2.131,0.335,2.16,0.436
			c0.23,0.764,0.562,1.498,0.849,2.244c0.284,0.74,0.483,1.498,0.72,2.254c0.195,0.619,0.616,1.17,0.844,1.802
			C59.005,42.416,59.037,42.518,59.016,42.613z"/>
		<path fill="#DADADA" d="M55.441,35.729c-0.59-0.096-1.16-0.231-1.733-0.449c-0.271-0.104-0.595-0.202-0.835-0.366
			c-0.213-0.146-0.373-0.34-0.657-0.349c-0.245-0.008-0.47,0.15-0.614,0.347c-0.146,0.194-0.231,0.43-0.33,0.653
			c-0.198,0.455-0.562,0.853-0.854,1.252c-0.342,0.466-0.688,0.929-1.024,1.396c-0.348,0.473-0.692,0.943-1.009,1.436
			c-0.614,0.961-1.11,2-1.469,3.084c-0.117,0.353-0.157,0.85,0.188,0.986c-0.043-0.453,0.11-0.902,0.301-1.314
			c0.715-1.557,1.941-2.809,2.935-4.204c0.382-0.537,0.731-1.101,1.038-1.685c0.255-0.483,0.586-1.059,1.133-1.076
			c0.233-0.006,0.454,0.097,0.67,0.188c0.518,0.224,1.059,0.396,1.618,0.456c0.374,0.041,0.761,0.094,1.134,0.116
			c0.119,0.006,0.239-0.009,0.357,0.011c0.266,0.041,0.495,0.262,0.549,0.525c-0.049-0.221-0.115-0.435-0.201-0.643
			c-0.02-0.049-0.041-0.098-0.076-0.138c-0.082-0.095-0.22-0.113-0.344-0.126C55.952,35.801,55.695,35.768,55.441,35.729z"/>
		<path fill="#C1C1C1" d="M49.684,44.654c0.522,0.188,1.068,0.326,1.582,0.545c0.771,0.326,1.51,0.732,2.203,1.201
			c0.317,0.215,0.689,0.438,1.059,0.336c0.214-0.062,0.382-0.223,0.539-0.379c0.297-0.295,0.586-0.64,0.92-0.887
			c0.318-0.238,0.648-0.462,0.959-0.716c0.638-0.519,1.253-1.078,1.802-1.688c0.079-0.086,0.159-0.176,0.201-0.285
			c0.046-0.119,0.042-0.252,0.036-0.381c-0.012-0.33-0.084-0.742-0.402-0.834c0.104,0.633-0.221,1.268-0.663,1.731
			c-0.44,0.466-0.996,0.804-1.495,1.205c-0.408,0.33-0.779,0.705-1.213,1.002c-0.432,0.297-0.943,0.519-1.466,0.481
			c-0.64-0.043-1.229-0.43-1.763-0.745c-0.606-0.359-1.364-0.56-2.057-0.666c-0.328-0.052-0.672-0.08-0.965-0.238
			C49.191,44.463,49.436,44.564,49.684,44.654z"/>
		<path fill="#DADADA" d="M53.831,47.134c-1.278-0.718-2.646-1.274-4.062-1.653c-0.597-0.16-1.209-0.293-1.746-0.598
			c-0.101-0.057-0.203-0.121-0.319-0.122c-0.19-0.001-0.341,0.183-0.376,0.37s0.016,0.379,0.056,0.564
			c0.282,1.285,0.136,2.662-0.413,3.856c-0.121,0.267-0.266,0.529-0.308,0.82c-0.037,0.246-0.013,0.506,0.157,0.698
			c0.117,0.132,0.285,0.199,0.443,0.275c0.157,0.076,0.319,0.174,0.393,0.334c-0.042-0.092-0.086-0.184-0.127-0.273
			c-0.027-0.061-0.057-0.118-0.098-0.17c-0.091-0.106-0.233-0.157-0.332-0.26c-0.231-0.24-0.048-0.545,0.063-0.793
			c0.153-0.348,0.319-0.688,0.456-1.045c0.268-0.691,0.46-1.42,0.472-2.166c0.003-0.213-0.008-0.43,0.048-0.636
			c0.055-0.206,0.19-0.405,0.395-0.468c0.148-0.047,0.311-0.014,0.463,0.02c1.98,0.426,4.057,0.898,5.58,2.234
			C54.648,47.689,54.217,47.35,53.831,47.134z"/>
		<path fill="#C1C1C1" d="M51.593,55.346c-0.038-0.078-0.075-0.156-0.114-0.231c0.559,0.983,2.228,0.715,3.049,0.286
			c0.098-0.049,0.193-0.105,0.261-0.191c0.079-0.104,0.106-0.234,0.13-0.363c0.083-0.47,0.123-0.945,0.12-1.423
			c-0.002-0.471-0.067-0.937-0.022-1.405c0.004-0.041,0.008-0.086-0.013-0.121c-0.004-0.008-0.009-0.019-0.004-0.024
			s0.019,0.006,0.01,0.007c0.009,0.002-0.008-0.003-0.007,0.006c0.055,0.52,0.234,1.014,0.309,1.533
			c0.08,0.57,0.162,1.141,0.241,1.711c0.032,0.229,0.056,0.488-0.101,0.658c-0.12,0.129-0.309,0.163-0.484,0.188
			c-0.699,0.101-1.404,0.183-2.109,0.244c-0.168,0.016-0.346,0.027-0.498-0.041c-0.188-0.084-0.254-0.254-0.395-0.385
			c-0.113-0.107-0.225-0.15-0.302-0.307C51.641,55.438,51.616,55.393,51.593,55.346z"/>
		<path fill="#DADADA" d="M50.089,54.746c0.783,0.609,1.427,1.395,1.87,2.281c-0.59-0.557-1.18-1.113-1.77-1.67
			c-0.287-0.271-0.574-0.543-0.889-0.781c-0.863-0.661-1.914-1.072-2.695-1.83c-0.334-0.324-0.707-0.742-1.164-0.66
			c-0.17,0.03-0.317,0.128-0.461,0.225c-0.51,0.342-1.021,0.687-1.532,1.029c-0.333,0.223-0.685,0.469-0.835,0.84
			c-0.063,0.155-0.086,0.324-0.157,0.475c-0.065,0.141-0.172,0.257-0.274,0.373c-0.832,0.943-1.541,1.988-2.246,3.031
			c-0.16,0.234-0.32,0.474-0.424,0.738c-0.221,0.559-0.156,1.221,0.164,1.729c-0.611-0.397-0.684-1.293-0.435-1.979
			c0.25-0.687,0.735-1.26,1.05-1.918c0.134-0.28,0.236-0.581,0.418-0.836c0.17-0.239,0.407-0.438,0.514-0.712
			c0.057-0.148,0.071-0.313,0.115-0.467c0.128-0.446,0.492-0.78,0.852-1.077c0.836-0.688,1.73-1.308,2.672-1.843
			c0.268-0.151,0.562-0.303,0.865-0.264c0.162,0.021,0.313,0.092,0.455,0.17c1.078,0.596,1.854,1.613,2.828,2.366
			C49.361,54.236,49.738,54.475,50.089,54.746z"/>
		<path fill="#C1C1C1" d="M41.795,62.531c-0.218-0.074-0.322-0.314-0.404-0.53c0.221,0.364,0.754,0.324,1.17,0.228
			c0.959-0.227,1.907-0.512,2.885-0.637s2.004-0.082,2.898,0.33c0.167,0.076,0.338,0.168,0.521,0.171
			c0.185,0.003,0.388-0.118,0.396-0.303c0.004-0.06-0.013-0.118-0.015-0.177c-0.004-0.11,0.041-0.217,0.085-0.316
			c0.203-0.462,0.406-0.924,0.609-1.387c0.402-0.918,0.867-1.902,1.757-2.365c-0.597,0.805-1.056,1.71-1.349,2.667
			c-0.115,0.372-0.203,0.751-0.293,1.13c-0.092,0.389-0.16,1.701-0.688,1.766c-0.12,0.016-0.238-0.025-0.354-0.065
			c-2.201-0.752-4.549-0.916-6.834-0.515C42.055,62.549,41.919,62.572,41.795,62.531z"/>
		<path fill="#DADADA" d="M38.549,44.348c-0.344,0.293-0.755,0.492-1.142,0.728c-0.982,0.591-1.828,1.407-2.452,2.37
			c-0.186,0.285-0.354,0.589-0.428,0.922c-0.051,0.232-0.055,0.476-0.051,0.716c0.008,0.59,0.053,1.178,0.097,1.767
			c0.03,0.396,0.061,0.791,0.09,1.187c-0.267-1.364-0.483-2.737-0.656-4.117c-0.014-0.112-0.026-0.229,0.005-0.341
			c0.027-0.094,0.086-0.176,0.146-0.254c0.584-0.762,1.352-1.359,2.109-1.948c0.723-0.56,1.442-1.118,2.164-1.677
			c0.139-0.108,0.281-0.219,0.45-0.273c0.185-0.06,0.382-0.048,0.574-0.043c0.976,0.021,1.94-0.162,2.905-0.307
			c0.771-0.114,1.529-0.145,2.307-0.096c0.102,0.006,0.2,0.014,0.298,0.03c0.369,0.065,0.712,0.265,0.952,0.552
			c0.24,0.285,0.376,0.658,0.376,1.033c-0.174-0.312-0.419-0.582-0.711-0.787c-0.656-0.457-1.656-0.394-2.411-0.291
			c-1.117,0.149-2.232,0.491-3.352,0.354c-0.182-0.021-0.366-0.057-0.545-0.02C38.984,43.914,38.773,44.154,38.549,44.348z"/>
		<path fill="#C1C1C1" d="M37.402,54.863c-0.516-0.078-0.842-0.49-1.182-0.848c0.59,0.313,1.311,0.368,1.94,0.149
			c0.282-0.097,0.545-0.246,0.827-0.349c0.597-0.215,1.273-0.217,1.818-0.545c0.723-0.436,1.034-1.336,1.695-1.858
			c0.389-0.308,0.871-0.463,1.311-0.694c1.317-0.695,2.215-2.128,2.265-3.617c0.007-0.197-0.001-0.397,0.036-0.593
			c0.05-0.266,0.174-0.507,0.259-0.761c0.093-0.28,0.067-0.52,0.044-0.809c0.072,0.056,0.104,0.148,0.121,0.238
			c0.084,0.403,0.025,0.82-0.032,1.227c-0.088,0.623-0.175,1.238-0.221,1.863c-0.024,0.322-0.05,0.652-0.173,0.951
			c-0.131,0.314-0.364,0.576-0.61,0.813c-0.871,0.839-1.935,1.442-2.946,2.104c-0.242,0.157-0.486,0.323-0.646,0.563
			c-0.135,0.202-0.199,0.442-0.327,0.647c-0.377,0.607-1.156,0.826-1.812,0.932c-0.274,0.043-0.545,0.115-0.805,0.214
			c-0.514,0.194-0.994,0.456-1.563,0.37C37.404,54.863,37.404,54.863,37.402,54.863z"/>
		<path fill="#DADADA" d="M61.559,41.014c-0.08,0.023-0.143,0.084-0.201,0.144c-0.414,0.403-0.83,0.81-1.244,1.215
			c-0.209,0.203-0.416,0.407-0.625,0.61c-0.309,0.302-0.615,0.601-0.909,0.914c-0.351,0.371-0.683,0.761-1.013,1.148
			c-0.65,0.766-1.303,1.531-1.953,2.296c-0.041,0.048-0.084,0.099-0.102,0.161c-0.021,0.078,0.002,0.162,0.025,0.242
			c0.334,1.137,0.521,2.314,0.554,3.5c0.205-0.502,0.288-1.051,0.242-1.59c-0.048-0.563-0.233-1.125-0.12-1.678
			c0.11-0.539,0.488-0.979,0.854-1.393c0.811-0.919,1.619-1.839,2.431-2.757c0.44-0.5,0.882-1.002,1.366-1.46
			c0.254-0.24,0.529-0.477,0.865-0.571c0.228-0.063,0.467-0.063,0.701-0.051c0.713,0.032,1.442,0.147,2.07,0.471V42.17
			c-0.813-0.555-1.736-0.947-2.7-1.146C61.721,41.006,61.637,40.991,61.559,41.014z"/>
		<path fill="#C1C1C1" d="M62.748,54.754c-0.298,0.083-0.611,0.068-0.922,0.07c-0.561,0.003-1.121,0.064-1.669,0.186
			c-0.212,0.047-0.423,0.102-0.64,0.117c-0.432,0.027-0.856-0.107-1.289-0.141c-0.645-0.049-1.338,0.119-1.906-0.187
			c0.017,0.242,0.221,0.439,0.447,0.524c0.228,0.085,0.478,0.083,0.721,0.082c1.396-0.008,2.796,0.083,4.181,0.268
			c0.454,0.061,0.921,0.131,1.363,0.016c0.517-0.138,0.935-0.506,1.33-0.863c0.046-0.041,0.091-0.082,0.136-0.123v-0.92
			c-0.386,0.289-0.813,0.525-1.242,0.749C63.094,54.618,62.927,54.703,62.748,54.754z"/>
		<path fill="#DADADA" d="M39.2,33.143c-0.069,0.241-0.052,0.498-0.028,0.746c0.079,0.859,0.227,1.713,0.248,2.576
			c0.047,1.704-0.115,3.325,0.286,5.021c0.554-1.781,0.13-3.891,0.248-5.746c0.046-0.725,0.04-1.758,0.383-2.412
			c0.269-0.512,0.897-0.736,1.413-0.887c2.039-0.595,4.188-0.684,6.313-0.7c0.461-0.003,0.933-0.001,1.361,0.161
			c0.539,0.204,0.977,0.646,1.537,0.778c-0.336-0.32-0.676-0.644-1.079-0.874c-0.225-0.129-0.467-0.226-0.714-0.307H42.35
			c-0.556,0.138-1.104,0.3-1.643,0.481C40.08,32.192,39.384,32.508,39.2,33.143z"/>
		<path fill="#C1C1C1" d="M43.129,41.736c-0.357,0.049-0.719,0.096-1.081,0.098c-0.403,0.001-0.808-0.057-1.212-0.051
			c-0.414,0.006-0.827,0.08-1.219,0.215c1.568,0.163,3.148,0.195,4.723,0.1c0.508-0.031,1.038-0.084,1.461-0.365
			c0.235-0.155,0.424-0.373,0.586-0.604c0.616-0.869,0.926-1.936,1.586-2.771c0.235-0.299,0.512-0.563,0.769-0.842
			c0.524-0.576,0.965-1.221,1.403-1.863c0.183-0.27,0.366-0.538,0.51-0.832c0.197-0.397,0.316-0.836,0.352-1.278
			c-0.383,0.576-0.744,1.166-1.084,1.771c-0.128,0.229-0.254,0.461-0.42,0.662c-0.275,0.334-0.65,0.571-0.993,0.838
			c-0.61,0.475-1.139,1.059-1.549,1.715c-0.591,0.945-0.989,2.096-1.938,2.683C44.46,41.555,43.783,41.65,43.129,41.736z"/>
		<path fill="#DADADA" d="M34.313,54.67c0.068-0.033,0.142-0.063,0.217-0.064c0.109,0,0.212,0.062,0.298,0.131
			c0.422,0.334,0.687,0.891,1.198,1.056c0.197,0.063,0.41,0.06,0.617,0.049c0.926-0.042,1.848-0.174,2.748-0.393
			c-0.537-0.148-1.105-0.027-1.658,0.051c-0.553,0.079-1.155,0.104-1.623-0.199c-0.168-0.108-0.309-0.254-0.445-0.397
			c-0.266-0.274-0.527-0.551-0.793-0.824c-0.073-0.076-0.152-0.156-0.256-0.18c-0.137-0.027-0.27,0.053-0.385,0.131
			c-0.614,0.416-1.193,0.886-1.729,1.397v1.001c0.203-0.232,0.407-0.466,0.61-0.697C33.464,55.324,33.83,54.908,34.313,54.67z"/>
		<path fill="#DADADA" d="M63.146,56.775c-0.062,0.177-0.076,0.365-0.073,0.551c0.008,0.729,0.271,1.428,0.53,2.107
			c-0.037-0.559-0.074-1.117-0.109-1.675c-0.01-0.146-0.02-0.294,0.023-0.434c0.051-0.168,0.172-0.308,0.303-0.427
			c0.207-0.192,0.465-0.303,0.681-0.476V55.4c-0.168,0.142-0.339,0.279-0.513,0.414C63.646,56.08,63.286,56.367,63.146,56.775z"/>
		<path fill="#DADADA" d="M33.109,55.729c0.354-0.403,0.721-0.819,1.203-1.059c0.067-0.033,0.141-0.063,0.215-0.064
			c0.111,0,0.213,0.062,0.299,0.131c0.422,0.334,0.688,0.891,1.199,1.056c0.197,0.063,0.408,0.06,0.615,0.049
			c0.926-0.042,1.848-0.174,2.75-0.393c-0.537-0.148-1.106-0.027-1.66,0.051c-0.551,0.079-1.154,0.104-1.623-0.199
			c-0.168-0.108-0.308-0.254-0.444-0.397c-0.265-0.274-0.528-0.551-0.793-0.824c-0.073-0.076-0.152-0.156-0.257-0.18
			c-0.137-0.027-0.27,0.053-0.385,0.131c-0.612,0.416-1.162,0.904-1.729,1.375v1.021c0.003-0.003,0.006-0.005,0.009-0.007
			C32.732,56.236,32.92,55.947,33.109,55.729z"/>
		<path fill="#C1C1C1" d="M40.45,63.016c-0.867-0.77-1.625-1.66-2.243-2.641c0.208,0.495,0.49,0.959,0.836,1.37
			c0.137,0.163,0.285,0.321,0.38,0.511c0.095,0.191,0.128,0.428,0.027,0.615c-0.067,0.127-0.188,0.217-0.304,0.302
			c-0.156,0.116-0.326,0.233-0.502,0.327h1.979c0.008-0.009,0.016-0.018,0.021-0.027C40.734,63.316,40.585,63.135,40.45,63.016z"/>
		<path fill="#C1C1C1" d="M34.635,63.051c-0.195,0.072-0.388,0.168-0.597,0.182c-0.45,0.028-0.825-0.321-1.14-0.647
			c0.02,0.062,0.037,0.12,0.057,0.181c0.081,0.266,0.179,0.553,0.377,0.735h4.113c-0.079-0.052-0.157-0.106-0.237-0.16
			C36.459,62.85,35.475,62.74,34.635,63.051z"/>
		<path fill="#DADADA" d="M56.715,57.818c0.001-0.057-0.009-0.113-0.027-0.166c-0.033-0.096-0.015-0.18-0.047-0.273
			c-0.063-0.18-0.125-0.359-0.188-0.539c-0.025-0.072-0.052-0.148-0.108-0.199c-0.084-0.08-0.215-0.088-0.328-0.07
			c-0.762,0.107-1.533,0.14-2.297,0.234c-0.226,0.023-0.462,0.049-0.65,0.176c-0.164,0.111-0.271,0.287-0.371,0.457
			c-0.926,1.574-1.684,3.246-2.252,4.981c-0.084,0.252-0.161,0.528-0.069,0.776c0.926-1.336,1.679-2.793,2.233-4.322
			c0.16-0.439,0.324-0.917,0.709-1.184c0.25-0.174,0.559-0.233,0.856-0.289c0.149,0,0.32-0.062,0.468-0.088
			c0.154-0.028,0.315-0.049,0.469-0.086c0.266-0.064,0.553-0.109,0.82-0.035c0.239,0.065,0.465,0.254,0.627,0.438
			c0.065,0.074,0.127,0.158,0.151,0.254C56.713,57.863,56.715,57.842,56.715,57.818z"/>
		<path fill="#C1C1C1" d="M58.188,62.955c0.168-0.141,0.359-0.305,0.354-0.521c-0.001-0.092-0.039-0.18-0.076-0.263
			c-0.129-0.291-0.258-0.581-0.387-0.872c-0.119-0.27-0.22-0.541-0.418-0.764c0.171,0.201,0.157,0.506,0.214,0.754
			c0.063,0.275,0.111,0.575-0.021,0.839c-0.088,0.174-0.242,0.304-0.387,0.435c-0.304,0.28-0.574,0.597-0.807,0.938h0.98
			C57.811,63.305,57.992,63.121,58.188,62.955z"/>
		<path fill="#C1C1C1" d="M52.152,32.939c-0.082-0.142-0.164-0.281-0.246-0.422C51.87,32.691,51.998,32.836,52.152,32.939z"/>
		<path fill="#C1C1C1" d="M51.542,31.625c0.056,0.001,0.117,0.009,0.153,0.051c0.058,0.063,0.031,0.191,0.022,0.27
			c-0.014,0.129-0.051,0.248-0.042,0.38c0.012,0.172,0.08,0.336,0.167,0.486c0.209,0.36,0.524,0.653,0.872,0.887
			c0.348,0.232,0.729,0.41,1.11,0.583c0.358,0.163,0.722,0.323,1.101,0.437c0.195,0.059,0.397,0.078,0.594,0.131
			c0.179,0.047,0.354,0.104,0.545,0.078c0.41-0.058,0.369-0.144,0.312-0.6c-0.067-0.532-0.007-1.072,0.205-1.566
			c0.224-0.521,0.563-0.883,1.013-1.218c0.02-0.014,0.037-0.027,0.057-0.041c-0.018-0.001-0.033-0.002-0.051-0.003h-0.877
			c-0.055,0.001-0.09,0.011-0.142,0.066c-0.065,0.071-0.127,0.146-0.185,0.225c-0.109,0.153-0.207,0.316-0.316,0.47
			c-0.184,0.253-0.381,0.511-0.479,0.813c-0.099,0.304-0.092,0.729-0.397,0.819c-0.093,0.026-0.19,0.01-0.286-0.008
			c-0.561-0.104-1.111-0.255-1.646-0.449c-0.27-0.099-0.532-0.205-0.791-0.326c-0.228-0.104-0.324-0.24-0.367-0.488
			c-0.041-0.242-0.084-0.484-0.124-0.727c-0.019-0.104-0.036-0.208-0.085-0.302c-0.018-0.035-0.039-0.065-0.064-0.093h-1.324
			c0.17,0.105,0.369,0.162,0.569,0.159C51.236,31.658,51.391,31.623,51.542,31.625z"/>
		<path fill="#C1C1C1" d="M51.628,63.348c-0.052-0.015-0.104-0.02-0.159-0.022c-0.357-0.027-0.718-0.021-1.074,0.014
			c0.135,0.015,0.268,0.063,0.375,0.146c0.006,0.007,0.013,0.012,0.02,0.017h1.061C51.805,63.432,51.736,63.377,51.628,63.348z"/>
		<path fill="#DADADA" d="M61.703,56.997c-0.43-0.116-0.877-0.125-1.32-0.134c-0.283-0.006-0.568-0.01-0.854-0.016
			c-0.346-0.007-0.696-0.013-1.028,0.084c-0.104,0.029-0.218,0.08-0.257,0.184c-0.023,0.064-0.014,0.138-0.002,0.207
			c0.052,0.309,0.104,0.617,0.154,0.927c0.06,0.353,0.084,0.737,0.197,1.077c0.098,0.295,0.08,0.605,0.213,0.895
			c-0.045-0.068-0.089-0.137-0.132-0.205c-0.028-0.043-0.056-0.086-0.073-0.134c-0.021-0.056-0.028-0.116-0.041-0.176
			c-0.065-0.302-0.209-0.603-0.313-0.892c-0.12-0.34-0.246-0.68-0.396-1.008c-0.154-0.336-0.334-0.664-0.432-1.021
			c-0.013-0.049-0.021-0.108,0.014-0.146c0.025-0.027,0.069-0.031,0.108-0.033c0.487-0.026,0.976-0.054,1.464-0.08
			c0.403-0.021,0.809-0.043,1.212-0.033c0.531,0.015,1.044,0.104,1.577,0.051c0.186-0.018,0.393-0.041,0.542,0.068
			c0.08,0.059,0.132,0.146,0.183,0.231c0.094,0.162,0.188,0.335,0.18,0.521c-0.014,0.25-0.051,0.497-0.061,0.751
			c-0.008-0.032-0.016-0.063-0.022-0.096c-0.009-0.035-0.017-0.07-0.032-0.104c-0.079-0.164-0.197-0.325-0.297-0.479
			c-0.063-0.098-0.127-0.196-0.217-0.271C61.967,57.08,61.835,57.033,61.703,56.997z"/>
		<path fill="#DADADA" d="M57.406,34.611c-0.012,1.022,0.563,1.953,0.807,2.947c-0.229-0.941-0.35-1.908-0.359-2.879
			c-0.002-0.142,0-0.285,0.026-0.425c0.042-0.21,0.144-0.401,0.241-0.593c0.117-0.225,0.236-0.45,0.354-0.676
			c0.139-0.262,0.277-0.527,0.478-0.747c0.133-0.146,0.288-0.268,0.446-0.384c0.185-0.134,0.375-0.262,0.58-0.357h-1.531
			c-0.039,0.078-0.068,0.162-0.1,0.244C57.997,32.693,57.417,33.6,57.406,34.611z"/>
		<path fill="#DADADA" d="M62.788,32.979c0.231-0.391,0.213-0.905-0.007-1.304c-0.033-0.061-0.071-0.119-0.112-0.174h-0.64
			c0.066,0.036,0.131,0.078,0.188,0.126C62.605,31.945,62.717,32.483,62.788,32.979z"/>
		<path fill="#DADADA" d="M58.213,37.561c0.01,0.033,0.016,0.068,0.023,0.103C58.229,37.628,58.223,37.594,58.213,37.561z"/>
		<path fill="#C1C1C1" d="M61.132,40.16c-0.073,0.137-0.174,0.256-0.272,0.375c-0.403,0.486-0.809,0.973-1.213,1.459
			c0-0.104-0.131-0.292-0.168-0.396c-0.051-0.136-0.08-0.279-0.125-0.416c-0.098-0.289-0.254-0.57-0.381-0.851
			c-0.078-0.17-0.156-0.342-0.199-0.524c-0.029-0.117-0.043-0.238-0.059-0.358c-0.029-0.259-0.104-0.552-0.087-0.81
			c0.235,0.092,0.377,0.482,0.47,0.696c0.232,0.536,0.444,1.079,0.639,1.629c0.008,0.021,0.018,0.043,0.037,0.047
			c0.018,0.005,0.035-0.008,0.049-0.02c0.197-0.158,0.396-0.315,0.593-0.474c0.124-0.1,0.249-0.199,0.353-0.317
			c0.36-0.411,0.432-0.996,0.455-1.541c0.028-0.646,0.014-1.3,0.152-1.931c0.048-0.221,0.113-0.437,0.182-0.65
			c0.092-0.301,0.185-0.6,0.275-0.898c-0.053,0.329-0.105,0.66-0.159,0.991c-0.034,0.209-0.067,0.418-0.097,0.628
			c-0.114,0.817-0.164,1.643-0.236,2.465C61.313,39.57,61.277,39.889,61.132,40.16z"/>
		<path fill="#DADADA" d="M63.346,33.301c-0.107,0.146-0.158,0.323-0.207,0.496c-0.25,0.893-0.5,1.783-0.75,2.676
			c-0.275,0.979-0.553,1.973-0.576,2.99c-0.006,0.232,0.004,0.473,0.104,0.684c0.103,0.209,0.315,0.379,0.548,0.361
			c-0.439-0.492-0.27-1.254-0.072-1.883c0.312-1.004,0.623-2.008,0.937-3.012c0.119-0.383,0.239-0.771,0.45-1.113
			c0.189-0.309,0.443-0.564,0.722-0.799v-1.09c-0.196,0.092-0.392,0.188-0.584,0.283C63.705,32.999,63.484,33.111,63.346,33.301z"/>
		<path fill="#DADADA" d="M42.35,63.5h6.818c-0.08-0.025-0.161-0.051-0.242-0.074C46.793,62.805,44.521,62.961,42.35,63.5z"/>
		<path fill="#DADADA" d="M61.729,62.861c-0.416-0.123-0.856-0.115-1.289-0.096c-0.51,0.022-1.03,0.063-1.49,0.283
			c-0.18,0.085-0.35,0.202-0.456,0.368c-0.019,0.026-0.032,0.056-0.046,0.082h1.531c0.049-0.022,0.098-0.044,0.147-0.063
			c0.308-0.11,0.638-0.139,0.963-0.134c0.322,0.005,0.66,0.046,0.94,0.196h0.64C62.439,63.193,62.098,62.973,61.729,62.861z"/>
		<path fill="#C1C1C1" d="M64.5,41.406v-0.209c-0.588-0.133-1.176-0.271-1.732-0.484C63.316,41.006,63.939,41.137,64.5,41.406z"/>
		<path fill="#DADADA" d="M32.5,42.17v0.047c0.131,0.067,0.257,0.143,0.377,0.229C32.755,42.35,32.629,42.258,32.5,42.17z"/>
		<path fill="#C1C1C1" d="M33.826,53.316c0.095-0.115,0.197-0.219,0.224-0.383c0.017-0.104-0.001-0.209-0.018-0.313
			c-0.062-0.377-0.123-0.753-0.185-1.129c0.094,0.358,0.004,0.741-0.188,1.055c-0.1,0.162-0.243,0.271-0.354,0.418
			c-0.106,0.144-0.201,0.282-0.33,0.41c-0.147,0.147-0.31,0.283-0.478,0.408v0.92c0.278-0.252,0.558-0.504,0.836-0.757
			c0.169-0.151,0.281-0.291,0.39-0.485C33.754,53.408,33.79,53.361,33.826,53.316z"/>
		<path fill="#C1C1C1" d="M32.5,62.797V63.5h0.488c-0.109-0.223-0.273-0.421-0.426-0.619C32.542,62.854,32.521,62.824,32.5,62.797z"
			/>
		<path fill="#DADADA" d="M33.719,32.883c0.188-0.061,0.391-0.064,0.59-0.064c0.955,0.005,1.91,0.117,2.842,0.334
			c0.404,0.095,0.863,0.201,1.213-0.026c-0.65-0.101-1.29-0.269-1.906-0.496c-0.555-0.206-1.1-0.465-1.688-0.53
			c-0.783-0.086-1.543,0.179-2.27,0.511v1.091c0.206-0.173,0.425-0.332,0.643-0.488C33.32,33.082,33.506,32.949,33.719,32.883z"/>
		<path fill="#C1C1C1" d="M33.568,42.109c1.051,0.734,2.281,1.117,3.395,1.738c0.141,0.077,0.344,0.146,0.439,0.017
			c0.476-0.411,0.951-0.823,1.426-1.233c0.015-0.557-0.176-1.053-0.212-1.593c-0.032-0.448,0.06-0.929,0.06-1.384
			c0.001-1.141-0.217-2.528,0.004-3.645c-0.373,1.889-0.621,3.807-0.6,5.729c0.003,0.258,0,0.547-0.18,0.731
			c-0.063,0.064-0.142,0.111-0.221,0.15c-0.484,0.236-1.07,0.25-1.563,0.037c-0.308-0.133-0.573-0.344-0.857-0.521
			c-0.832-0.518-1.795-0.725-2.759-0.941v0.209c0.063,0.029,0.123,0.062,0.184,0.095C32.996,41.676,33.273,41.904,33.568,42.109z"/>
		<path fill="none" d="M33.482,31.5h-0.721H33.482z"/>
		<path fill="none" d="M40.623,31.5h-1.979H40.623z"/>
		<path fill="#C1C1C1" d="M33.662,31.702c0.172,0.023,0.346-0.009,0.518-0.035c0.973-0.147,1.973-0.105,2.93,0.123
			c0.086,0.021,0.173,0.042,0.248,0.086c0.078,0.043,0.144,0.105,0.209,0.165c0.174,0.155,0.363,0.291,0.561,0.414
			c0.191,0.119,0.404,0.23,0.628,0.212c0.312-0.024,0.542-0.283,0.771-0.494c0.317-0.291,0.69-0.52,1.095-0.672h-7.322
			C33.393,31.605,33.509,31.681,33.662,31.702z"/>
		<path fill="none" d="M57.643,31.5h-0.98H57.643z"/>
		<path fill="#C1C1C1" d="M64.202,32.032C64.3,32.053,64.4,32.04,64.5,32.02V31.5h-0.84c0.064,0.102,0.121,0.21,0.201,0.308
			C63.95,31.915,64.066,32.003,64.202,32.032z"/>
		<path fill="#C1C1C1" d="M32.762,31.917c0.088-0.076,0.125-0.199,0.127-0.316c0-0.035-0.002-0.068-0.006-0.101H32.5v0.52
			c0.012-0.002,0.021-0.004,0.032-0.007C32.613,31.994,32.697,31.971,32.762,31.917z"/>
		<path fill="none" d="M42.35,31.5h6.818H42.35z"/>
		<path fill="none" d="M59.979,31.5h-1.531H59.979z"/>
		<path fill="none" d="M62.029,31.5h0.64H62.029z"/>
		<path fill="none" d="M32.988,31.5H32.5H32.988z"/>
		<path fill="#C1C1C1" d="M56.79,63.5h0.81C57.333,63.482,57.057,63.5,56.79,63.5z"/>
		<path fill="#C1C1C1" d="M56.723,63.5h0.067C56.764,63.5,56.741,63.5,56.723,63.5z"/>
		<path fill="#C1C1C1" d="M51.287,63.266c-0.198-0.026-0.398-0.021-0.598-0.024c-0.088-0.002-0.182-0.009-0.254-0.056
			c-0.074-0.049-0.117-0.154-0.065-0.227c-0.097,0.037-0.138,0.16-0.11,0.259c0.026,0.101,0.104,0.177,0.188,0.237
			c0.021,0.016,0.044,0.031,0.065,0.045h1.325C51.704,63.352,51.479,63.293,51.287,63.266z"/>
		<path fill="#AFAFAF" d="M32.5,63.141c0.079,0.125,0.161,0.252,0.262,0.359h0.723c-0.369-0.551-0.698-1.129-0.983-1.729
			L32.5,63.141L32.5,63.141z"/>
		<path fill="#C1C1C1" d="M41.795,62.531c-0.218-0.074-0.322-0.314-0.404-0.53c0.221,0.364,0.754,0.324,1.17,0.228
			c0.959-0.227,1.907-0.512,2.885-0.637s2.004-0.082,2.898,0.33c0.167,0.076,0.338,0.168,0.521,0.171
			c0.185,0.003,0.388-0.118,0.396-0.303c0.004-0.06-0.013-0.118-0.015-0.177c-0.004-0.11,0.041-0.217,0.085-0.316
			c0.203-0.462,0.406-0.924,0.609-1.387c0.402-0.918,0.867-1.902,1.757-2.365c-0.597,0.805-1.056,1.71-1.349,2.667
			c-0.115,0.372-0.203,0.751-0.293,1.13c-0.092,0.389-0.16,1.701-0.688,1.766c-0.12,0.016-0.238-0.025-0.354-0.065
			c-2.201-0.752-4.549-0.916-6.834-0.515C42.055,62.549,41.919,62.572,41.795,62.531z"/>
		<path fill="#C1C1C1" d="M40.45,63.016c-0.867-0.77-1.625-1.66-2.243-2.641c0.208,0.495,0.49,0.959,0.836,1.37
			c0.137,0.163,0.285,0.321,0.38,0.511c0.095,0.191,0.128,0.428,0.027,0.615c-0.067,0.127-0.188,0.217-0.304,0.302
			c-0.156,0.116-0.326,0.233-0.502,0.327h1.979c0.008-0.009,0.016-0.018,0.021-0.027C40.734,63.316,40.585,63.135,40.45,63.016z"/>
		<path fill="#C1C1C1" d="M40.082,62.723c-0.126-0.086-0.253-0.17-0.379-0.255c-0.025-0.017-0.053-0.032-0.082-0.028
			c-0.04,0.009-0.061,0.052-0.073,0.09c-0.046,0.132-0.091,0.266-0.163,0.385c-0.225,0.374-0.682,0.559-1.117,0.568
			c-0.341,0.009-0.675-0.071-0.998-0.17c-0.293-0.088-0.555-0.246-0.853-0.328c-0.582-0.16-1.215-0.144-1.782,0.066
			c-0.195,0.072-0.388,0.168-0.597,0.182c-0.45,0.028-0.825-0.321-1.14-0.647c0.02,0.062,0.037,0.12,0.057,0.181
			c0.072,0.239,0.165,0.539,0.342,0.735h7.322c0.023-0.01,0.048-0.021,0.072-0.026C40.666,63.139,40.359,62.907,40.082,62.723z"/>
		<path fill="#C1C1C1" d="M58.188,62.955c0.168-0.141,0.359-0.305,0.354-0.521c-0.001-0.092-0.039-0.18-0.076-0.263
			c-0.104-0.237-0.196-0.491-0.319-0.722c-0.049-0.092-0.101-0.186-0.154-0.275c-0.041-0.066-0.161-0.172-0.178-0.244
			c0.043,0.191,0.067,0.389,0.104,0.578c0.039,0.204,0.03,0.434-0.064,0.62c-0.088,0.174-0.242,0.304-0.387,0.435
			c-0.304,0.28-0.574,0.597-0.807,0.938h0.98C57.811,63.305,57.992,63.121,58.188,62.955z"/>
		<path fill="#C1C1C1" d="M63.813,61.727c-0.184-0.336-0.345-0.684-0.482-1.039c-0.055-0.141-0.098-0.285-0.153-0.424
			c-0.045-0.113-0.12-0.213-0.163-0.33c-0.008-0.021-0.016-0.045-0.029-0.063c-0.012-0.018-0.029-0.031-0.051-0.038
			c-0.029,0.263,0.131,0.549,0.228,0.785c0.112,0.278,0.231,0.555,0.356,0.827c0.125,0.273,0.256,0.544,0.395,0.812
			c0.042,0.08,0.369,0.8,0.431,0.791c-0.334,0.043-0.577-0.287-0.827-0.511c-0.279-0.249-0.639-0.393-0.998-0.494
			c-0.49-0.139-1-0.208-1.51-0.208c-0.26-0.001-0.52,0.019-0.773,0.054c-0.197,0.026-0.478,0.112-0.664-0.002
			c-0.037-0.022-0.067-0.058-0.098-0.091c-0.177-0.205-0.318-0.44-0.414-0.692c0.014,0.041-0.008,0.123,0.002,0.174
			c0.012,0.06,0.035,0.115,0.051,0.176c0.027,0.105,0.013,0.207,0.039,0.313c0.008,0.029,0.016,0.062,0.016,0.092
			c0.001,0.041-0.012,0.082-0.014,0.125c0,0.037,0.009,0.076,0.024,0.11c0.042,0.083,0.13,0.134,0.22,0.161
			c0.289,0.09,0.623,0.02,0.922,0.03c0.313,0.011,0.627,0.046,0.936,0.103c0.607,0.111,1.201,0.313,1.753,0.594
			c0.179,0.092,0.354,0.193,0.503,0.33c0.063,0.06,0.109,0.125,0.152,0.191h0.84v-0.709c-0.023-0.031-0.05-0.064-0.074-0.096
			C64.195,62.391,63.996,62.061,63.813,61.727z"/>
		<path fill="#C1C1C1" d="M32.5,63.5h0.383c-0.031-0.279-0.212-0.493-0.383-0.709V63.5z"/>
		<path fill="#DADADA" d="M42.35,63.5h6.818c-0.08-0.025-0.161-0.051-0.242-0.074C46.793,62.805,44.521,62.961,42.35,63.5z"/>
		<path fill="#DADADA" d="M61.729,62.861c-0.416-0.123-0.856-0.115-1.289-0.096c-0.51,0.022-1.03,0.063-1.49,0.283
			c-0.18,0.085-0.35,0.202-0.456,0.368c-0.019,0.026-0.032,0.056-0.046,0.082h1.531c0.049-0.022,0.098-0.044,0.147-0.063
			c0.308-0.11,0.638-0.139,0.963-0.134c0.322,0.005,0.66,0.046,0.94,0.196h0.64C62.439,63.193,62.098,62.973,61.729,62.861z"/>
		<path fill="#C1C1C1" d="M32.5,62.797V63.5h0.488c-0.109-0.223-0.273-0.421-0.426-0.619C32.542,62.854,32.521,62.824,32.5,62.797z"
			/>
		<path fill="#C1C1C1" d="M33.538,45.475c-0.476,0.418-0.84,1-0.854,1.631c-0.007,0.254,0.043,0.504,0.098,0.752
			c0.246,1.154,0.572,2.293,0.972,3.404c-0.134-0.824-0.267-1.647-0.397-2.474c-0.069-0.427-0.213-1.07-0.117-1.491
			c0.107-0.484,0.525-0.828,0.916-1.133c0.429-0.332,0.826-0.682,1.275-0.984c0.137-0.093,0.6-0.647,0.713-0.656
			c-0.031,0.002-0.024-0.047-0.023-0.08c0.001-0.057-0.055-0.094-0.104-0.12c-0.768-0.431-1.565-0.78-2.33-1.222
			c0.42,0.241,0.764,0.592,1.104,0.93c0.083,0.082,0.167,0.167,0.217,0.271c0.023,0.049,0.038,0.108,0.018,0.159
			c-0.021,0.052-0.074,0.081-0.123,0.106C34.384,44.841,33.988,45.121,33.538,45.475z"/>
	</g>
</g>
<linearGradient id="SVGID_1_" gradientUnits="userSpaceOnUse" x1="306" y1="-320" x2="306" y2="-363" gradientTransform="matrix(1 0 0 -1 -274 -299)">
	<stop  offset="0" style="stop-color:#FFFFFF;stop-opacity:0"/>
	<stop  offset="1" style="stop-color:#000000;stop-opacity:0.75"/>
</linearGradient>
<rect y="21" fill="url(#SVGID_1_)" width="64" height="43"/>
</svg>
