<?xml version="1.0" encoding="utf-8"?>
<!-- Generator: Adobe Illustrator 15.0.0, SVG Export Plug-In . SVG Version: 6.00 Build 0)  -->
<!DOCTYPE svg PUBLIC "-//W3C//DTD SVG 1.1//EN" "http://www.w3.org/Graphics/SVG/1.1/DTD/svg11.dtd">
<svg version="1.1" id="Layer_1" xmlns="http://www.w3.org/2000/svg" xmlns:xlink="http://www.w3.org/1999/xlink" x="0px" y="0px"
	 width="32px" height="32px" viewBox="0 0 32 32" enable-background="new 0 0 32 32" xml:space="preserve">
<path fill="#FFFFFF" d="M28.121,11.879l-10-10c-1.133-1.132-3.108-1.132-4.242,0l-10,10c-1.168,1.169-1.168,3.073,0,4.243
	c1.134,1.132,3.108,1.132,4.242,0L13,11.242V28c0,1.654,1.346,3,3,3s3-1.346,3-3V11.242l4.879,4.879
	c1.135,1.134,3.111,1.132,4.242,0C28.688,15.555,29,14.801,29,14S28.688,12.445,28.121,11.879z"/>
</svg>
