<?xml version="1.0" encoding="utf-8"?>
<!-- Generator: Adobe Illustrator 15.0.0, SVG Export Plug-In . SVG Version: 6.00 Build 0)  -->
<!DOCTYPE svg PUBLIC "-//W3C//DTD SVG 1.1//EN" "http://www.w3.org/Graphics/SVG/1.1/DTD/svg11.dtd">
<svg version="1.1" id="Layer_1" xmlns="http://www.w3.org/2000/svg" xmlns:xlink="http://www.w3.org/1999/xlink" x="0px" y="0px"
	 width="28.925px" height="28.973px" viewBox="0 0 28.925 28.973" enable-background="new 0 0 28.925 28.973" xml:space="preserve">
<g>
	<polygon fill="none" stroke="#666666" stroke-width="2.1223" stroke-miterlimit="22.9256" points="18.82,1.383 23.81,1.112 
		27.455,4.806 27.862,9.018 27.429,18.407 26.951,18.838 27.393,19.182 27.371,19.688 27.375,19.944 26.207,20.606 27.405,21.385 
		27.455,23.805 23.81,27.498 12.789,27.91 10.305,27.777 9.488,27.143 9.187,27.718 8.441,27.678 8.173,27.271 7.582,27.632 
		5.065,27.498 1.42,23.805 1.724,18.434 1.158,11.321 1.26,11.309 1.85,10.729 1.071,10.224 1.064,10.135 1.42,4.806 5.065,1.112 
		11.162,1.799 16.97,1.484 18.137,2.037 18.8,1.478 	"/>
	<path fill="#808080" d="M5.065,1.112l6.097,0.687l5.809-0.314l1.215,2.923l0.635-3.024l4.99-0.271l3.646,3.694l0.406,4.212
		l-0.433,9.389l-4.532,1.116l4.496-0.342l-0.023,0.507l0.006,0.256l-5.326,0.575l5.355,0.865l0.051,2.42l-3.646,3.692L12.789,27.91
		l-2.483-0.133l-0.967-1.623l-0.151,1.563l-0.746-0.04l0.186-1.627l-1.045,1.581l-2.517-0.134L1.42,23.805l0.304-5.371l-0.565-7.112
		l4.111-0.49l-4.198-0.606l-0.007-0.088l0.356-5.33L5.065,1.112z"/>
	<polygon fill="#B3B3B3" points="22.492,3.065 18.371,3.529 18.185,4.407 17.845,3.588 17.283,3.651 6.478,3.065 3.364,6.221 
		3.017,9.818 3.048,10.509 5.269,10.831 3.075,11.093 3.437,18.934 3.364,22.449 6.478,25.605 15.893,25.957 22.492,25.605 
		25.605,22.449 25.528,21.082 22.048,20.52 25.475,20.149 25.429,19.331 22.897,19.523 25.405,18.905 25.346,17.863 25.91,10.773 
		25.605,6.221 	"/>
	<polygon fill="#666666" points="8.441,27.678 8.626,26.051 7.582,27.632 8.173,27.271 	"/>
	<polygon fill="#666666" points="9.338,26.154 9.187,27.718 9.488,27.143 10.305,27.777 	"/>
	<polygon fill="#666666" points="22.048,20.52 25.528,21.082 27.405,21.385 26.207,20.606 27.375,19.944 25.475,20.149 	"/>
	<polygon fill="#666666" points="25.429,19.331 27.393,19.182 26.951,18.838 27.429,18.407 25.405,18.905 22.897,19.523 	"/>
	<polygon fill="#666666" points="18.371,3.529 18.8,1.478 18.137,2.037 16.97,1.484 17.845,3.588 18.185,4.407 	"/>
	<polygon fill="#666666" points="5.269,10.831 3.048,10.509 1.071,10.224 1.85,10.729 1.26,11.309 3.075,11.093 	"/>
	<polygon fill="#666666" points="12.628,13.198 18.151,9.188 17.894,3.706 18.533,2.758 18.412,9.256 18.412,9.324 18.356,9.363 
		13.431,13.508 17.437,19.307 24.144,20.293 22.889,20.655 22.048,20.52 17.539,19.976 11.072,23.188 9.694,26.752 9.338,26.154 
		10.842,23.004 10.86,22.971 10.894,22.951 17.167,19.385 12.573,13.456 3.534,11.038 5.269,10.831 	"/>
	<polygon fill="#CCCCCC" points="6.478,3.065 17.283,3.651 17.845,3.588 16.97,1.484 11.162,1.799 5.065,1.112 	"/>
	<polygon fill="#CCCCCC" points="18.8,1.478 18.533,2.758 18.517,3.512 22.492,3.065 23.81,1.112 18.82,1.383 	"/>
	<polygon fill="#D6D6D6" points="6.478,3.065 5.065,1.112 1.42,4.806 3.364,6.221 	"/>
	<polygon fill="#D6D6D6" points="22.492,3.065 25.605,6.221 27.455,4.806 23.81,1.112 	"/>
	<polygon fill="#A3A3A3" points="27.455,4.806 25.605,6.221 25.91,10.773 27.862,9.018 	"/>
	<polygon fill="#A3A3A3" points="3.017,9.818 3.364,6.221 1.42,4.806 1.064,10.135 1.071,10.224 3.048,10.509 	"/>
	<polygon fill="#999999" points="3.075,11.093 1.26,11.309 1.158,11.321 1.724,18.434 3.437,18.934 	"/>
	<polygon fill="#999999" points="25.91,10.773 25.346,17.863 27.429,18.407 27.862,9.018 	"/>
	<polygon fill="#A3A3A3" points="3.364,22.449 3.437,18.934 1.724,18.434 1.42,23.805 	"/>
	<polygon fill="#8D8D8D" points="3.364,22.449 1.42,23.805 5.065,27.498 6.478,25.605 	"/>
	<polygon fill="#757575" points="15.893,25.957 12.789,27.91 23.81,27.498 22.492,25.605 	"/>
	<polygon fill="#8D8D8D" points="25.605,22.449 22.492,25.605 23.81,27.498 27.455,23.805 	"/>
	<polygon fill="#A3A3A3" points="25.605,22.449 27.455,23.805 27.405,21.385 25.528,21.082 	"/>
	<polygon fill="#A3A3A3" points="25.475,20.149 27.375,19.944 27.371,19.688 27.393,19.182 25.429,19.331 	"/>
	<polygon fill="#A3A3A3" points="25.405,18.905 27.429,18.407 25.346,17.863 	"/>
	<polygon fill="#FFFFFF" points="3.367,6.007 1.758,5.053 3.18,6.351 3.038,10.267 3.519,6.316 6.519,3.292 13.52,3.447 
		6.621,2.932 5.554,1.789 6.248,3.07 	"/>
	<polygon fill="#FFFFFF" points="22.486,3.259 19.003,3.458 22.316,2.916 23.503,1.565 22.74,3.036 25.605,5.939 26.951,5.192 
		25.774,6.333 25.898,10.397 27.626,9.23 25.91,10.773 25.605,14.605 25.74,10.707 25.469,6.351 	"/>
	<polygon fill="#FFFFFF" points="18.412,9.324 13.807,13.192 18.876,9.443 18.481,5.456 	"/>
	<polygon fill="#FFFFFF" points="3.534,11.038 1.441,11.288 3.402,11.23 12.436,13.669 16.68,18.757 12.573,13.456 	"/>
	<polygon fill="#FFFFFF" points="11.072,23.188 10.383,24.971 11.318,23.514 17.759,20.283 24.727,20.953 17.539,19.976 	"/>
	<polygon fill="#FFFFFF" points="22.897,19.523 27.393,19.182 27.378,19.478 	"/>
	<polygon fill="#999999" points="5.269,10.831 3.893,10.632 5.839,10.545 12.23,12.229 17.484,8.639 17.989,5.725 18.151,9.188 
		12.628,13.198 	"/>
	<polygon fill="#999999" points="17.437,19.307 13.95,14.259 18.009,18.758 24.111,19.875 27.375,19.944 23.762,20.334 	"/>
	<polygon fill="#999999" points="10.842,23.004 17.167,19.385 10.315,22.469 8.688,25.012 6.738,25.252 3.772,22.863 6.478,25.605 
		9.546,25.721 	"/>
	<polygon fill="#999999" points="22.096,24.943 15.892,25.562 10.085,25.74 15.893,25.957 22.492,25.605 25.605,22.449 
		25.528,21.082 25.08,22.264 	"/>
	<polygon fill="#FFFFFF" points="3.318,18.744 2.164,18.563 3.335,19.121 3.368,22.281 3.606,19.087 3.314,16.27 	"/>
	<ellipse fill="#999999" cx="7.867" cy="6.148" rx="0.831" ry="0.842"/>
	<ellipse fill="#999999" cx="13.851" cy="6.338" rx="0.44" ry="0.447"/>
	<ellipse fill="#999999" cx="9.714" cy="10.185" rx="0.475" ry="0.481"/>
	<circle fill="#999999" cx="23.207" cy="11.662" r="0.378"/>
	<ellipse fill="#999999" cx="21.563" cy="6.801" rx="0.661" ry="0.67"/>
	<ellipse fill="#999999" cx="19.58" cy="16.198" rx="1.018" ry="1.031"/>
	<circle fill="#999999" cx="6.292" cy="14.686" r="0.206"/>
	<ellipse fill="#999999" cx="12.105" cy="17.727" rx="0.593" ry="0.601"/>
	<ellipse fill="#999999" cx="6.02" cy="20.149" rx="0.881" ry="0.893"/>
	<ellipse fill="#999999" cx="20.614" cy="23.773" rx="0.595" ry="0.602"/>
	<circle fill="#999999" cx="16.308" cy="23.018" r="0.361"/>
	<path fill="#FFFFFF" d="M12.411,22.107c0.006-0.205,0.015-0.418,0.015-0.632l-1.53-0.624l1.25,0.795L12.411,22.107z"/>
	<path fill="#FFFFFF" d="M21.535,16.598c1.91,0.071,2.547-0.229,2.084-1.951v0.808c0,1.089-1.357,0.937-2.222,0.979
		c-0.056,0.194-0.116,0.386-0.185,0.57L21.535,16.598z"/>
	<polygon fill="#FFFFFF" points="7.114,10.079 7.698,11.612 8.008,10.972 	"/>
</g>
<g>
	<g>
		
			<path fill-rule="evenodd" clip-rule="evenodd" fill="none" stroke="#666666" stroke-width="1.2549" stroke-miterlimit="22.9256" d="
			M8.183,6.484h12.56c1.274,0,2.316,1.042,2.316,2.315v8.187c0,1.231-0.972,2.244-2.187,2.313v1.524c0,0.915-0.75,1.665-1.666,1.665
			h-0.419v-1.205h-1.833v1.205h-1.391v-1.205h-1.833v1.205h-1.617v-1.205h-1.833v1.205H9.718c-0.915,0-1.665-0.75-1.665-1.665
			v-1.524c-1.215-0.068-2.187-1.081-2.187-2.313V8.8C5.867,7.526,6.909,6.484,8.183,6.484z"/>
		<path fill-rule="evenodd" clip-rule="evenodd" fill="#FFF2CB" d="M8.183,6.484h12.56c1.274,0,2.316,1.042,2.316,2.315v8.187
			c0,1.231-0.972,2.244-2.187,2.313v1.524c0,0.915-0.75,1.665-1.666,1.665h-0.419v-1.205h-1.833v1.205h-1.391v-1.205h-1.833v1.205
			h-1.617v-1.205h-1.833v1.205H9.718c-0.915,0-1.665-0.75-1.665-1.665v-1.524c-1.215-0.068-2.187-1.081-2.187-2.313V8.8
			C5.867,7.526,6.909,6.484,8.183,6.484z"/>
	</g>
	<path fill-rule="evenodd" clip-rule="evenodd" fill="#FFE697" d="M16.042,17.077c-1.636,0.776-3.329,1.35-5.094,1.69
		c-0.273,0.102-0.57,0.157-0.88,0.157c-0.017,0-0.034,0-0.05,0c-0.887,0.129-1.789,0.198-2.709,0.206
		c0.231,0.095,0.482,0.153,0.743,0.168v1.524c0,0.915,0.75,1.665,1.665,1.665h0.563v-1.205h1.833v1.205h1.617v-1.205h1.833v1.205
		h1.391v-1.205h1.833v1.205h0.419c0.916,0,1.666-0.75,1.666-1.665v-1.524c1.215-0.068,2.187-1.081,2.187-2.313v-4.689
		c-0.925,0.825-1.867,1.589-2.831,2.282c0.479,0.46,0.774,1.105,0.774,1.82c0,1.395-1.13,2.525-2.525,2.525
		C17.317,18.925,16.339,18.143,16.042,17.077L16.042,17.077z M14.614,20.207c-0.406,0-0.734-0.329-0.734-0.733
		c0-0.406,0.328-0.734,0.734-0.734c0.405,0,0.734,0.328,0.734,0.734C15.348,19.878,15.019,20.207,14.614,20.207z"/>
	<g>
		
			<circle fill-rule="evenodd" clip-rule="evenodd" fill="none" stroke="#FFD83F" stroke-width="0.741" stroke-miterlimit="22.9256" cx="10.069" cy="16.399" r="2.525"/>
		<path fill-rule="evenodd" clip-rule="evenodd" d="M10.069,13.874c1.396,0,2.525,1.131,2.525,2.525s-1.13,2.525-2.525,2.525
			s-2.525-1.131-2.525-2.525S8.673,13.874,10.069,13.874z"/>
	</g>
	<g>
		
			<circle fill-rule="evenodd" clip-rule="evenodd" fill="none" stroke="#FFD83F" stroke-width="0.741" stroke-miterlimit="22.9256" cx="18.477" cy="16.399" r="2.525"/>
		<path fill-rule="evenodd" clip-rule="evenodd" d="M18.477,13.874c1.396,0,2.525,1.131,2.525,2.525s-1.13,2.525-2.525,2.525
			c-1.395,0-2.526-1.131-2.526-2.525S17.083,13.874,18.477,13.874z"/>
	</g>
	<g>
		
			<circle fill-rule="evenodd" clip-rule="evenodd" fill="none" stroke="#FFD83F" stroke-width="0.6273" stroke-miterlimit="22.9256" cx="14.614" cy="19.473" r="0.734"/>
		<path fill-rule="evenodd" clip-rule="evenodd" d="M14.614,18.739c0.405,0,0.734,0.328,0.734,0.734
			c0,0.404-0.329,0.733-0.734,0.733s-0.734-0.329-0.734-0.733C13.879,19.067,14.208,18.739,14.614,18.739z"/>
	</g>
	<path fill-rule="evenodd" clip-rule="evenodd" fill="#FFFFFF" d="M10.069,10.91c1.796,0,3.252,1.456,3.252,3.252
		c0,0.11-0.006,0.22-0.016,0.327c-0.165-1.642-1.551-2.924-3.236-2.924s-3.071,1.282-3.236,2.924
		c-0.01-0.107-0.016-0.217-0.016-0.327C6.817,12.366,8.273,10.91,10.069,10.91z"/>
	<path fill-rule="evenodd" clip-rule="evenodd" fill="#FFFFFF" d="M18.458,10.91c1.796,0,3.252,1.456,3.252,3.252
		c0,0.11-0.007,0.22-0.017,0.327c-0.164-1.642-1.55-2.924-3.235-2.924s-3.071,1.282-3.235,2.924
		c-0.011-0.107-0.016-0.217-0.016-0.327C15.208,12.366,16.663,10.91,18.458,10.91z"/>
	<circle fill-rule="evenodd" clip-rule="evenodd" fill="#FFFFFF" cx="7.854" cy="8.494" r="1.616"/>
	<circle fill-rule="evenodd" clip-rule="evenodd" fill="#FFFFFF" cx="10.347" cy="7.613" r="0.768"/>
</g>
</svg>
