<?xml version="1.0" encoding="utf-8"?>
<!-- Generator: Adobe Illustrator 15.0.0, SVG Export Plug-In . SVG Version: 6.00 Build 0)  -->
<!DOCTYPE svg PUBLIC "-//W3C//DTD SVG 1.1//EN" "http://www.w3.org/Graphics/SVG/1.1/DTD/svg11.dtd">
<svg version="1.1" id="Layer_1" xmlns="http://www.w3.org/2000/svg" xmlns:xlink="http://www.w3.org/1999/xlink" x="0px" y="0px"
	 width="100px" height="100px" viewBox="0 0 100 100" enable-background="new 0 0 100 100" xml:space="preserve">
<circle fill="#F24646" cx="50" cy="50" r="50"/>
<path opacity="0.5" fill="#010101" enable-background="new    " d="M50.064,10.6c-20.861,0-38.548,20.552-33.216,40.718
	c1.298,4.912,2.666,9.421,4.257,13.453c-2.519,2.799-1.43,8.203,0.966,10.813c1.47,1.6,4.753,4.35,7.508,5.467
	c2.229-0.326,8.748-0.693,8.344,6.204c0.756,0.308,1.547,0.573,2.362,0.813v-2.728h0.983v2.997c1.32,0.336,2.702,0.596,4.142,0.771
	v-3.769h0.979v3.864c1.334,0.126,2.703,0.193,4.107,0.193c0.012,0,0.023,0,0.035,0V85.34h0.982v4.042
	c1.396-0.03,2.769-0.114,4.088-0.274V85.34h0.982v3.625c1.369-0.201,2.686-0.479,3.938-0.837v-2.786h0.982v2.483
	c0.563-0.187,1.111-0.384,1.645-0.603c-1.098-8.619,7.612-7.177,8.851-6.93c2.849-0.956,6.462-3.966,8.024-5.665
	c2.492-2.709,3.58-8.455,0.656-11.14c-0.098-0.092-0.213-0.154-0.313-0.242c1.085-3.16,2.043-6.621,2.934-10.391
	C88.094,32.555,70.925,10.6,50.064,10.6z M42.067,62.299c-3.585,2.598-7.479,7.602-12.258,4.699
	c-4.781-2.904-4.891-13.563-2.086-17.792c2.409-3.635,16.219-2.756,17.998,0.295C47.5,52.551,45.651,59.702,42.067,62.299z
	 M54.811,75.104c-0.439,1.323-3.174-0.416-4.398-1.277c-1.223,0.861-3.959,2.602-4.399,1.277
	c-0.571-1.713,2.996-12.397,3.425-13.262c0.128-0.257,0.319-0.477,0.523-0.637c0.103-0.169,0.249-0.234,0.419-0.219
	c0.012-0.004,0.021,0,0.032,0c0.011,0,0.021-0.004,0.033,0c0.17-0.018,0.317,0.051,0.42,0.22c0.203,0.157,0.395,0.379,0.521,0.636
	C51.813,62.705,55.382,73.391,54.811,75.104z M71.816,66.146c-4.578,3.215-8.795-1.521-12.545-3.871
	c-3.752-2.351-6.068-9.365-4.494-12.528c1.57-3.16,15.291-4.958,17.938-1.493C75.793,52.289,76.391,62.93,71.816,66.146z"/>
</svg>
